<svg version="1.1" id="Layer_1" xmlns="http://www.w3.org/2000/svg" x="0" y="0" width="404.333" height="142" viewBox="0 0 404.333 142" xml:space="preserve"><g fill-rule="evenodd" clip-rule="evenodd"><path d="M284.088 36.83c-2.027 6.51-1.385 13.06-2.55 19.578 2.74.878 5.07 1.733 7.638 1.55.297-.02.688-.253.865-.133.552.367 1.192.778 1.448 1.334.123.265-.44 1.06-.87 1.327-1.362.843-2.81 1.543-4.222 2.31-1.406.762-2.85 1.47-4.184 2.34-.525.342-1.025 1.01-1.16 1.614-.547 2.44-.916 4.92-1.418 7.37-.23 1.127-.61 2.222-.912 3.292.357 1.265.73 2.585 1.19 4.232 1.44.48 3.183.93 4.81 1.636 1.633.706 3.154 1.666 5.06 2.697-.772.605-1.17 1.14-1.67 1.27-2.214.566-4.024 2.143-6.474 2.238-1.42.057-2.805.97-4.287 1.53-.638 2.897-.915 5.655.577 8.405.768 1.414.133 2.965-.39 4.34-.88 2.314-1.94 4.56-2.76 6.45-1.788 1.09-3.142 1.022-4.356.092-.925-.708-1.806-.675-2.81-.32-.534.187-1.114.245-1.92.413-.798-2.96.163-5.818-.323-8.67-.47-2.744.37-5.713.648-8.703-1.91-.392-3.428-.352-5.076.785-.315 4.95-2.452 9.716-2.356 14.94.072 3.923-3.062 6.67-7.027 6.71-1 .01-2.008.067-3-.034-1.72-.177-2.533-1.16-2.287-2.857.3-2.075.77-4.125 1.113-6.194.506-3.062.973-6.13 1.422-9.2.068-.47-.05-.966-.08-1.452-1.39-.688-2.666-.186-3.936-.132-2.8.12-5.614.346-8.4.17-3.255-.202-5.25-2.677-7.335-4.82-.584-.597-.54-1.395-.127-2.235.8-1.62 1.787-2.895 3.736-3.088 4.283-.426 8.564-.87 12.85-1.29.598-.06 1.215.054 1.803-.04 1.514-.242 2.686-1.298 2.82-2.68.27-2.768.438-5.546.662-8.502-.657-.062-1.218-.148-1.778-.166-1.63-.048-3.13-.29-4.463-1.434-.784-.672-1.847-1.096-2.853-1.403-1.488-.455-2.05-1.483-2.21-2.876-.112-.992-.19-1.988-.308-3.23 4.106-1.935 8.603-1.38 12.92-1.924.606-5.33 1.032-10.388 1.798-15.394.56-3.652 1.498-7.254 2.408-10.843.45-1.785 1.193-2.12 2.873-1.488 1.4.526 2.74 1.227 4.07 1.917 1.003.52 1.306 1.383 1.19 2.525-.13 1.273-.066 2.568-.076 3.854-.002.198.123.422.066.59-1.1 3.232-.207 6.576-.555 9.857-.25 2.364-.066 4.772-.076 7.238 2.978.71 5.306-.57 7.57-1.74.65-.337 1.09-1.433 1.274-2.26.48-2.14.742-4.33 1.13-6.495.632-3.546 2.25-6.86 2.425-10.522.058-1.232.99-1.914 2.097-2.32 1.097-.403 3.496-.502 5.78-.157zm-14.36 33.143c-1.95.174-3.33.203-4.677.443-1.544.276-1.784.57-1.917 2.21-.23 2.78-.37 5.567-.52 8.354-.017.278.132.564.23.948 1.774.372 3.49.405 5.25-.463l1.634-11.492zM354.98 76.445c.58-.057 1.18-.233 1.738-.147 1.568.24 3.12.59 5.133.986-2.116.59-3.835 1.095-5.567 1.548-4.242 1.11-4.904 2.086-4.252 6.334.046.295.077.592.114.89-1.223-.308-1.223-.308-1.24.644.428-.26.84-.508 1.254-.757.09.284.312.606.246.847-.875 3.123-.076 6.352-.64 9.5-.17.947.097 1.974.17 3.05-.41.01-.786.017-1.18.024-.228.532-.458 1.07-.747 1.74.328.418.69.87 1.043 1.33 1.748 2.287 1.607 4.87-.373 6.742-.688.65-1.506 1.17-2.44.793-1.837-.745-3.71-.534-5.6-.493-.538.012-1.083-.307-1.376-.396-.052-1.704-.175-3.155-.114-4.6.037-.86.197-1.8.596-2.546.734-1.37 1.094-2.607-.287-3.764l1.447-2.286c-.04-.308 0-.55-.104-.688-1.166-1.584-2.018-3.188-1.084-5.245.217-.478.03-1.167-.057-1.747-.205-1.377-.463-2.747-.71-4.186-1.358-1.415-2.767-1.36-4.546-.432-2.62 1.363-5.43 2.04-8.41.922-.614-.23-1.376-.057-2.067-.074-1.43-.034-2.78-.34-3.943-1.226-1.05-.802-1.428-2.025-.53-2.837 2.48-2.236 2.864-5.403 4.06-8.223.854-2.01 2.037-3.88 2.97-5.86.812-1.715 1.442-3.517 2.22-5.25.812-1.817 1.7-3.6 2.568-5.394.262-.542.607-1.047.816-1.608 1.023-2.758 2.57-5.196 4.438-7.45 1.043-1.263 1.66-2.71 1.908-4.34.504-3.318 3.252-4.72 5.732-6.1.922-.513 2.555.012 3.78.36 1.134.322 2.345.84 3.183 1.63 1.27 1.2 1.63 2.885 1.4 4.65-.14 1.077-.29 2.154-.387 3.236a464.59 464.59 0 0 0-.598 7.17c-.186 2.495-.326 4.994-.5 7.492-.312 4.496-.637 8.99-.945 13.485-.033.492 0 .987.004 1.724 1.015.19 1.97.367 2.91.546-.323.183-.636.364-.944.546.043.064.086.13.13.193.263-.24.523-.486.784-.73zm-11.476-18.332c-.342.386-.766.673-.908 1.062-.78 2.132-1.36 4.343-2.246 6.426-1.793 4.21-3.746 8.35-5.605 12.534-.174.394-.148.877-.295 1.843 2.645-1.606 5.543-1.268 7.516-2.862.016-1.846-.035-3.33.068-4.807.05-.764.465-1.496.555-2.264.446-3.75.257-7.573 1.323-11.254.034-.12-.18-.308-.41-.677zm-.846 32.833c.176.017.387.098.516.03.098-.055.098-.298.14-.456-.23-.016-.46-.032-.692-.05.01.16.023.317.036.476zm7.84 4.632c.01-.08.018-.164.025-.248-.12.042-.242.082-.365.123.037.072.06.184.113.205s.148-.05.228-.08zM380.08 96.55c1.107 1.29 2.232 2.567 3.318 3.876.816.984 1.586 2.01 2.39 3.035 1.313-.5 2.647-.918 3.888-1.525.572-.28 1.1-.862 1.406-1.437.418-.782.754-1.67.865-2.545.338-2.637 1.46-5.04 2.125-7.578.256-.98 1.39-1.58 2.363-1.47 1.117.13 1.38.942 1.62 1.876.792 3.09.7 6.117-.47 9.1-.178.452-.545 1.03-.402 1.37.814 1.932-1.008 3.426-.76 5.23-1.137 1.06-2.11 2.68-3.44 3.068-3.222.94-6.575 1.666-10.226 1.046-.525-1.688-2.082-2.34-3.693-2.914l1.555-.567c-.84-.54-1.59-1.386-2.694-.207l1.258.786c-1.107.347-2.445.44-2.967-.572-.63-1.218-1.596-.825-2.42-1.038-1.04-1.412-.992-2.753-.03-4.143.327-.476.48-1.073.722-1.61.124-.138.24-.277.36-.416-.096.145-.188.29-.28.434-1.323.193-2.29-.205-2.964-1.46-.83-1.546-.896-1.51-.258-3.435l-1.922.9c-.88-.693-1.158-1.52-.43-2.326 1.12-1.24 1.04-2.494.412-3.878-.684-1.513-.785-3.043-.234-4.652.287-.838.547-1.812.395-2.646-.3-1.63-.35-3.093.55-4.593.29-.486.02-1.363-.113-2.037-.354-1.77-.28-3.396 1.35-4.58-1.074-3.332-.326-6.565.242-9.77.448-2.548 1.27-5.03 1.763-7.572.336-1.74.395-3.503.953-5.24.58-1.806.877-3.66 2.355-5.04.34-.317.423-.897.696-1.31 1.465-2.216 2.553-4.75 5.312-5.85.537-.213.816-1.074 1.19-1.598 1.18-.197 2.26-.424 3.353-.542.58-.062 1.388-.16 1.733.153 1.19 1.08 2.693 1.117 4.084 1.552.566.177 1.148.404 1.627.745 2.27 1.62 4.04 3.745 6.195 5.962-1.91.31-3.462.687-5.026.762-.715.035-1.488-.47-2.188-.822-2.24-1.126-3.066-1.12-4.7.83-1.065 1.275-2.073 2.787-2.52 4.36-1.367 4.805-2.445 9.692-3.652 14.544-.19.774-.457 1.53-.7 2.29-1.007 3.13-1.712 6.296-1.632 9.63.033 1.377-.346 2.768-.574 4.146-.35 2.12-.688 4.193-.52 6.402.153 2.054-.372 4.17-.714 6.24-.06.353-.7.613-1.072.916l-.984.892c.03.034.064.07.096.104l.898-.998c1.41 1.027 3.014 1.938 2.508 4.13-.418.248-.81.56-1.254.73-1.312.493-1.084 1.294-.617 2.376l1.87-3.113zm-4.195-7.998l-.18-.173.166.22-.622.357c.215-.14.432-.275.637-.405zm.96 15.108l-.423-.354c.154.124.31.247.46.364l.15-.17-.188.16zm3.868-2.892c.172.062.373.207.508.162.12-.04.165-.295.24-.455-.23-.078-.464-.155-.696-.232-.018.175-.035.35-.05.525zm-6.553-3.476c.03-.16.057-.32.086-.483-.188-.02-.4-.1-.56-.04-.08.03-.073.307-.104.473.193.015.385.032.578.05zm3.96-28.415c.065-.045.132-.09.2-.133-.094-.1-.18-.21-.287-.29-.02-.017-.127.082-.195.128l.28.295zm.714 35.94l.227.064-.05-.225-.176.163zm9.088 4.677l-.092.212.223-.047-.13-.166z"/><path d="M321.057 96.88c-.158 2.036-.354 3.35-1.223 4.577-.68.96-1.145 2.127-1.477 3.267-.467 1.595-1.447 2.49-2.973 3.026-2.924 1.024-5.842 2.08-8.713 3.246-2.07.84-3.987.057-5.823-.535-1.088-.35-2.246-1.36-1.85-3.068-.734-.1-1.545-.034-2.166-.345-.583-.294-1.007-.953-1.433-1.504-2.357-3.05-3.56-6.145-3.963-10.095-.02-.198-.027-.405-.088-.594-1.084-3.376-.205-6.75.215-10.067.64-5.05 1.73-10.04 2.53-15.073.312-1.956.36-3.955.523-5.934.025-.295-.02-.613.076-.885 1.24-3.58 2.372-7.208 3.81-10.71.742-1.805 1.754-3.58 3.42-4.825.473-.354.924-.802 1.234-1.3 2.08-3.33 5.273-5.453 8.34-7.7.615-.45 1.443-.662 2.207-.843 1.07-.255 2.194-.294 3.257-.574 3.244-.853 5.895.178 8.2 2.424.833.812 1.663 1.625 2.554 2.492-1.173 1.242-2.37.833-3.185.28-3.373-2.29-6.22-1.118-9.072 1.008-1.795 1.34-3.197 2.933-4.393 4.852-1.97 3.156-3.336 6.486-4.016 10.128-.145.783-.51 1.52-.715 2.296-1.02 3.868-2.063 7.73-3.015 11.616-.852 3.48-1.473 7.023-2.42 10.48-.984 3.583-.78 7.15-.3 10.734.116.867.454 1.792.958 2.5 1.1 1.548 2.203 3.163 3.61 4.405 2.438 2.155 5.458 2.315 8.513 1.636.63-.14 1.2-.678 1.732-1.11 1.166-.95 2.254-1.997 3.45-2.905.497-.376 1.183-.497 2.2-.9z"/></g><g fill-rule="evenodd" clip-rule="evenodd"><path d="M61.425 48.254c-.306 3.084-.443 6.196-.96 9.243-.623 3.652-1.48 7.272-2.41 10.86-.55 2.12-1.35 4.19-2.194 6.22-1.51 3.632-2.605 7.345-3.242 11.245-.45 2.756-1.465 5.418-2.185 8.133-.254.96-.534 1.953-.536 2.932-.008 5.414.017 10.828.146 16.24.037 1.59.527 3.163.67 4.756.14 1.578.1 3.17.138 4.654.923.64 1.55.342 1.897-.36 1.58-3.192 3.86-6.144 3.563-10.008-.015-.193.012-.434.117-.584 1.22-1.756 1.87-3.56 1.66-5.832-.187-2.047.34-4.16.546-6.244.326-3.275.354-6.553 1.217-9.803.785-2.957.752-6.12 1.326-9.147.723-3.81 1.79-7.556 2.535-11.362.884-4.51 2.554-8.818 2.818-13.51.19-3.352 1.377-6.646 2.092-9.97.292-1.363.5-2.74.77-4.107.208-1.06.448-2.117.672-3.176.124-.587.366-1.178.35-1.762-.112-4.006 1.353-7.653 2.538-11.362.392-1.226.85-2.432 1.34-3.828 2.378-.93 5.018-1.347 7.68-1.693.832-.11 1.622-.177 2.1.704.437.81.346 1.674-.33 2.195-1.78 1.373-1.687 3.578-2.484 5.372a2.322 2.322 0 0 0 .42 2.523c.47.52.803 1.465.704 2.147-.825 5.65-1.663 11.3-2.708 16.91-.642 3.446-1.747 6.803-2.467 10.236-.554 2.642-.856 5.338-1.23 8.016-.5 3.578-1.098 7.15-1.402 10.746-.43 5.09-.838 10.2-.876 15.305-.04 5.405.37 10.813.566 16.22.036 1.002.07 2.02-.056 3.007-.177 1.406.472 2.25 1.562 2.986 3.85 2.6 5.27 2.162 6.78-2.178.232-.662.373-1.355.55-2.035.378-1.44.458-3.062 1.193-4.29 1.44-2.405 1.956-5.05 2.428-7.687.634-3.54.982-7.13 1.39-10.707.062-.546-.214-1.132-.363-1.84-1.297.044-2.476.073-3.654.128-1.99.09-3.78-.293-5.114-1.945-.307-.38-.745-.65-1.154-1 .1-1.19.764-2.393-.398-3.414-.277-.245-.192-.922-.23-1.403-.017-.19.13-.39.126-.584-.036-2.496.255-4.896 1.958-6.898-.172-1.854 1.202-3.104 1.836-4.642.458-1.106 1.374-1.706 2.574-1.812 3.613-.32 7.047.074 9.813 2.732.782.75 1.53 1.6 2.062 2.535.942 1.655 1.807 3.37 2.516 5.135.704 1.748 1.175 3.588 1.818 5.606 1.264-.802 1.647-2.083 1.786-3.277.434-3.742 2.867-6.34 5.067-9.025.776-.946 2.09-1.635 3.292-2.008 1.877-.582 3.562-1.92 5.74-1.546.424.074 1.015-.52 1.45-.897.68-.59 1.27-1.28 1.94-1.885 3.287-2.97 8.792-3.235 12.722-1.333 2.713 1.313 4.773 3.266 6.1 6.003.515 1.062 1.19 2.046 1.752 2.996 3.13-.692 4.364-2.173 5.016-4.91 1.01-4.237 3.125-6.138 7.445-5.142 1.557.358 3.068.912 4.772 1.428.105 2.773.615 5.545.057 8.492-.574 3.027-.242 6.213-.565 9.302-.522 4.99-.355 10-.7 14.99-.036.502.025 1.022-.092 1.5-.293 1.202-.662 2.384-1 3.573 1.202.862 1.175 2.223 1.455 3.48.29 1.306 1.032 1.67 2.2 1.005.764-.434 1.43-1.074 2.068-1.695 2.597-2.524 3.97-5.732 5-9.123.057-.192.174-.387.165-.576-.188-3.93 1.625-7.374 2.643-11.01.16-.572.31-1.154.38-1.742.19-1.582.258-3.182.51-4.752a45 45 0 0 0 .587-7.157c.002-1.933.79-3.87 1.264-5.797.304-1.235.67-2.455 1.053-3.837 2.98-.868 5.95.107 9.152.708-.51 5.047-.044 9.996.628 14.934.168 1.237.253 2.44-.8 2.875.145 1.39.35 2.446.35 3.504-.002 5.1-.025 10.202-.125 15.302-.023 1.187-.41 2.36-.57 3.55-.255 1.87-.62 3.747-.64 5.624-.016 1.574.724 2.143 2.28 2.154.79.008 1.583-.213 2.377-.314.56-.072 1.125-.12 1.943-.203-1.948 4.346-5.452 6.2-9.48 6.888-2.095.358-4.368-.27-6.552-.526-1.118-.135-1.687-.978-2.067-1.972-.49-1.285-1.006-2.56-1.65-4.188-1.006 2.89-2.937 4.33-5.41 5.035-2.017.575-4.084.97-6.133 1.423-.487.108-1.024.036-1.488.192-5.06 1.718-8.398-.998-11.437-4.436-1.347-1.523-1.5-3.498-1.575-5.375-.123-3.08-.522-6.17.585-9.23.452-1.25.425-2.794.208-4.138-.317-1.967.167-3.77.498-5.64a24.56 24.56 0 0 0 .392-4.173c.002-.58-.48-1.158-1.008-2.333-.482 1.188-.992 1.812-.912 2.346.65 4.294-.168 8.355-1.606 12.377-.742 2.076-1.113 4.283-1.866 6.354-1.88 5.17-3.368 10.51-6.27 15.256-1.094 1.787-2.207 3.48-2.858 5.562-.782 2.494-3.035 3.787-5.628 3.762-2.115-.02-4.162.154-6.254.403-2.264.27-4.64.216-6.885-.178-1.498-.264-2.85-1.367-4.35-2.137-.094-.6-.113-1.198-.294-1.744-.34-1.036-.484-2.507-1.226-2.972-2.492-1.56-2.275-4.29-3.283-6.474-.04-.09-.086-.188-.092-.284-.08-1.28-.01-2.596-.273-3.838-.266-1.25-.864-2.43-1.416-3.906-1.225 1.38-1.198 3.123-1.663 4.625-1.066 3.438-1.99 6.92-2.964 10.383-.243.86-.445 1.735-.705 2.593-.635 2.1-.96 4.492-4.085 4.234-.278-.023-.59.428-.895.646-.322.23-.64.618-.98.64-4.17.28-8.085 2.032-12.29 2.126-.686.016-1.45.113-2.034.435-1.235.683-2.48.537-3.792.484-1.314-.053-2.145-.592-3.077-1.508-1.762-1.73-3.502-3.654-6.528-3.94-.572.434-1.43.95-2.123 1.636-2.062 2.04-4.56 3.222-7.315 3.957-.777.207-1.548.435-2.313.68-3.366 1.087-5.77-.01-7.17-3.326-.73-1.733-2.04-3.208-2.038-5.278 0-.852-1.224-1.08-1.88-.4-.624.647-1.155 1.386-1.747 2.066-3.536 4.06-8.412 6.08-13.066 8.38-1.26.623-2.925.436-4.406.608-3.39.395-6.04-.71-8.634-3.088-2.184-2-3.64-3.902-3.42-6.887.02-.298.07-.625-.02-.897-1.21-3.686-.84-7.455-.747-11.23.065-2.682-.23-5.37-.37-8.055-.025-.502-.22-1.03-.11-1.494 1.073-4.514.485-9.107.738-13.66.06-1.078.226-2.172.51-3.213.585-2.155.99-4.25.228-6.49-.293-.865-.182-2.012.112-2.91.827-2.517 1.18-4.958.68-7.648-.295-1.58.3-3.346.595-5.012.747-4.216 2.027-8.325 2.27-12.64.076-1.374.547-2.758 1.022-4.07.883-2.438 2.067-4.777 2.822-7.25.923-3.024 2.56-5.64 4.186-8.272.725-1.175 1.52-2.404 2.566-3.267 2.84-2.343 5.462-4.924 8.714-6.82 4.12-2.4 8.192-2.464 12.384-.734 1.383.57 2.468.827 3.945.253 1.872-.73 3.903-.77 5.915-.2 1.25.353 2.566.46 3.83.772 2.378.59 3.905 1.883 4.825 4.383 1.33 3.612 1.49 7.227 1.32 10.955a406.955 406.955 0 0 0-.335 9.628c-.017.788.203 1.58.313 2.37l.045-.11c-.452.986-.163 1.56.935 1.69l-.095.006zm-13.8 21.635c.103.09.206.183.23.204l-.22-.23c.423-.5 1.05-.937 1.235-1.514.756-2.366 1.375-4.776 2.05-7.168.323-1.146.795-2.27.966-3.435.61-4.15 1.106-8.317 1.67-12.475.2-1.483.784-2.99.638-4.43-.257-2.532.08-4.99.373-7.46.323-2.74-.074-5.376-.878-7.972-.308-.994-.936-1.73-1.93-1.96-.295.14-.576.18-.633.315-1.477 3.484-3.188 6.863-3.35 10.795-.37 8.99-.83 17.976-.384 26.98.136 2.78.155 5.565.232 8.35zm-7.17-47.486c-1.582-.837-2.543-.21-3.52.283-3.79 1.917-6.772 4.735-8.593 8.55a128.038 128.038 0 0 0-4.85 11.63c-1.326 3.67-2.49 7.424-3.364 11.225-1.233 5.367-2.324 10.783-3.12 16.23-.812 5.542-1.176 11.15-1.765 16.727-.22 2.09-.6 4.166-.77 6.26-.36 4.493-.652 8.992-.935 13.49-.132 2.1-.24 4.204-.25 6.308-.018 3.525 1.408 6.643 3.044 9.643.965 1.77 2.083 2.128 4.047 1.374 1.478-.566 2.96-1.272 4.237-2.197 4.408-3.19 6.99-7.943 10.062-12.248 1.664-2.332 1.442-2.997-.347-5.16.048-2.062.187-4.038.113-6.007-.066-1.775-.47-3.537-.53-5.31-.065-1.893.194-3.794.14-5.685-.103-3.485.34-6.997-.5-10.454-.137-.562.022-1.196.056-1.797.077-1.392.23-2.782.23-4.173 0-3.45.585-6.885.114-10.356-.317-2.343-.638-4.755.62-6.995.085-.15-.006-.394.004-.593.166-3.484.08-6.992 1.062-10.396.098-.34-.085-.76-.14-1.142-.415-2.92-.138-5.754.933-8.523 1.362-3.517 2.658-7.056 4.02-10.686zm91.226 57.756c-.583-.006-1.063-.06-1.53-.006-3.042.345-5.988.08-8.723-1.398-1.135-.614-2.225-1.318-3.3-2.033-1.523-1.013-2.08-1.02-2.75.582-.84 2.01-1.62 4.103-2.006 6.236-1.173 6.474-2.21 12.97-2.514 19.563-.16 3.424.01 6.768 1.145 10.03.795 2.28 3.117 3.896 5.517 3.76 1.062-.06 1.938-.425 2.484-1.406.39-.7 1.032-1.335 1.183-2.076.854-4.213 3.854-7.37 5.425-11.24.997-2.456 1.84-4.824 1.534-7.504-.208-1.822-.065-3.792 1.077-5.13 2.057-2.414 1.89-5.39 2.665-8.123.09-.327-.113-.737-.204-1.253zm-43.707 3.58c.7-2.535.302-7.258-.795-9.607-2.41 1.516-3.37 3.787-3.69 6.416-.04.326.196.822.466 1.028 1.164.89 2.245 1.97 4.02 2.162zm43.454-11.928c.813-2.274-.35-3.525-1.16-4.823-.585-.936-1.578-1.15-2.637-.834-.91.27-1.646.75-1.714 1.808-.072 1.124.512 1.946 1.473 2.375 1.24.553 2.555.94 4.037 1.472zm-32.49 28.252c-.08-.044-.166-.124-.208-.105-.067.03-.104.126-.153.194l.283.14.078-.23zm1.226-10.995l-.008-.238c-.077.006-.188-.017-.22.024-.038.046-.006.15-.003.228l.23-.015z"/><path d="M208.492 23.4c1.324.626 1.39 1.87 1.354 3.05-.096 3-.342 5.997-.43 8.998-.102 3.458-.098 6.92-.143 10.462 2.38.542 4.617-.044 6.867-.375.684-.1 1.424-.37 2.047-.21 2.59.664 5.143 1.462 7.75 2.223-1.19 2.146-2.57 3.966-4.787 5.204-1.52.848-3.053 1.873-3.846 3.673-.5 1.13-1.56 1.78-3.422 1.766l2.215-2.467c-3.166-.355-5.818.798-8.648 1.562-.136.672-.3 1.234-.353 1.807-.227 2.39-.627 4.787-.578 7.174.09 4.488-1.183 8.852-1.034 13.324.03.863.713 1.942.39 2.53-.694 1.25.423 1.526.728 2.245.266.63.393 1.52-.516 1.766-1.143.313-1.246 1.185-1.414 2.063-.34 1.773-.646 3.554-.983 5.328-.232 1.23-.223 2.317.79 3.32 1.065 1.054.702 2.577.315 3.688-.52 1.5-.264 2.694.307 4.022 1.043 2.438.14 4.734-2.377 5.475-3.864 1.14-7.81 1.648-11.84.732-1.34-.303-2.18-.986-2.466-2.29-.364-1.657-.84-3.313-.2-5.028.167-.446.322-1.013.193-1.437-1.26-4.14.148-8.092.65-12.133.393-3.137 1.44-6.17 1.246-9.418-.106-1.756.463-3.555.75-5.33.08-.494.385-.988.338-1.457-.413-4.14.73-8.086 1.42-12.09.147-.853.062-1.746.086-2.774-1.474-.18-2.75-.47-4.026-.47-5.142.003-9.212-2.397-12.874-5.673-.525-.47-.748-1.347-.954-2.08-.156-.553.014-1.194-.106-1.766-.1-.47-.414-.893-.647-1.368 1.02-1.792 2.66-2.074 4.416-1.91 2.095.193 4.17.63 6.267.75 2.488.146 4.99.078 7.484.08 1.385 0 2.036-.787 2.615-2.03.898-1.927.726-3.95.702-5.882-.03-2.47.55-4.753 1.21-7.047 1.03-3.57 1.66-7.195 1.96-10.9.128-1.572.667-3.108 1-4.665.143-.675.208-1.366.354-2.04.21-.975.278-2.04.734-2.892.973-1.817 1.51-3.685 1.246-5.73 2.172-1.725 4.542-1.585 6.948-1.513 1.363 2.472.812 5.02.965 7.46.083 1.385-.06 2.785-.087 4.18-.055 2.79.207 5.635-1.508 8.11a8.393 8.393 0 0 0-.125-.44l.254.052c-.082.125-.162.25-.242.375zm14.586 26.335l-.19-.02.056.16.134-.14zM62.166 36.568c.076.917.148 1.27.126 1.617-.06.953-.162 1.903-.502 2.833-.292-1.315-.744-2.63.376-4.45zM62.558 33.477l-.312 1.364c-.158-.038-.316-.078-.473-.117l.352-1.36.433.114zM60.542 46.668c1.435-.226 1.463-.174.884 1.586l.095-.007c-.31-.563-.622-1.126-.934-1.69l-.044.11zM60.984 44.243c.23-.324.358-.56.543-.737.044-.042.364.077.39.167a.713.713 0 0 1-.09.525c-.05.075-.285.025-.843.045z"/></g></svg>