<svg version="1.1" id="Layer_1" xmlns="http://www.w3.org/2000/svg" x="0" y="0" width="339" height="183" viewBox="0 0 339 183" xml:space="preserve"><g fill="#FFF"><path d="M329.073 85.06c-.883-2.145-1.73-4.318-2.814-6.363-1.306-2.46-2.77-4.844-4.605-6.97-.453-.525-.792-1.147-1.196-1.715-.44-.617-.464-1.244-.268-1.978.777-2.917 1.553-5.837 2.215-8.782.422-1.874.892-3.78.33-5.73-.063-.214-.027-.462-.015-.694.096-1.796-.402-3.534-.542-5.31-.066-.826-.4-1.66-.748-2.43-1.208-2.69-3.164-4.315-6.258-4.392-1.078-.026-1.935.24-2.786.884-1.315.994-2.285 2.298-3.416 3.458-1.283 1.317-1.787 2.854-1.94 4.59-.05.54-.064 1.082-.096 1.623-.25 4.294.348 8.506 1.27 12.68.23 1.053.615 2.076.965 3.1.753 2.213 1.823 4.276 3.103 6.222.704 1.07.75 2.093.333 3.294-1.66 4.766-3.51 9.443-5.968 13.862-.49.88-1.02 1.736-1.54 2.6-.316.53-.823.724-1.39.626-.528-.09-1.04-.285-1.55-.458-.363-.124-.714-.415-1.07-.413-1.526.01-3.03-.517-4.648-.17a7.86 7.86 0 0 1-1.19 1.89c-.503.593-.925 1.248-1.16 1.993-.197.617-.18 1.215.333 1.72 1.05 1.033 1.886 2.225 2.625 3.45-.288.883-.95 1.268-1.66 1.6-.55.256-1.074.005-1.262-.61-.09-.295-.166-.6-.205-.904-.443-3.455-1.063-6.898-1.274-10.368-.328-5.417-.286-10.845.62-16.23a14.9 14.9 0 0 0 .182-2.31c.004-.318.143-.744-.28-.985-.125.39-.22.763-.372 1.112-.043.102-.253.198-.37.182-.087-.013-.225-.22-.21-.323.144-1.073.32-2.142.474-3.215.305-2.14 1.026-4.225.817-6.435-.027-.294.053-.624.167-.903.66-1.614.755-3.315.77-5.02.01-1.246.227-2.42.845-3.507l-.01.01c.05-1.305-.034-2.634.19-3.91.186-1.062.375-2.116.438-3.192.026-.454.062-.905.326-1.297l-.016.023c.03-.93.19-1.876.066-2.783-.252-1.816.196-3.544.422-5.307.122-.964.552-1.542 1.55-1.748.596-.122 1.132-.504 1.723-.674 1.444-.413 2.636-1.29 3.885-2.06.387-.238.786-.564 1.005-.95.686-1.203.78-2.484-1.035-2.742-.536-.077-1.082-.095-1.617-.172-1.14-.164-2.273-.35-3.32-.513-.676-1.26.373-2.353.067-3.485-.73.163-.934.052-.935-.408-.002-.87.247-1.678.562-2.477.638-1.627.728-3.316.515-5.034-.047-.386-.104-.76-.393-1.063-.872-.912-.936-2.067-.99-3.238-.025-.53.33-1.086-.04-1.58-.4-.534-.99-.248-1.51-.264-.223-.007-.495-.045-.657-.177-1.11-.9-2.58-1.02-3.763-1.765-.727-.458-1.57-.836-2.414-.683-1.13.206-2.278.492-3.21 1.253-.9.734-1.236 1.758-1.423 2.847-.92 5.348-2.17 10.625-3.316 15.926-.544 2.52-.73 2.345-2.818 2.582-2.387.27-4.773.536-7.155.84-1.54.2-3.04.61-4.497 1.145-.576.21-1.146.493-1.272 1.33.48.614 1.04 1.24 1.754 1.71 2.37 1.565 4.92 2.592 7.812 2.597.93.002 1.86.01 2.79.048 1.168.047 1.422.314 1.28 1.39-.684 5.223-1.313 10.455-2.098 15.664-.748 4.98-1.654 9.935-2.51 14.897-.09.52-.124 1.08-.508 1.517-.37-.24-.462-.65-.512-1.01a7.787 7.787 0 0 0-.948-2.83c-.225-.398-.35-.862-.47-1.31-.744-2.795-2.076-5.334-3.41-7.874-.264-.505-.556-.894-1.233-.838-.414.034-.72-.298-.886-.652-.34-.725-.906-1.243-1.457-1.79-.827-.822-1.623-1.663-1.628-2.957-.002-.562-.754-.782-.742-1.135.043-.787.682-1.138.466-1.74a1.102 1.102 0 0 0-1.087-.262c-1.48.44-2.99.813-4.316 1.65-.52.328-1.073.653-1.48 1.098-1.152 1.25-2.27 2.524-3.26 3.925-1.517 2.147-3.11 4.26-5.18 5.936-2.95 2.39-5.926 4.75-8.618 7.44-.263.263-.538.583-1.032.413-.438-.64-.446-1.44-.673-2.166-.23-.74-.38-1.51-.686-2.216-.615-1.42-1.236-2.85-1.99-4.2a74.27 74.27 0 0 0-4.196-6.67c-2.22-3.152-8.567-3.894-11.46-1.144-2.397 2.28-4.356 4.816-5.906 7.702-.66 1.23-1.262 2.488-1.902 3.727-.138.268-.285.574-.7.443-.292-.498-.176-1.052-.167-1.58.03-1.947-1.113-3.334-2.252-4.704-.447-.54-1.132-.96-1.825-.92-1.603.088-2.602-.724-3.433-1.934-.172-.25-.43-.447-.66-.65-1.422-1.242-2.394-1.342-3.994-.407-.932.546-1.76 1.297-2.86 1.51-.837.16-1.33.71-1.78 1.372a46.346 46.346 0 0 0-3.58 6.244c-1.062 2.24-2.08 4.503-3.175 6.728-1.09 2.217-2.162 4.454-3.836 6.324-.14.158-.28.448-.23.622.226.788-.037 1.516-.12 2.278-.08.725-.053 1.532.392 2.17.157 0 .242.02.31-.004 1.43-.527 2.156-1.973 3.468-2.667.16-.085.19-.408.293-.614.173-.346.325-.708.543-1.023 1.673-2.422 2.98-5.078 4.772-7.424.467-.61.782-1.335 1.165-2.008.345-.606.675-1.22 1.038-1.815.146-.24.294-.558.822-.347 0 .41-.01.87.002 1.328.145 4.885-.29 9.754-.542 14.623-.196 3.787-.992 7.522-1.626 11.267-1.112 6.57-2.29 13.13-2.965 19.766-.543 5.32-1.07 10.64-1.477 15.97-.317 4.17-.99 8.314-1.222 12.484-.21 3.797-.893 7.53-1.195 11.314-.4 5.008-1.25 9.983-2.04 14.952-.237 1.496.066 2.563 1.263 3.43.375.272.673.67 1.073.887 1.365.73 2.744 1.48 4.365.697.338-.164.672-.427 1.087-.27.97.36 1.802-.253 2.692-.4.833-.137 1.608-.526 2.028-1.392.24-.5.633-.908 1.266-.854.384.034.56-.203.735-.455.532-.757 1.08-1.506 1.567-2.29.198-.317.31-.71.374-1.084.3-1.757.605-3.513.846-5.277.472-3.452.88-6.91 1.46-10.352.358-2.118.677-4.273.633-6.457-.045-2.246.13-4.485.446-6.72.282-1.99.492-4.006.532-6.016.06-2.942.63-5.862.352-8.817-.036-.377.04-.778.134-1.15.252-1.003.17-1.994.016-3-.247-1.624-.092-3.245.162-4.855.086-.538.476-.83 1.004-.686 2.18.597 4.448.606 6.646 1.055 2.207.45 4.312-.014 6.397-.64a6.872 6.872 0 0 0 2.792-1.618c.73-.693 1.48-1.37 2.247-2.02 3.926-3.332 6.646-7.514 8.66-12.2.825-1.92 1.64-3.845 2.508-5.746.275-.605.318-1.35 1.03-1.932.07.505.123.87.172 1.236.194 1.458.348 2.924.59 4.375.494 2.945 1.836 5.58 3.183 8.194.565 1.1 1.333 2.088 2.473 2.714 1.355.743 2.683 1.54 4.044 2.273.47.255 1.004.395 1.513.576 1.724.614 3.534.33 5.3.507 1.206.12 2.287-.193 3.362-.687 4.225-1.94 7.374-5.118 9.926-8.876 2.17-3.2 4.104-6.562 5.69-10.11.045-.1.237-.134.363-.2.312.202.248.532.242.813-.046 2.253.173 4.487.447 6.72.426 3.474.927 6.922 2.854 9.97.244.388.487.832.544 1.274.188 1.473 1.155 2.255 2.306 3.003 1.745 1.136 3.487 2.258 5.057 3.677 1.563 1.414 3.523 2.255 5.723 2.235a7.52 7.52 0 0 1 2.506.406c.576.194 1.19.282 1.8.42.412-.437.725-.902 1.156-1.19.435-.29 1.01-.368 1.48-.617.332-.174.647-.437.875-.733.422-.548.773-1.15 1.205-1.807.218-.026.53-.025.818-.106.408-.116.628-.428.67-.852.013-.153.05-.325 0-.46-.39-1.064-.53-2.086.295-3.042.12-.138.116-.45.063-.655-.4-1.53.196-3.013.09-4.53.827 0 1.412.408 2.03.72 3.064 1.54 6.263 2.197 9.68 1.515.603-.12 1.235-.21 1.847-.176 1.278.073 2.425-.358 3.604-.734 1.132-.36 2.048-1.087 3.057-1.653 1.775-.997 3.37-2.202 4.432-4 .272-.466.628-.882.937-1.327 1.444-2.074 2.353-4.37 2.436-6.892.057-1.693-.165-3.397-.31-5.092-.064-.69-.14-1.414-.4-2.045zM224.78 76.847c-.457 4.89-1.712 9.576-3.386 14.17-.605 1.667-.92 3.423-1.692 5.047-.736 1.544-1.656 2.972-2.542 4.42-.393.64-1.053 1.116-1.603 1.657-.105.104-.263.222-.396.223-1.13.014-2.324.23-3.37-.067-1.024-.292-2.003-.73-3.09-.822-.286-.023-.56-.22-.858-.347-.188-.986.074-1.884.245-2.782.372-1.975.904-3.93 1.12-5.92.3-2.766.956-5.472 1.217-8.238.095-1 .247-1.997.297-3 .068-1.352.49-2.54 1.24-3.677 1.36-2.062 2.595-4.21 3.937-6.286.963-1.49 2.045-2.906 3.017-4.39.55-.84.95-1.773 1.483-2.625.44-.705.804-1.5 1.618-1.92.792.667 1.056 1.563 1.317 2.45.726 2.448 1.354 4.913 1.514 7.483a29.62 29.62 0 0 1-.066 4.623zm18.863-7.308c-.268.47-.623.917-.763 1.424-.235.856-.68 1.552-1.285 2.167-.778.79-1.177 1.81-1.706 2.75-.258.46-.316 1.05-.857 1.323-.113-.094-.29-.165-.318-.274-.362-1.377-.067-2.77-.14-4.163 2.056-1.795 3.66-4.017 6.01-5.424.013-.008.096.1.206.214-.374.647-.766 1.312-1.147 1.98zm14.907 20.9c-1.1 2.39-2.968 4.12-5.228 5.426-.967.56-1.484.395-2.028-.678-.985-1.944-1.446-4.067-2.066-6.14-.947-3.16-.597-6.267.254-9.355.718-2.603 1.538-5.18 2.296-7.774.127-.438.26-.91.22-1.353-.08-.896.19-1.67.58-2.44.45-.897.85-1.822 1.328-2.703.21-.39.564-.706.948-1.17.582.55.95.947 1.368 1.282.616.494 1.084 1.102 1.465 1.778 4.252 7.56 4.463 15.285.863 23.127zm55.835 2.428c-.31.46-.727.87-1.262.974-1.268.244-2.525.7-3.81.435-.082-.135-.14-.195-.157-.267a.346.346 0 0 1 .02-.225c.476-.885.943-1.773 1.438-2.646.952-1.682 1.966-3.33 2.865-5.04.745-1.42 1.362-2.908 2.103-4.506.715.823.69 1.72.87 2.516.73 3.244-.266 6.104-2.068 8.76zm3.72-36.82c-.48 2.26-1.033 4.507-1.57 6.756-.088.366-.26.713-.51 1.384-.83-1.023-1.144-1.89-1.408-2.76-.786-2.587-1.338-5.225-1.574-7.925-.088-.995-.23-1.986-.32-2.982-.147-1.618-.19-3.235.295-4.815.175-.57.65-.852 1.25-.76 1.667.25 2.793 1.236 3.523 2.694.49.975.723 2.027.745 3.125.035 1.776-.064 3.546-.43 5.283z"/><path d="M188.27 100.562c.243-3.1-.444-6.004-1.734-8.793-.358-.774-.787-1.517-1.112-2.302-.985-2.384-2.366-4.53-3.892-6.59-.415-.56-.817-1.137-1.29-1.646-.78-.84-.873-1.747-.505-2.794.514-1.46.997-2.935 1.45-4.417.696-2.287 1.602-4.51 1.846-6.933.274-2.725.32-5.38-.67-8.016-.623-1.666-1.666-2.755-3.28-3.36-1.553-.585-3.095-.993-4.56.265-.345.295-.822.43-1.2.69-1.85 1.273-3.624 2.667-5.546 3.815-1.58.945-2.462 2.29-3.045 3.934-.31.87-.515 1.776-1.324 2.4-.266.203-.365.664-.47 1.03-.17.594-.298 1.202-.418 1.81-.78 3.964-.34 7.716 1.966 11.132.693 1.027 1.388 2.055 2.128 3.048 1.11 1.492 2.273 2.944 3.392 4.43 2.045 2.715 1.754 2.38.736 5.017-2.014 5.21-4.427 10.242-7.006 15.194-.145.277-.313.537-.732.616-.527-.1-1.15-.373-1.72-.287-.736.11-1.377-.216-2.058-.188-.848.034-1.708-.062-2.53.02-1.09.107-2.387.01-2.967 1.36-.083.19-.343.305-.52.456-1.294 1.104-1.787 2.533-1.35 4.134.22.806-.288 1.264-.432 1.825.182.45.554.602.875.808.52.335 1.06.644 1.57.996.44.307.533.746.292 1.222a7.3 7.3 0 0 1-.462.806c-2.17 3.18-4.923 5.765-8.115 7.894-.515.344-1.062.63-1.85.463-.416-.906-1.126-1.775-1.09-2.917.05-1.57-.323-3.07-.602-4.592-.35-1.904-.694-3.834-.525-5.766.326-3.706.367-7.425.646-11.135.486-6.49.7-12.998 1.388-19.472.106-1 .14-2.01.17-3.015.007-.25-.268-.64-.72-.65-.224.31-.003.605-1.003.9v.073c0 .012.345.025.34.038.23.708.647 1.4.315 2.17-.288.667.227 1.52-.31 2.123-.3-.016-.37-.12-.333-.307.242-1.252-.027-2.59.558-3.79a1.63 1.63 0 0 1 .09-.26c.01-.015.027-.03.04-.046-.042-1.514.32-3.038-.126-4.544-.062-.21-.03-.47.025-.692.42-1.725.167-3.536.698-5.25.16-.514.22-1.06.315-1.594.836-4.65 1.678-9.296 2.497-13.95.135-.77.375-1.494.656-2.22.244-.63.644-1.06 1.268-1.26 2.653-.846 5.23-1.95 7.98-2.472 1.17-.222 2.194-.746 3.22-1.283 1.06-.556 1.944-1.26 1.985-2.614.005-.215.172-.427.273-.637.58-1.21-.18-2.23-.5-3.302-.07-.234-.445-.412-.714-.547-.79-.394-1.636-.437-2.5-.322-2.533.336-5.067.668-7.602 1.002-.446.06-.902.27-1.322-.08-.053-.142-.164-.288-.148-.42.23-1.997.463-3.995.723-5.99.13-.998.325-1.987.47-2.983.147-1.01-.493-1.93-.346-2.96.08-.57-.277-.99-.76-1.338-.562-.403-1.096-.862-1.562-1.37-.646-.705-1.423-.915-2.31-.748-.853.16-1.675.234-2.516-.09-.26-.1-.618-.052-.904.027-1.266.35-2.526.723-3.78 1.11-.9.278-1.704.72-2.186 1.324-1.21 4.993-2.368 9.812-3.553 14.624-.285 1.157-.495 1.312-1.805 1.37-1.553.07-3.09.198-4.605.58-.823.208-1.658.384-2.495.527-2.23.38-4.367 1.07-6.443 1.935-.774.323-1.49.82-2.174 1.32-.713.52-.626 1.188.194 1.64 1.22.67 2.48 1.27 3.693 1.956 1.253.708 2.596.98 4.01 1.013 1.318.03 2.636.054 3.952.114.844.038 1.695.09 2.448.45.18.75-.228 1.262-.506 1.794-1.473 2.82-3.16 5.51-4.99 8.113-2.68 3.815-5.616 7.41-8.98 10.647-1.52 1.46-3.207 2.688-4.998 3.78-.674.41-1.415.73-2.205.415-1.022-.408-2.073-.603-3.158-.7-.402-.037-.66-.555-.448-.88.59-.908 1.2-1.804 1.818-2.696.474-.686 1.02-1.33 1.217-2.13-.23-.167-.345-.318-.472-.33-1.737-.16-3.367.334-4.972.89-.417.145-.79.49-1.12.81-2.63 2.515-5.274 5.02-7.858 7.582a88.945 88.945 0 0 0-4.61 4.904c-1.315 1.52-2.498 3.155-3.733 4.744-2.337 3.008-5.04 5.678-7.732 8.356-.218.217-.465.41-.718.588-.322.23-.658.276-1.08.22-1.087-.146-1.257.06-1.067 1.026.104.528.163 1.07.323 1.58.096.3.415.49.748.39.363-.11.718-.276 1.044-.473.942-.566 1.64-1.412 2.418-2.165.24-.232.426-.67.903-.436.017.086.06.168.04.228-.268.808-.55 1.612-.818 2.42-1.755 5.27-2.21 10.595-.696 16.005.814 2.91 1.51 5.866 3.02 8.522 1.15 2.02 2.346 4.015 3.59 5.977 1.004 1.58 2.29 2.918 3.79 4.057 3.74 2.837 7.99 3.1 12.407 2.482 1.935-.27 3.663-1.146 5.447-1.895 2.356-.988 4.067-2.798 6.002-4.322.344-.27.5-.77.76-1.156.516-.772.964-1.61 1.582-2.29 1.064-1.173 1.782-2.527 2.373-3.965.82-1.997 1.467-4.055 2.152-6.1.18-.533-.106-1.038.118-1.586 1.063-2.608 1.614-5.303 1.203-8.138a3.153 3.153 0 0 1 .04-1.158c.514-2.16.42-4.3-.135-6.438-.096-.37-.094-.77-.132-1.152-.208-2.072-.39-4.126-1.123-6.13-.446-1.217-.637-2.55-1.126-3.772-.744-1.86-1.453-3.7-3.26-4.932-1.064-.728-1.59-2.015-2.05-3.218.637-.462 1.285-.465 1.883-.54 2.847-.363 5.338-1.553 7.653-3.174.888-.622 1.748-1.286 2.628-1.92.254-.18.54-.292.92-.07.195.64.024 1.327-.03 2.015a235.585 235.585 0 0 0-.28 3.94c-.045.714-.022 1.377.857 1.66.305.1.268.504.248.822-.08 1.237-.166 2.475-.204 3.713-.017.602-.122 1.044-.825 1.162-.15.025-.326.34-.363.544a53.66 53.66 0 0 0-.493 3.19c-.03.25-.066.647.45.69.602-.56.25-1.448.625-2.19.314.674.208 1.29.167 1.873-.324 4.52-.684 9.04-1.032 13.56-.242-.356-.293-.72-.398-1.066-.03-.1-.208-.17-.333-.22-.045-.016-.16.054-.19.11-.106.203-.252.412-.27.63-.178 2.08-.338 4.162-.49 6.245-.02.3.036.605.053.853.194.142.31.244.44.317.668.374.954.905.666 1.415-.183.323-.528.55-.75.854-.368.51-.354 1.422.146 1.634.76.32.852.87.765 1.495-.195 1.41-.126 2.778.4 4.113.083.21.104.456.107.685.03 1.985.754 3.797 1.506 5.57.637 1.502 1.62 2.78 3.037 3.723a73.086 73.086 0 0 0 6.604 3.893c2.076 1.088 4.326 1.064 6.547 1.29.226.023.466-.034.69-.086 1.503-.352 3.02-.66 4.502-1.08 2.045-.582 3.62-1.722 4.198-3.91.078-.296.22-.576.354-.853.607-1.252 1.245-2.49 1.823-3.756.22-.483.48-1.046.426-1.542-.118-1.077.324-1.988.683-2.907.7-1.793 1.517-3.543 2.29-5.31.028-.06.118-.095.18-.142.586.014.976.434 1.437.705 3.265 1.927 6.857 2.46 10.536 2.173 4.5-.353 8.59-1.914 12.04-4.933.058-.05.127-.09.184-.142 1.416-1.33 2.784-2.687 3.403-4.617.282-.883.667-1.735 1.03-2.59a35.04 35.04 0 0 0 2.682-11.01zm-81.102 11.386c-.875 4.142-2.614 7.93-4.99 11.428-.97 1.424-2.186 2.623-3.542 3.662-.667.51-1.457.872-2.213 1.256-.538.275-1.065.148-1.498-.262-.394-.372-.808-.737-1.125-1.17-1.51-2.055-3.11-4.042-4.276-6.337-2.11-4.155-2.685-9.735-1.37-14.22.13-.446.3-.88.424-1.327.142-.517.19-.99.015-1.567a4.45 4.45 0 0 1 .19-3.16c.506-1.13.98-2.28 1.57-3.364 1.372-2.517 2.893-4.944 4.662-7.208.234-.3.49-.583.937-1.113.952.86 1.96.866 2.966.87.696.004 1.394-.026 2.09-.044 1.935-.048 3.45.662 4.417 2.403.225.404.514.774.793 1.146 1.354 1.8 1.94 3.847 2.023 6.072.162 4.356-.17 8.676-1.072 12.936zm33.514 1.47c-.013.494-.273.64-1.204.82.402-1.06.78-2.062.62-3.183-.052-.363.124-.9.64-1.095.323 1.166-.028 2.31-.056 3.457zm.43-18.06l.155-.55c.115 0 .21-.023.234.006.145.188.117.394-.045.54-.065.057-.226.007-.344.005zm30.116 13.742c-1.165 1.234-2.534 1.692-4.147 1.558-.59-.05-1.23-.092-1.692-.527.01-.204-.03-.383.035-.5a5459.25 5459.25 0 0 1 8.04-14.343c.03-.05.143-.05.3-.1.745 1.215.824 2.617.974 3.975.42 3.86-.858 7.125-3.51 9.938zm4.817-34.557c-.58-.086-.69-.387-.794-.668-.537-1.464-.81-2.952-.57-4.528.196-1.294.273-2.61.763-3.842.11-.274.315-.512.49-.758.04-.057.148-.122.195-.104.134.05.327.12.36.224.12.36.244.738.257 1.113.1 2.853.043 5.696-.7 8.563z"/><path d="M73.818 70.522c.157-2.396.13-4.803.278-7.2.14-2.244.26-4.48.09-6.73-.152-1.998-.553-3.988-.3-6.01.218-1.728-.107-3.358-.747-4.98-.423-1.067-.996-2.188-.814-3.357.24-1.55-.344-2.876-.722-4.292-.293-1.1-.918-1.77-1.88-2.19-.85-.37-1.784-.57-2.593-1.01-1.064-.575-2.082-.472-3.125-.085-1.157.43-2.296.91-3.45 1.353-.37.143-.698.313-.94.642-.41.56-.83 1.117-1.256 1.666-.25.318-.416.676-.375 1.07.185 1.73-.376 3.38-.533 5.074-.292 3.164-.6 6.326-.91 9.488-.284 2.853-.58 5.704-.873 8.556-.437 4.234-.67 8.487-1.156 12.72-.344 3-.47 6.024-.692 9.037-.228 3.087-.458 6.175-.678 9.264-.034.478-.125.918-.6 1.382-1.42 0-2.96-.015-4.5.002-1.627.02-3.255.097-4.882.09-1.536-.008-3.046.516-4.74.275-.273-1.538-.292-2.845-.22-4.158.183-3.394.08-6.797.387-10.186.02-.23-.02-.466-.006-.697.095-1.546.214-3.09.294-4.637.168-3.25.41-6.496-.097-9.744-.165-1.064-.163-2.162-.158-3.244.01-2.462.262-4.902-.405-7.364-.543-2.004-.65-4.125-.976-6.19-.083-.53-.18-1.092-.422-1.56-.61-1.173-1.046-2.398-1.382-3.67-.5-1.896-1.692-3.466-2.526-5.205-.38-.79-1.184-1.432-2.12-1.697-1.334-.38-2.678-.728-4.024-1.067a1.234 1.234 0 0 0-.67.027c-1.09.384-2.255.655-3.232 1.235-1.057.627-2.104 1.263-3.194 1.838-1.087.574-1.7 1.56-1.887 2.783-.06.383-.088.77-.105 1.158-.122 2.702-.47 5.384-.47 8.1.002 4.183-.798 8.33-.732 12.522.003.232-.03.464-.05.696-.303 3.938-.747 7.87-.784 11.825-.012 1.24.008 2.483-.095 3.717-.387 4.638-.373 9.287-.39 13.93a423.52 423.52 0 0 0 .435 20.687c.226 5.03.23 10.07.445 15.104.317 7.357.536 14.718.742 22.078.08 2.863.265 5.73-.017 8.598-.075.76.02 1.548.13 2.31.115.785.483 1.454 1.17 1.93.83.57 1.698 1.108 2.423 1.795.968.918 2.093 1.256 3.367 1.35.993.072 1.964.29 2.942.482 1.44.282 2.78.93 4.21 1.144.458-.27.892-.457 1.247-.744.522-.424 1.05.038 1.56-.09.147-.035.285-.114.43-.17.903-.348 1.748-.72 2.54-1.366.855-.695 2.026-1 3.084-1.487-.064-1.55.024-3.012.142-4.475a5.946 5.946 0 0 0-.226-2.062c-.284-.99-.328-1.977-.315-2.988a26.812 26.812 0 0 0-.815-6.906c-.267-1.062-.506-2.102-.557-3.187-.068-1.47-.166-2.94-.158-4.413a16.046 16.046 0 0 0-.264-2.988c-.315-1.75-.364-3.535-.3-5.315.01-.227.14-.452.462-.386.488.85-.207 2.03.726 2.78.33-.26.186-.57.173-.86-.06-1.393-.15-2.785-.177-4.18-.09-4.718-.066-9.44-.267-14.154-.114-2.633-.15-5.265-.208-7.898-.026-1.153-.086-2.32.43-3.312.528-.34.998-.195 1.457-.197 3.58-.013 7.08.77 10.625 1.103.52.048.834.372.867.916.087 1.467.195 2.938.194 4.407a315.71 315.71 0 0 1-.13 8.37c-.186 6.656.202 13.327-.524 19.968-.025.23-.002.465.004.697.07 2.4.187 4.8.193 7.2.004 1.633.558 2.707 2.13 3.454 1.57.746 3.31 1.333 4.437 2.83.114.153.408.216.625.235.614.06 1.242.162 1.845.087 1.552-.193 3.055-.097 4.46.55.896-.568 1.446-1.61 2.66-1.392.185.034.465-.123.613-.277.463-.483 1.035-.552 1.654-.687.64-.138 1.368-.496 1.62-1.185.502-1.373 1.016-2.738.916-4.274-.212-3.24-.303-6.488-1.204-9.643-.147-.518-.21-1.066-.257-1.604-.186-2.078.08-4.188-.457-6.24.3-2.44-.012-4.907.34-7.356.274-1.907.382-3.842.502-5.77.125-2.006.123-4.02.28-6.022.107-1.39.232-2.772.232-4.172 0-1.698.022-3.39.437-5.077.31-1.262.39-2.62.335-3.925-.116-2.72.073-5.43.328-8.117.58-6.104.72-12.225 1.12-18.33zM296.45 48.67c.303-1.588.492-3.182.652-4.777.036-.365.13-.76-.23-1.22-.2.514-.124.978-.167 1.417-.044.454-.164.876-.46 1.232-.038 1.12-.2 2.245.204 3.35z"/><path d="M296.245 45.323v-.007c-.006.008-.008.017-.014.026a.133.133 0 0 1 .015-.02z"/><path d="M296.245 45.316l-.03.048c.007-.007.012-.015.017-.022.005-.01.007-.018.013-.026zM296.06 51.138c-.428.538-.23 1.092-.3 1.603-.05.38-.187.7-.454.967l.194 2.704c.11-1.74 1.008-3.4.56-5.272zM295.306 53.708v-.014c-.008.012-.014.025-.02.038a.257.257 0 0 1 .02-.024z"/><path d="M295.305 53.693l-.028.048a.106.106 0 0 0 .01-.01c.005-.01.01-.024.018-.037zM124.924 89.955l-.138-.374c-.12.054-.295.074-.348.165-.12.208-.062.422.204.456.083.01.188-.158.282-.245zM123.686 98.363c-.1.062-.142.222-.21.338l.335.2c.064-.12.177-.24.18-.36.002-.172-.16-.265-.304-.177zM123.58 100.277c-.11.2-.068.41.197.436.078.007.173-.17.26-.262l-.13-.375c-.114.066-.274.105-.328.202z"/></g></svg>