<svg version="1.1" id="Layer_1" xmlns="http://www.w3.org/2000/svg" x="0" y="0" width="486" height="273" viewBox="0 0 486 273" xml:space="preserve"><g fill-rule="evenodd" clip-rule="evenodd" fill="#FFF"><path d="M97.883 217.21c.603 2.047 1.3 4.07 1.77 6.147.255 1.118.637 2.76.08 3.416-2.46 2.897-1.356 4.676.522 7.506.722 1.085.252 3.69 2.48 4.685-.333.374-.888.708-.964 1.13-.5 2.765-.472 5.705-1.43 8.287-1.288 3.464 2.918 7.457-1.497 10.566-3.702 2.607-15.184 3.062-18.816.325-.78-.587-1.593-1.374-2.483-1.527-4.71-.804-5.304-3.68-4.92-7.904.75-8.268.793-16.597 1.428-24.878.55-7.2 1.732-14.356 2.243-21.56.713-10.062.727-20.184 1.698-30.216.536-5.53 2.513-10.914 3.616-16.408.218-1.09-1.054-2.477-.84-3.57 1.11-5.67 2.393-11.307 3.776-16.915 1.686-6.832 3.842-13.56 5.23-20.447C91.512 107.24 93 98.55 93.94 89.825c.454-4.187-.503-8.548-1.086-12.792-.063-.463-2.17-1.264-2.85-.93-8.167 4.02-12.294 11.57-16.282 19.182-4.88 9.314-9.86 18.583-14.36 28.078-.826 1.742.5 4.463.683 6.743.062.763-.418 1.553-.525 2.347-.234 1.74-.383 3.49-.576 5.234-.255 2.304-.518 4.607-.78 6.91-.11.977-.256 1.948-.332 2.927-.432 5.608-.932 11.214-1.24 16.83-.214 3.9-.405 7.84-.063 11.714.097 1.11 2.096 2.04 3.208 3.07.668.62 1.306 1.272 1.958 1.908-.793.287-1.734.396-2.343.902-.85.71-1.98 1.684-2.036 2.602-.09 1.534 1.188 3.286.806 4.64-1.117 3.95-2.81 7.735-4.175 11.62-.208.59-.048 1.445.23 2.043.78 1.684 1.737 3.28 2.576 4.937 1.21 2.393.806 3.224-1.523 3.418-.354.03-.992.526-.963.73.508 3.52.522 7.26 1.823 10.475 1.58 3.9 1.12 8.242-2.256 10.793-.553.418-1.117 1.3-1.086 1.94.32 6.845-5.01 9.3-9.544 12.25-5.51 3.583-21.102 1.088-25.208-3.95-.557-.684-.91-1.945-.7-2.77.99-3.892 2.54-7.66 3.277-11.59 1.35-7.193 2.175-14.482 3.39-21.702 1.5-8.893 3.246-17.742 4.754-26.634 1.913-11.27 3.657-22.567 5.543-33.842 1.8-10.757 3.772-21.485 5.492-32.254.61-3.82.49-7.757 1.07-11.585 1.106-7.306 2.243-14.624 3.85-21.828.65-2.91-.76-2.874-2.102-1.922-2.468 1.75-5.135 3.718-6.64 6.24-5.025 8.418-9.585 17.116-14.29 25.727-.568 1.04-.84 2.243-1.416 3.276-.702 1.262-1.583 2.424-2.386 3.63-1.975-1.47-4.107-2.787-5.812-4.522-.42-.428.25-2.45.93-3.355C21.324 99.162 29.48 87.822 38.462 77.18c2.016-2.388 7.01-3.1 10.62-3.07 3.708.032 4.71 3.7 5.335 7.143 1.244 6.844 2.806 13.63 4.26 20.436.098.46.392.88.595 1.317.362-.37.774-.706 1.078-1.12 5.808-7.91 10.945-16.45 17.626-23.534 4.637-4.917 11.243-8.11 17.316-11.442 1.458-.798 4.27 1.033 6.5 1.44 3.38.62 1.913 2.752 2.007 4.843.716 15.752 2.488 31.5 2.33 47.232-.09 8.942-2.847 17.94-5.053 26.752-1.762 7.038-5.594 14.1-3.144 21.212 2.655 7.71-.8 14.948-.178 22.48.24 2.904 1.61 2.503 2.41 3.64.21.298.37.63.55.948-.413-.01-.828-.055-1.24-.028-1.496.095-2.99.213-4.487.323 1.275 1.958-1.51 5.85 3.1 6.372.53.06 1.23 2.083 1.17 3.158-.14 2.553-.726 5.076-1.055 7.622-.187 1.438-.224 2.896-.328 4.344l.008-.04zm-23.56 25.914l-.65-.872c-.11.277-.352.584-.297.825.08.352.37.655.572.98l.376-.933z"/><path d="M199.32 171.127c-3.38-.37-6.555.123-8.613-1.167-2.237-1.403-3.475-4.438-5.065-6.816-.52-.778-.772-1.732-1.148-2.606-.624.677-1.412 1.264-1.834 2.05-.765 1.42-1.514 2.91-1.912 4.46-1.692 6.586-7.07 10.156-13.833 9.294-4.277-.545-8.62-.59-12.894-1.157-4.244-.563-6.502 2.25-8.43 4.998-1.953 2.778-3.894 4.1-7.474 4.037-8.51-.152-17.03.495-25.542.368-5.947-.087-10.907-4.492-11.268-10.548-.337-5.666.36-11.452 1.147-17.11.71-5.106 1.73-10.254 3.362-15.132 4.006-11.967 11.6-21.884 19.89-31.067 2.652-2.938 7.79-3.542 11.637-5.52 7.694-3.954 18.255 5.088 15.207 13.742-5.396 15.317-10.777 30.893-24.407 41.497-3.092 2.406-2.995 7.144.614 10.45 2.63 2.405 5.145 1.2 7.546-1.338 2.586-2.734 5.653-5.062 8.71-7.29 7.038-5.128 7.997-12.835 9.614-20.553 1.308-6.246 3.966-12.2 5.902-18.323a405.41 405.41 0 0 0 4.373-14.903c1.494-5.448 5.522-7.227 10.53-4.512 1.347.73 2.912 1.24 3.963 2.274 1.07 1.052 2.51 2.812 2.27 3.936-1.522 7.074-3.622 14.023-5.225 21.083-1.32 5.82-2.31 11.723-3.238 17.622-.208 1.326.458 2.79.723 4.192.964-.89 2.033-1.692 2.87-2.69 1.73-2.057 3.506-4.107 4.953-6.36 2.065-3.217 4.723-6.413 5.542-9.98 1.056-4.61 3.776-7.666 6.865-10.592 1.02-.97 2.98-.945 4.512-1.375.247 1.56 1.06 3.293.647 4.654-2.44 8.066-4.755 16.092-2.34 24.592.155.544.71.977 1.08 1.462.556-.61 1.31-1.13 1.638-1.847 3.028-6.623 6.126-13.218 8.924-19.938 3.54-8.5 6.837-17.1 10.178-25.682.425-1.09.31-2.397.758-3.474.55-1.315 1.144-2.987 2.233-3.625 2.05-1.198 4.316-3.38 6.813-.224 1.315 1.662 3.19 2.88 4.813 4.295 3.36 2.928 5.566.312 7.526-1.84 4.007-4.402 7.642-9.147 11.692-13.508 1.933-2.08 4.26-4.074 6.81-5.183 1.28-.557 4.023.457 5.088 1.66 1.337 1.51 1.368 3.655-1.757 4.197-.898.157-1.934 1.578-2.26 2.62-2.855 9.162-5.475 18.4-8.35 27.554-1.862 5.922-.55 10.99 4.317 15.19.407.352.936.75 1.06 1.218.817 3.132 1.643 6.267 2.274 9.438 2.106 10.58 3.33 21.243.875 31.897-.703 3.05-3.007 5.7-3.99 8.723-2.54 7.817-8.645 11.424-15.642 14.327-4.196 1.74-8.74 3.33-12.7 1.188-5.36-2.9-10.943-6.287-14.817-10.84-6.288-7.388-5.51-15.33 1.605-21.253 2.528-2.104 6.99-1.885 10.567-2.725.084.69.427 1.473.215 2.055-1.637 4.51-3.804 8.873-4.96 13.494-.944 3.775 1.126 7.504 4.868 8.017 2.365.323 5.915-1.618 7.562-3.653 4.762-5.882 5.54-13.052 6.056-20.55.547-7.98-3.063-14.695-4.49-22.03-.162-.835-1.36-1.632-2.254-2.133-4.02-2.252-5.456-4.976-3.397-9.676 2.504-5.715 4.23-11.774 6.238-17.703.212-.624.078-1.367.104-2.055-.627.152-1.245.342-1.878.452-8.248 1.44-7.548 9.128-9.915 14.517-5.587 12.716-10.836 25.578-16.173 38.4-.653 1.57-.842 3.34-1.568 4.863-.427.896-1.4 1.95-2.284 2.12-1.676.322-3.466.058-4.51.044zm-55.757-53.47c-.813-1.61-1.012-2.555-1.587-2.95-.39-.27-1.544.01-1.957.434-6.65 6.823-11.45 14.626-12.522 24.327-.045.402.044.82.07 1.23.395-.12.98-.11 1.154-.376 5.008-7.59 9.976-15.214 14.84-22.664zM332.853 139.562c2.27-9.578 4.342-18.135 6.306-26.715.695-3.038 1.77-6.212 1.432-9.18-.2-1.75-2.687-3.418-4.424-4.762-1.72-1.33-1.91-1.965.07-3.227 2.734-1.744 5.295-3.78 7.82-5.825.766-.62 1.42-1.616 1.694-2.564 2.335-8.042 4.763-16.065 6.77-24.19 1.318-5.336 1.847-10.863 3.01-16.244.498-2.3 1.924-6.405 2.558-6.335 3.475.383 6.842 1.783 10.212 2.93.23.077.33.98.242 1.454-1.112 5.97-1.382 12.296-3.646 17.8-2.7 6.563-1.544 13.328-2.974 19.857-.133.604-.068 1.25-.095 1.875.697-.083 1.395-.21 2.097-.243 7.74-.377 8.718-6.046 9.996-12.034 1.72-8.042 3.926-16.006 6.508-23.81.405-1.22 4.19-2.387 5.934-1.89 4.828 1.372 6.488 7.145 4.898 12.233-1.962 6.288-3.317 12.772-4.746 19.212-.228 1.028.395 3.2.855 3.267 2.74.4 7.086 1.514 8.065.23 4.36-5.71 10.408-7.678 16.743-9.02 7.838-1.658 15.794 7.963 12.57 15.47-3.314 7.71-7.338 15.16-11.59 22.406-1.55 2.64-4.697 4.32-7.044 6.514-4.19 3.914-.51 7.544.84 10.93 1.273 3.2 3.9 1.52 6.093.396 7.422-3.796 9.96-11.448 14.24-17.758 5.658-8.338 7.743-17.767 9.187-27.496.545-3.676 1.61-7.3 2.72-10.86 1.066-3.41 7.35-4.168 10.14-1.36 3.88 3.9 4.84 3.632 6.8-1.315 1.56-3.924 3.14-7.93 5.422-11.437 1.086-1.67 4.22-3.528 5.735-3.06 2.652.815 4.79 3.34 7.085 5.217.192.156.07.88-.095 1.26-1.74 4.01-3.546 7.993-5.245 12.02-.232.553.072 1.313.037 1.973-.116 2.177-.145 4.37-.443 6.525-.64 4.59-1.407 9.164-2.162 13.737-.41 2.482-.976 4.94-1.337 7.427-.434 2.99-.887 5.994-1.043 9.008-.326 6.243-.45 12.497-.678 18.745-.242 6.605-.574 13.208-.735 19.815-.085 3.52-.157 7.078.252 10.562.383 3.26 2.715 3.604 5.633 3.022 1.95-.39 4.048-.026 6.08 0-.43 1.805-.893 3.603-1.282 5.417-2.233 10.39-10.09 2.735-14.996 4.6-1.185.45-2.754-.227-4.136-.16-9.45.46-14.575-4.596-13.665-13.967.884-9.072 2.974-18.103 3.033-27.16.103-15.407 5.893-29.662 7.718-44.666.132-1.08.28-2.194.152-3.26-.102-.847-.612-1.643-.94-2.46-1.104.74-2.85 1.263-3.188 2.262-.864 2.558-.29 5.936-1.754 7.894-3.742 5.01-1.488 12.3-6.778 16.59-.435.354.276 2.044.343 3.12.038.64.098 1.516-.264 1.913-6.477 7.148-12.837 14.42-19.67 21.218-1.794 1.785-5.048 2.693-7.716 2.892-6.883.513-14.12 1.65-20.6.044-3.522-.872-5.45-1.805-7.864 1.006-.117.137-.445.226-.614.164-6.71-2.435-14.89-.714-20.33-5.91-1.914-1.83-1.615-6.772-1.15-10.13 1.1-7.962 2.915-15.822 4.398-23.732.15-.808.013-1.67.01-2.507-.936.176-1.906.245-2.8.543-7.228 2.404-6.397 9.107-7.415 14.58-1.313 7.072-2.275 14.248-2.717 21.42-.124 2.017 2.018 4.24 3.3 6.25.967 1.516 3.447 3.395 3.108 4.153-.93 2.09.13 6.53-4.448 5.55-6.832-1.458-13.682-2.93-20.334-5.005-.983-.303-.928-3.937-1.185-5.218zm47.332-27.925c.17.02.34.042.51.064-.18 1.067-.646 2.182-.485 3.194.618 3.896 1.414 7.767 2.223 11.63.072.342.71.563 1.086.84-.075-.412-.216-.825-.216-1.237-.003-11.59.783-23.033 6.022-33.703.29-.592-.03-2.11-.485-2.333-1.816-.882-6.527 2.242-6.77 4.367-.653 5.724-1.26 11.452-1.885 17.18zm37.84-23.162l-2.072-6.834c-1.266.86-3.133 1.438-3.692 2.628-2.5 5.336-4.743 10.804-6.8 16.33-.464 1.244.196 2.906.34 4.377.77-.808 1.537-1.623 2.32-2.42.836-.85 1.86-1.57 2.51-2.543 2.528-3.806 4.942-7.69 7.394-11.537zm-34.07 43.128c.356.224.637.534.834.487.202-.048.464-.453.44-.678-.02-.197-.41-.515-.607-.495-.21.02-.388.377-.668.686z"/><path d="M322.987 81.32c1.932-.062 3.863-.127 5.796-.188 3.46-.11 7.928 5.642 6.726 9.003-2 5.59-3.822 11.324-6.578 16.543-3.84 7.274-8.667 14.02-12.616 21.243-.937 1.712-.487 4.535.104 6.626.537 1.9 1.765 4.173 3.362 5.054 1.825 1.006 4.404.902 6.642.84 4.41-.124 3.932 3.598 3.89 5.753-.025 1.33-2.707 3.47-4.43 3.736-4.622.714-9.37.614-14.067.846-.655.032-1.313.2-1.96.15-2.43-.18-5.898-1.535-7.08-.428-3.186 2.99-5.235 7.157-8.067 10.58-1.427 1.727-3.388 3.345-5.443 4.133-2.767 1.062-6 2.127-8.776 1.662-5.145-.862-11.087.974-15.275-3.533-1.016-1.092-1.643-3.035-1.587-4.556.372-10.062.774-20.13 1.58-30.165.543-6.747 1.826-13.43 2.664-20.157.646-5.198.844-10.464 1.713-15.62 2.088-12.376 4.305-24.734 6.77-37.04 1.23-6.143 3.027-12.18 4.76-18.21.462-1.606 1.58-3.038 2.475-4.502 3.807-6.234 7.062-12.936 11.7-18.48 2.527-3.02 7.557-5.784 11.204-5.49 3.4.272 6.482 4.723 9.644 7.407.3.254.292 1.04.213 1.543-1.357 8.77-2.043 17.72-4.305 26.25-3.198 12.07-7.613 23.815-11.42 35.727-2.547 7.968-4.264 16.277-7.565 23.91-4.7 10.86-4.716 22.085-4.754 33.45-.004.826-.652 1.66-.62 2.474.112 2.6.406 5.19.628 7.782 2.198-1.38 4.518-2.603 6.562-4.18 2.8-2.158 1.088-4.28.434-7.068-1.11-4.73-.9-10.078.05-14.913 1.912-9.74 5.496-19.084 11.453-27.08 3.573-4.797 8.366-8.702 12.753-12.858.74-.7 2.197-.643 3.323-.936.03.233.064.464.097.694zm6.88 13.362l-.707-2.916c-.743.54-1.663.94-2.198 1.638-5.505 7.15-10.54 14.554-11.725 23.827-.166 1.295-.08 2.62-.11 3.932.91-.896 2.096-1.642 2.676-2.715 2.268-4.197 4.34-8.5 6.492-12.76 1.82-3.61 3.652-7.215 5.572-11.005zm-34.39-30.97l.19.05-.433 2.414c.64-.687 1.372-1.31 1.88-2.083.33-.5.335-1.217.477-1.84 1.607-6.994 3.223-13.987 4.8-20.99.153-.686.064-1.427.087-2.143-.408.63-1.014 1.21-1.192 1.902-1.975 7.554-3.884 15.124-5.81 22.69zm10.42.024c-.148-.148-.252-.285-.386-.367-.06-.038-.267.028-.27.06-.014.156.02.317.034.476l.624-.17zM97.875 217.25l1.802.236-.263.693c-.51-.317-1.018-.633-1.53-.96 0-.01-.01.03-.01.03zM103.68 254.026c-.09.083-.164.15-.238.22-.104-.136-.222-.267-.303-.414-.014-.023.13-.135.203-.206l.337.4z"/></g></svg>