<svg version="1.1" id="Layer_1" xmlns="http://www.w3.org/2000/svg" x="0" y="0" width="238" height="64" viewBox="0 0 238 64" xml:space="preserve"><path fill="none" d="M32.648 26.216c.262-.422.548-.827.78-1.268.23-.43.315-.907.524-1.338.282-.58.28-1.19.225-1.805-.024-.268-.135-.525-.195-.79-.066-.298-.316-.473-.58-.608-.026-.14-.138-.064-.21-.086l.004.005c-.342-.172-.718-.2-1.088-.254-.152.067-.34.052-.453.206-.112.006-.21.037-.264.148l.004-.002-.005.004c-.183.046-.35.13-.498.246a7.177 7.177 0 0 1-.91.553c-.572.29-1.04.72-1.552 1.084-.613.438-1.145.987-1.688 1.517-.82.8-1.49 1.713-2.137 2.65a8.026 8.026 0 0 0-.5.863c-.265.516-.51 1.042-.705 1.588-.134.373-.146.753.01 1.127l-.15.186c-.283.067-.475.225-.525.526-.01.057-.052.115.005.16.057.047.13.042.186 0 .205-.154.45-.205.688-.28a.69.69 0 0 0 .342-.04c.33-.125.686-.128 1.027-.19.524-.096 1.044-.22 1.565-.323.493-.098.95-.355 1.44-.492.65-.183 1.22-.536 1.81-.85.304-.16.604-.343.887-.542.772-.545 1.46-1.182 1.963-1.992zM113.673 25.51c.304 0 .597.226.812-.12-.21-.052-.21-.052-.812.12zM61.258 23.98c.13-.218.304-.394.483-.565.466-.445.82-.98 1.198-1.494.228-.31.546-.56.656-.958.04-.14.1-.275.184-.405.39-.604.676-1.25.686-2.086.055-.246-.117-.55-.177-.875-.02-.113-.102-.188-.21-.23a.967.967 0 0 0-.814.086c-.593.34-1.08.812-1.29 1.483-.27.85-.496 1.714-.738 2.572-.146.518-.183 1.062-.366 1.57-.11.306-.116.586.04.873.09.166.25.198.348.033zM94.418 28.884l-.002-.006c-.032-.116-.128-.17-.22-.23-.19-.362-.813-.452-1.22-.053-.592.76-.93 1.63-.98 2.583-.038.69-.193 1.377-.103 2.072.068.516.102 1.047.42 1.486.196.27.503.39.825.37.52-.036.863-.437 1.163-.78.198-.23.3-.594.398-.913.22-.7.206-1.432.244-2.155.015-.473.013-.953-.114-1.404-.09-.333-.146-.7-.41-.97zM63.03 31.6c.083-.163.223-.333.178-.548.046-.19-.01-.375-.058-.555-.12-.443-.376-.562-.785-.375-.136.062-.29.102-.405.19-.402.31-.856.54-1.065 1.08-.15.382-.424.722-.563 1.124-.18.516.058.875.595.906.287.016.5-.135.75-.238.433-.182.64-.545.92-.854.224-.195.305-.48.433-.73zM92.813 43.212c-.503.104-.863.455-1.22.774-.52.467-1.032.94-1.566 1.39-.414.35-.83.704-1.148 1.144-.452.62-.84 1.273-.94 2.058-.046.35-.09.702.004 1.042.058.21.072.464.237.617.342.315.685.67 1.23.49.178.016.354.04.396-.21.01-.056.08-.103.13-.145.144-.126.295-.244.405-.4.468-.427.683-1.012.98-1.545.176-.315.373-.622.476-.98.202-.7.415-1.397.68-2.08.25-.646.337-1.344.573-1.995.082-.227-.116-.184-.237-.16zM109.934 33.693c.12.104.15.343.354.275.092-.03.158-.238.11-.307-.144-.202-.293.104-.464.033zM109.32 33.218c.185.537.185.537.474.386-.142-.133-.246-.306-.474-.386zM108.183 28.55c.087.184.046.35.08.566.13-.107.25-.178.213-.323-.03-.118-.116-.21-.293-.243zM141.675 28.755v-1.307c-.172.258-.26.55-.565.688-.064.03.015.118.045.174.115.207.353.257.52.445zM195.827 23.244c-.224.02-.278.083-.257.284.057.494.058.99.062 1.486.007.742-.194 1.475-.13 2.214.098 1.106-.13 2.196-.118 3.3.01 1.16-.083 2.324-.186 3.48-.066.758.03 1.516-.09 2.192.024.218.04.358.06.5.014.116.05.167.193.13.192-.05.272-.14.27-.334a1.853 1.853 0 0 1 .034-.454c.213-.878.118-1.788.333-2.675.172-.71.163-1.468.21-2.205.08-1.335.19-2.67.195-4.006a36.2 36.2 0 0 1 .144-3.127c.06-.665-.173-.833-.72-.786zM197.01 25.894c-.146-.01-.098.126-.103.202-.026.35-.04.703.055 1.058.054-.35.106-.696.158-1.045.014-.097.002-.21-.11-.216zM204.21 34.975c-.203.047-.478.06-.59-.235-.21-.55-.422-1.1-.638-1.646a.543.543 0 0 0-.108-.176c-.04-.042-.103-.073-.166-.043-.073.034-.062.102-.038.156.13.313-.053.415-.31.426-.242.01-.24.094-.152.278.29.61.703 1.16.915 1.812.036.11.115.19.227.13.23-.13.45-.053.678 0 .37.088.455.018.434-.447 0 .052.002.02 0-.01-.007-.16.034-.315-.252-.245zM194.71 37.503c.14.246.634.272.888.065-.293-.048-.575-.106-.887-.065zM187.466 31.573zM195.08 23.192c-.114-.036-.133.044-.135.137-.014.574-.03 1.15-.043 1.725-.006.25-.002.5-.002.75.152-.815.235-1.644.392-2.46.028-.152-.13-.127-.213-.153zM186.857 28.892a1.03 1.03 0 0 0-.182-.55.06.06 0 0 0-.012-.054c.014-.053-.018-.086-.053-.117l-.002-.008a1.996 1.996 0 0 0-.18-.552c-.007-.037-.012-.074-.017-.11a.263.263 0 0 0-.046-.193c-.005-.038-.007-.077-.01-.116.014-.084.007-.165-.052-.233a2.98 2.98 0 0 1-.018-.127 1.155 1.155 0 0 0-.166-.483l-.016-.07c-.014-.022-.025-.044-.04-.067-.01-.04-.02-.078-.032-.117l-.03-.058-.017-.062c-.016-.035-.032-.072-.05-.107l-.003-.014-.117-.357-.006-.068a.422.422 0 0 0-.056-.298c0-.023-.003-.047-.005-.068a.7.7 0 0 0-.11-.432c-.203-.575-.43-1.145-.433-1.77 0-.083-.12-.242-.138-.236-.3.106-.535-.168-.834-.123-.308.048-.412.152-.316.447.102.308.27.593.316.917.102.705.384 1.36.562 2.045-.01.063.005.12.057.165l.003.016a.5.5 0 0 0 .108.314c.01.037.018.073.025.11.087.455.285.86.53 1.248-.01-.32-.03-.63-.018-.94a.06.06 0 0 0 .015-.05c.04-.01.084-.02.127-.032l.003.016.016.004c0 .023.013.034.036.03l.062.093c.02.075.045.144.113.187v.002c.047.186.08.377.187.543v.004c.02.194.028.393.185.542v.004c-.007.055-.01.107.058.13-.004.022.002.038.02.05.22.974.64 1.882.94 2.83.046.14.13.267.196.4-.107-.914-.29-1.81-.605-2.676l.007-.008zM187.468 31.576l.01.005-.01-.006zM188.264 38.202c.264.14.352.146.625.012-.24-.082-.413-.053-.626-.012zM204.676 26.856c-.01-.537-.06-1.068-.21-1.592-.125-.436-.26-.883-.243-1.342.036-1.012-.1-2-.328-2.98-.023-.098.002-.254-.152-.26a5.466 5.466 0 0 0-.665.02c-.042.004-.017.068-.013.105.052.402.108.803.147 1.207.063.65.39 1.238.45 1.887.13 1.402.516 2.767.578 4.177a.61.61 0 0 0 .387.56c.075-.065.062-.152.057-.23-.043-.517.004-1.034-.008-1.55zM215.873 27.556c0-.053-.02-.147-.102-.107-.17.083-.368-.01-.526.106l-1.148-.007c-.435-.142-.51-.088-.437.312l.01.172c-.003.04-.01.08-.01.12-.01.458.016.48.453.383.395-.086.79-.163 1.19-.204.294-.03.368.126.355.354-.033.52-.06 1.042.018 1.562.028.19.053.38.04.574-.06.866-.37 1.647-.786 2.395-.02.017-.04.03-.06.048-.022.022-.04.047-.062.07v-.002c-.164.053-.246.2-.365.307a.074.074 0 0 0-.053.016c-.053-.013-.1-.007-.125.048-.63.13-1.227.033-1.817-.22-.26-.11-.48-.284-.737-.39-.033.084.032.146.05.22.063.277.055.538-.232.702-.142-.006-.283-.015-.426-.02h-.01l.016.003c.043.312.276.52.434.767l.018.017c.28.278.344.274.496-.044.043-.09.115-.068.178-.08.293-.06.586-.115.88-.172.036-.003.075-.005.112-.01.73 0 1.377-.175 1.822-.812a.778.778 0 0 1 .176-.167c.318-.242.53-.585.6-.95.125-.664.234-1.333.217-2.018-.02-.693.01-1.387-.06-2.082-.032-.3-.1-.594-.107-.894zM225.516 34.23c-.31.024-.627.02-.935.273.363-.065.66-.137.936-.274zM222.632 18.98c-.22 0-.438-.003-.657.002-.217.005-.305.136-.223.336.047.116.06.23.07.354.03.352.012.722.117 1.05.152.477.13.95.128 1.433 0 .1-.032.214.072.302.16-.25.153-.56.397-.754.112-.09.022-1.48-.07-1.6-.352-.442-.44-.784.165-1.122z"/><path fill="none" d="M211.676 33.077l.028.01-.01-.017c-.003-.002-.01.005-.018.007zM214.09 28.772c-.168.008-.168.13-.193.284.15-.046.306-.048.338-.204.008-.045-.076-.08-.144-.08zM210.96 21.294c.082.037.15-.047.21-.098.342-.295.727-.512 1.147-.674.824-.315 1.803-.082 2.096.746.113.322.268.314.518.217.76-.293.714-.24.37-.928l-.002-.01c.01-.052-.02-.084-.06-.11-.08-.15-.102-.396-.313-.384-.225.014-.43-.048-.646-.057-.015-.036-.038-.055-.078-.045a.107.107 0 0 0-.052-.013c-.012-.03-.03-.053-.07-.043a.115.115 0 0 0-.06-.016l-.06-.044a.055.055 0 0 0-.047-.02c-.02-.07-.093-.063-.142-.093a.053.053 0 0 0-.046-.027c-.1-.124-.233-.127-.375-.108l-.172-.016c-.29-.095-.58-.09-.87 0l-.173.016c-.07-.014-.145-.024-.198.044-.017-.006-.03-.002-.04.012-.435.098-.712.4-.97.732-.037.05-.078.102-.05.164.078.168.03.34.02.51 0 .09-.038.2.064.246zM210.65 30.71c.016-.223 0-.42-.107-.606-.068.213.012.4.107.606z"/><circle fill="none" cx="211.708" cy="33.092" r=".006"/><path fill="none" d="M155.67 21.404c.025.308.257.406.428.647.013-.375-.202-.487-.428-.646zM149.633 35.5v-1.11c-.147.376-.12.75 0 1.11zM155.667 25.43a.123.123 0 0 0-.147.076c-.03.073.008.138.054.194.054.066.114.066.187.025.238-.134.482-.256.716-.396.325-.198.688-.332.98-.6-.2-.044-.348.104-.523.153-.297.08-.604.173-.85.367-.132.104-.23.216-.416.18zM157.137 37.805c-.037.184-.074.364-.11.55a.635.635 0 0 0 .11-.55zM151.497 24.03c.032-.023.065-.047.1-.07.162.037.285-.08.43-.11.58-.122 1.145-.347 1.76-.22.177.035.303.192.513.184-.148-.27-.4-.434-.645-.423-.422.02-.86-.176-1.272.082a.203.203 0 0 1-.284-.102c-.048-.118.066-.174.154-.228.272-.17.556-.27.89-.224.275.04.556-.07.838.035.56.207.98.566 1.31 1.055.144.213.33.08.49.04.188-.048.077-.18.062-.294-.068-.46-.305-.852-.5-1.258-.19-.388-.51-.68-.785-.998-.177-.205-.772-.242-1.142.082a.054.054 0 0 0-.044.014c-.056-.012-.104 0-.133.053a4.382 4.382 0 0 1-.113.01c-.266 0-.477.133-.677.288-.237.044-.373.237-.55.37-.037.023-.073.05-.11.073-.024.016-.05.03-.073.047a.092.092 0 0 0-.05.012c-.115-.056-.22-.03-.308.05-.31.285-.66.525-.904.873-.41.584-.79 1.18-1.004 1.88-.177.582-.425 1.15-.603 1.725a11.85 11.85 0 0 0-.49 2.517c-.11 0-.09.113-.136.165-.216.233-.21.267.088.345.02.262.045.523.066.785.007.076-.013.178.13.13.097-.034.52-.51.503-.61-.095-.568.07-1.12.1-1.682.034-.587.157-1.158.452-1.68.04-.07.084-.188.157-.158.305.12.264-.148.336-.283.073-.14.115-.296.174-.442.164-.42.5-.747.613-1.19a.03.03 0 0 0 .022-.027c.224-.262.315-.627.632-.815zM141.055 31.278c-.223.21-.348.44-.076.71.083.086.065.216.096.306.444-.695.596-1.49.692-2.304-.11.182-.343.302-.346.524-.003.326-.145.555-.367.764zM178.25 38.704c-.14.19-.116.442-.24.644-.023.034.022.068.067.07.054 0 .092-.022.114-.075.08-.192.08-.413.208-.59.013-.047-.006-.08-.047-.094-.043-.017-.075.01-.1.044zM173.232 33.76c-.053-.48-.176-.958-.15-1.448.07-1.396-.066-2.795.01-4.192.01-.18-.025-.363-.03-.546-.022-.627-.253-1.235-.16-1.795.02-.353-.013-.624-.022-.897-.02-.78-.336-1.52-.315-2.305a.494.494 0 0 0-.103-.28c-.095-.145-.24-.105-.358-.085-.158.027-.064.162-.053.248.048.323.08.646.08.97 0 .212-.1.416-.032.633.127.415.088.82-.09 1.215a.667.667 0 0 0-.027.532c.116.29.083.575-.014.86-.098.29-.116.568.048.848.103.176.125.374-.01.545-.17.212-.158.426-.055.654.155.346.173.71.088 1.072-.05.213-.046.42-.022.632.086.775.115 1.554.096 2.333-.014.528.14 1.037.107 1.577-.024.424.147.863.103 1.316-.075.748.074 1.492.074 2.242 0 .812.084.89.7.95l.03.005c.145.028.212-.02.24-.18a7.42 7.42 0 0 0 .05-2.21c-.112-.898-.084-1.8-.185-2.694zM164.455 26.457c-.01-.083.042-.214-.083-.23-.22-.025-.312-.195-.495-.32.02.354.037.707.057 1.06.053 1.024.114 2.06-.002 3.07-.175 1.505-.117 3.013-.217 4.518-.003.05-.01.106.008.15.246.586.004 1.208.14 1.803.044.188-.058.335-.232.367-.228.043-.238.14-.177.333.067.21.024.42-.252.39-.338-.035-.367.11-.317.385.026.146.005.305-.022.453-.042.237-.105.472-.16.707-.022.086-.087.19-.013.258.072.066.168-.022.254-.036.1-.016.198-.04.298-.05.334-.028.666-.06 1-.075.166-.01.217-.128.283-.238.09-.144-.06-.17-.12-.23-.12-.118-.135-.262-.13-.417.025-.705.063-1.412.068-2.12.013-1.275.27-2.54.25-3.816-.02-1.27.29-2.534-.022-3.806-.175-.706-.034-1.44-.11-2.157zM163.197 23.354c.02.057-.012.206.105.15.092-.04.256.066.282-.168.047-.426.074-.425.507-.368.09.012.177.038.277.06.052-.51.046-.52-.423-.53a4.337 4.337 0 0 0-.395.005c-.468.035-.475.043-.423.495.02.12.035.24.07.356z"/><path fill="#FFF" d="M217.188 26.472c.1-.3-.012-.464-.32-.508a.616.616 0 0 0-.242 0c-.814.207-1.673.123-2.48.38a.788.788 0 0 1-.445-.01c-.662-.175-.876.01-.817.683.037.434.073.867.103 1.303.013.183.03.367-.03.55-.058.16-.06.297.135.4.115.06.114.222.098.353-.026.2.045.27.254.26a5.81 5.81 0 0 0 1.225-.166c.11-.03.22-.047.205.113-.068.72.058 1.468-.312 2.142-.125.23-.256.462-.412.67-.36.48-.865.54-1.38.187-.468-.325-.765-.767-.932-1.31-.454-1.477-.755-2.977-.803-4.53-.023-.777-.175-1.554-.093-2.335.065-.637-.012-1.28.104-1.91.08-.426.26-.79.538-1.154.345-.455.787-.446 1.23-.51.3-.042.513.146.646.413.235.474.492.938.623 1.46.01.032.052.06.078.09l.02-.005.023.008c.257-.166.578-.107.844-.244a.412.412 0 0 1 .26-.104l.164-.02c.06-.045.13-.044.2-.04a2.58 2.58 0 0 1 .65-.13c.228-.01.362-.1.318-.362-.1-.606-.22-1.205-.51-1.754-.15-.293-.25-.61-.444-.884-.608-.86-1.438-1.327-2.483-1.403-.705-.05-1.424-.023-2.008.41-.438.322-.774.77-1.15 1.17-.393.412-.64.918-1 1.347-.28.335-.366.794-.41 1.224-.053.508-.258.97-.376 1.453-.138.56-.286 1.123-.312 1.695-.084 2.005.1 4 .55 5.948.276 1.195.655 2.38 1.352 3.424.21.312.46.59.806.76.638.316 1.306.48 2.02.568.862.104 1.59-.223 2.232-.65.84-.563 1.406-1.393 1.906-2.3.64-1.162.592-2.407.656-3.633.044-.835-.016-1.7-.307-2.516-.062-.18-.03-.355.028-.534zm-6.645 3.632c.107.186.123.384.107.606-.095-.205-.175-.393-.107-.606zm.335-9.564c-.028-.062.013-.115.052-.164.256-.332.533-.635.967-.732.012-.014.024-.018.04-.012.056-.068.128-.058.2-.044l.172-.015c.29-.09.58-.096.87-.002.057.007.113.012.17.017.142-.02.275-.016.375.108.02 0 .036.01.047.028.05.03.12.022.142.092.02 0 .034.006.046.02.02.016.043.03.062.045.02 0 .04.005.06.016.038-.01.058.012.07.043.018 0 .034.004.05.013.04-.01.064.01.078.045.216.01.422.07.646.057.212-.013.23.234.312.385.04.025.068.058.06.11l.004.01c.343.686.388.634-.37.927-.25.098-.402.105-.518-.217-.293-.828-1.27-1.062-2.096-.746-.42.162-.805.38-1.146.674-.06.05-.13.135-.21.098-.102-.045-.064-.155-.062-.244.007-.172.056-.344-.022-.512zm3.018 8.517c.025-.153.025-.276.194-.284.068-.002.152.034.144.08-.033.156-.186.158-.338.204zm1.924 3.49c-.07.366-.28.71-.6.952a.847.847 0 0 0-.176.166c-.445.64-1.094.812-1.822.814-.037.002-.076.006-.113.01-.294.056-.587.11-.88.17-.062.013-.136-.01-.178.08-.152.318-.215.322-.496.045l-.018-.018c-.156-.248-.39-.453-.434-.766h-.013l.01-.002.426.02c.287-.164.297-.424.23-.703-.016-.07-.08-.135-.047-.22h-.004c0-.003-.003-.005-.004-.008l-.028-.01c.008-.003.016-.01.018-.007.006.005.01.01.012.017l.007.003c0 .002.002.004 0 .006.26.105.48.28.738.39.592.254 1.188.35 1.818.22.025-.055.07-.06.123-.048a.074.074 0 0 1 .054-.015c.12-.105.2-.256.365-.308.02-.022.038-.046.06-.067.02-.018.04-.033.06-.05.416-.747.728-1.528.786-2.395a2.634 2.634 0 0 0-.04-.575c-.077-.52-.05-1.04-.018-1.562.015-.23-.062-.384-.354-.354-.4.04-.798.118-1.192.204-.438.096-.463.075-.453-.382 0-.04.007-.08.01-.12l-.01-.173c-.073-.4 0-.453.435-.312l1.15.007c.158-.115.357-.023.525-.107.084-.04.102.055.103.107.006.3.075.596.104.893.067.695.04 1.39.06 2.082.02.685-.092 1.354-.217 2.017zM175.135 38.292a1.146 1.146 0 0 0-.02-.48 2.87 2.87 0 0 1-.073-1.2c.104-.648-.16-1.283-.097-1.937.033-.358-.055-.707-.164-1.045a1.764 1.764 0 0 1-.087-.565c0-.437.01-.872-.014-1.307-.032-.616.07-1.24-.09-1.847a2.468 2.468 0 0 1-.067-1.023c.05-.317.03-.63-.035-.937-.086-.408-.098-.823-.152-1.234-.11-.834-.158-1.67-.213-2.508-.05-.768-.143-1.53-.215-2.297-.012-.114-.034-.215-.146-.28-.255-.148-.508-.28-.816-.3-.522-.028-1.045-.07-1.564-.136-.474-.06-.47-.078-.538.39.128.116.15.242.128.42-.063.51-.09 1.022-.13 1.533v.663c.022.145.058.29 0 .434v.115l-.007.247c0 .06 0 .12-.003.18.05.627-.072 1.256-.03 1.88.053.73-.187 1.444-.083 2.176.02.157-.083.23-.248.222-.27-.012-.546-.026-.818-.016-.85.034-1.698.083-2.55.122-.116.005-.236.035-.34-.07-.168-.17-.347-.244-.548-.033-.086.09-.207.007-.312.017.27-.09.41-.354.354-.7-.035-.22-.122-.435-.13-.653-.026-.77-.173-1.527-.272-2.288-.062-.45-.027-.913-.146-1.353-.068-.26-.11-.52-.084-.78.03-.3.042-.582-.14-.844-.07-.105-.022-.217.003-.325.145-.632 0-.878-.642-.888-.938-.016-1.88.037-2.818.06-.1.004-.207.026-.188.142.02.116-.177.283.068.35.098.027.09.088.073.165-.1.484-.045.975-.054 1.463-.014.717-.066 1.434-.103 2.15-.003.037-.005.074-.01.11-.02.978.07 1.957-.06 2.933l.008.116c.057.09.07.197.057.294-.09.584.015 1.17-.02 1.753a5.4 5.4 0 0 0-.01.636c.022.352-.01.706 0 1.052.018.733-.122 1.462-.02 2.2.054.393-.08.812-.032 1.207.14 1.094-.104 2.192.07 3.284.025.158.108.308.082.475l.04.065.015.02.06.04c.406 0 .815.038 1.216-.01.493-.06.99-.003 1.48-.093.186-.033.375-.033.51-.215.143-.19.025-.355-.027-.56.102.02.17.022.236.04.348.086.568-.063.575-.43.012-.575.047-1.156-.02-1.726-.132-1.156.038-2.307.02-3.46-.013-.685.05-1.374-.132-2.048-.05-.186-.022-.242.2-.23.907.05 1.813.138 2.726.137.537-.002 1.07.01 1.606-.04.1-.01.254-.03.252.137-.006.374.14.74.043 1.12-.034.133-.038.286-.013.42.107.557.057 1.122.082 1.68.02.418-.014.846.036 1.268.037.304.043.607.02.91-.068.854-.137 1.71.01 2.562.04.224-.023.494.29.582.02.005.057.044.053.06-.063.314.16.228.314.226.213 0 .427-.01.64-.02.59-.036 1.185-.032 1.762-.182.114-.02.285-.004.332-.07.196-.284.46-.173.71-.17.228-.06.243-.24.236-.43-.018-.444-.103-.888-.03-1.332zm-11.582-15.79c.13-.008.264-.006.395-.003.47.01.475.018.423.528-.1-.02-.187-.048-.275-.06-.433-.057-.46-.058-.507.368-.026.234-.19.127-.282.17-.117.054-.088-.096-.105-.152a1.943 1.943 0 0 1-.065-.356c-.056-.452-.05-.46.418-.495zm1.034 9.913c.02 1.276-.24 2.54-.25 3.817-.008.707-.044 1.414-.07 2.12-.005.154.01.298.13.417.062.06.21.085.123.228-.067.11-.117.23-.285.237-.332.015-.666.047-.998.076-.1.01-.198.033-.297.05-.088.014-.183.104-.254.037-.074-.066-.012-.172.01-.258.057-.236.12-.47.164-.708.025-.148.05-.31.02-.453-.05-.274-.02-.42.32-.386.276.03.317-.18.25-.39-.06-.192-.05-.29.18-.333.175-.03.274-.18.23-.366-.136-.595.107-1.217-.138-1.803-.02-.043-.012-.1-.01-.15.1-1.504.043-3.012.22-4.517.114-1.01.054-2.046 0-3.07-.02-.353-.038-.706-.057-1.06.183.125.274.295.495.32.125.016.074.147.083.23.077.716-.065 1.45.106 2.153.315 1.276.008 2.54.027 3.81zm8.78 6.25c-.028.162-.096.21-.24.18-.012 0-.022-.002-.03-.003-.616-.062-.7-.14-.7-.95 0-.75-.15-1.495-.074-2.243.046-.454-.127-.895-.104-1.317.03-.54-.122-1.05-.108-1.577.02-.78-.01-1.558-.096-2.333-.022-.21-.026-.42.022-.633.085-.36.067-.727-.09-1.072-.103-.23-.113-.442.055-.654.136-.17.112-.37.01-.545-.163-.28-.145-.56-.047-.85.097-.284.13-.568.015-.86a.675.675 0 0 1 .03-.53c.176-.396.215-.8.088-1.216-.065-.217.032-.42.032-.632a6.87 6.87 0 0 0-.08-.97c-.012-.086-.104-.22.054-.248.117-.02.265-.06.358.084a.504.504 0 0 1 .103.28c-.02.786.297 1.524.315 2.306.01.273.04.545.02.896-.09.56.142 1.168.16 1.795.007.183.042.365.03.546-.074 1.398.063 2.797-.01 4.193-.023.49.1.967.152 1.45.1.895.07 1.795.185 2.694.09.716.08 1.475-.05 2.208zM206.32 33.05a1.476 1.476 0 0 0-.006-.604 11.466 11.466 0 0 1-.338-2.396c-.004-.227.123-.433.062-.658a7.905 7.905 0 0 1-.26-1.71c-.02-.56-.295-1.124.016-1.685.035-.064-.01-.177-.023-.266-.02-.13-.064-.256-.075-.386-.068-.9-.196-1.794-.317-2.688-.142-1.035-.276-2.07-.416-3.105-.017-.124.002-.304-.187-.29-.352.027-.71.053-1.045.146-.362.102-.733.17-1.1.183-.333.01-.324.178-.27.375.142.52.097 1.047.085 1.57-.008.396-.103.79-.038 1.185.22 1.36.27 2.74.49 4.103.13.79.19 1.59.278 2.385.06.424.115.848.174 1.27 0 .027.003.053.005.078.158 1.043.314 2.085.474 3.126l-.075.018c-.223-.51-.495-.995-.68-1.52l-.01-.018-.025-.01.01-.02c-.138-.276-.432-.442-.55-.71-.25-.56-.61-1.05-.897-1.58-.636-1.186-1.205-2.408-1.77-3.63-.472-1.01-.874-2.05-1.407-3.032-.256-.47-.48-.964-.67-1.464-.172-.446-.23-.507-.69-.397-.077.018-.155.04-.234.06-.755.19-1.497.448-2.3.28-.207-.043-.355.064-.29.324.03.116.063.25.036.36-.154.604-.165 1.227-.2 1.842-.03.545-.134 1.084-.117 1.635.022.78.016 1.56-.003 2.34-.015.588-.077 1.174-.097 1.762-.022.7.003 1.4-.034 2.1-.062 1.185-.025 2.37-.062 3.556-.023.807.008 1.623.203 2.42.043.178.114.267.264.267.678-.003 1.348.168 2.028.024.213-.046.258-.137.234-.3-.07-.476-.035-.947-.014-1.42.035-.82.002-1.657.154-2.456.39-2.014.47-4.066.836-6.08.04-.22.038-.457.196-.66.247.26.417.54.52.862.09.27.17.543.313.79.423.72.832 1.444 1.175 2.21.335.746.81 1.438 1.086 2.2.408 1.124 1.062 2.113 1.556 3.19.074.162.207.222.385.283.313.11.616.008.922.046.77.097 1.532.036 2.29-.097.28-.05.625-.44.615-.695-.016-.455-.023-.91-.11-1.358-.11-.582-.188-1.168-.097-1.758zm-11.418-7.995c.012-.575.03-1.15.043-1.726.002-.094.02-.174.134-.138.083.025.24 0 .212.152-.155.816-.237 1.646-.392 2.46 0-.248-.004-.498.002-.75zm-.19 12.448c.31-.04.593.017.886.065-.254.207-.748.18-.887-.065zm1.69-10.346c-.004 1.335-.115 2.67-.196 4.006-.046.737-.037 1.494-.21 2.205-.214.887-.12 1.797-.332 2.675a1.857 1.857 0 0 0-.033.454c.004.192-.075.285-.27.334-.145.038-.18-.012-.193-.13-.02-.142-.033-.28-.06-.5.12-.677.023-1.435.09-2.19.104-1.158.197-2.32.187-3.48-.01-1.105.216-2.194.118-3.3-.064-.74.137-1.473.13-2.215-.004-.496-.005-.992-.062-1.486-.02-.202.033-.267.257-.285.546-.047.778.12.72.786a35.763 35.763 0 0 0-.145 3.127zm.56-.004c-.096-.354-.08-.707-.055-1.058.005-.076-.043-.213.102-.202.112.008.124.12.11.215-.052.35-.104.697-.158 1.045zm7.498 8.076c.022.464-.062.534-.433.447-.228-.054-.446-.13-.68-.002-.11.062-.188-.018-.226-.13-.21-.648-.624-1.197-.914-1.81-.088-.187-.09-.27.15-.28.26-.01.44-.11.312-.424-.022-.056-.035-.12.038-.155.064-.03.125 0 .166.043.047.05.085.112.11.176.214.547.427 1.096.636 1.646.11.295.387.282.59.235.286-.068.245.086.25.245.004.03.002.06.002.01zm.167-6.592a.61.61 0 0 1-.387-.56c-.062-1.41-.448-2.775-.58-4.177-.06-.647-.385-1.235-.448-1.886-.04-.404-.097-.805-.147-1.207-.004-.037-.03-.102.013-.104.222-.017.442-.03.665-.02.154.005.13.16.152.26.23.98.364 1.968.328 2.98-.017.458.118.905.243 1.34.15.524.2 1.056.21 1.593.012.517-.035 1.033.008 1.55.005.078.018.165-.057.232zM152.307 24.894c.623-.656 1.274-.49 1.82.1.37.4.44.97.86 1.353.194.18.295.193.5.106.354-.152.638-.418.973-.604.48-.27 1.005-.455 1.458-.776.096-.067.19-.11.155-.254-.144-.582-.205-1.184-.5-1.725-.187-.34-.425-.664-.453-1.075-.003-.042-.048-.1-.088-.12-.35-.17-.52-.525-.8-.77-.476-.42-1.02-.76-1.633-.876-.855-.16-1.65.146-2.415.51-.985.473-1.545 1.41-2.29 2.145-.173.17-.36.412-.38.634-.02.252-.11.44-.23.625-.48.73-.674 1.576-.948 2.384-.217.637-.323 1.312-.442 1.978-.115.635-.252 1.265-.277 1.918-.023.595-.073 1.19-.11 1.786-.034.594-.013 1.186-.024 1.778-.01.47.045.948.078 1.424.056.826.115 1.657.396 2.443.162.454.42.873.58 1.326.253.72.744 1.27 1.333 1.676a6.486 6.486 0 0 0 2.084.974c1 .256 1.936.19 2.86-.232.027-.143.025-.254-.175-.248-.105.002-.212-.043-.316-.068-.226.168-.524.017-.763.153.484-.236.974-.464 1.452-.713.478-.248.7-.832 1.27-.97-.33.44-.687.845-1.16 1.14.022.182-.06.428.266.41.407-.197.684-.55 1.006-.852.58-.54.854-1.267 1.168-1.96.228-.506.174-1.066.205-1.606.01-.15.004-.272.157-.356.142-.078.18-.227.122-.37a.276.276 0 0 0-.354-.167c-.527.188-1.066.147-1.592.053-.46-.082-.666-.006-.846.488-.28.762-.807 1.394-1.473 1.893-.62.465-1.66.528-2.26-.136-.42-.463-.57-1.024-.755-1.597-.418-1.298-.397-2.637-.353-3.96.037-1.107.07-2.225.224-3.327.078-.565-.068-1.184.348-1.683.02-.024.01-.08.004-.12-.06-.435.04-.853.197-1.248.24-.594.695-1.036 1.122-1.486zm4.83 12.91c.053.202.008.386-.11.55.035-.185.073-.368.11-.55zm-.205-12.92c.176-.05.322-.197.523-.154-.295.27-.656.402-.98.6-.233.14-.48.263-.716.396-.072.04-.134.04-.188-.025-.047-.056-.083-.12-.055-.193.024-.062.082-.09.148-.077.184.037.284-.074.415-.178.247-.195.554-.288.852-.368zm-.834-2.832c-.17-.24-.402-.34-.428-.646.226.157.44.27.428.646zm-6.465 13.45c-.12-.36-.146-.736 0-1.113v1.11zm1.23-10.66a.034.034 0 0 1-.022.03c-.113.44-.45.77-.613 1.188-.058.146-.1.304-.174.442-.07.135-.03.402-.336.283-.072-.03-.117.088-.158.158-.296.52-.417 1.093-.45 1.68-.03.56-.195 1.113-.1 1.683.016.1-.408.575-.505.608-.142.05-.122-.053-.13-.13-.02-.26-.044-.522-.064-.784-.296-.078-.304-.11-.09-.345.05-.052.025-.165.14-.165.07-.856.236-1.706.486-2.517.178-.575.426-1.143.604-1.724.213-.7.593-1.298 1.004-1.882.244-.348.597-.588.904-.872.088-.08.19-.106.306-.05a.092.092 0 0 1 .05-.013c.025-.016.05-.03.073-.047.038-.024.075-.05.11-.073.178-.133.312-.326.55-.37.2-.155.41-.287.678-.288l.114-.01c.028-.054.075-.064.132-.053a.055.055 0 0 1 .044-.014c.368-.324.965-.287 1.142-.082.274.32.596.61.783.998.197.406.433.798.502 1.258.017.113.126.246-.062.294-.16.04-.348.173-.49-.04-.328-.488-.75-.848-1.31-1.055-.282-.104-.56.005-.84-.034-.333-.048-.614.055-.888.224-.088.054-.202.11-.156.228.047.117.194.157.285.102.413-.258.853-.062 1.274-.08.242-.012.494.153.644.422-.21.01-.336-.148-.514-.185-.614-.126-1.18.1-1.76.22-.144.03-.267.148-.43.11-.032.024-.065.048-.1.07-.314.19-.405.556-.63.816zM190.143 36.585c-.224-.76-.36-1.542-.658-2.287-.297-.735-.44-1.534-.732-2.27-.554-1.392-.952-2.833-1.447-4.243-.347-.987-.718-1.975-.943-3.004-.037-.176-.106-.345-.16-.518l-.004-.008c-.16-.16-.18-.382-.235-.58-.12-.414-.298-.812-.367-1.24-.017-.01-.02-.024-.018-.042l-.053-.077-.002-.003c-.037-.004-.056-.022-.053-.06l-.007-.007-.062-.053h-.002c-.552.045-1.098-.082-1.647-.066l-.01.002c-.014.027-.027.03-.044.002-.022 0-.043-.002-.063-.004h-.068a.056.056 0 0 1-.046.01c-.024.04-.05.082-.073.123.01.02.007.036-.01.05-.065 1.043.27 2.015.496 3.01.18.778.326 1.568.572 2.322.322.992.598 2 .807 3.012.156.762.438 1.492.52 2.27.022.19-.01.245-.19.203-.04-.01-.083-.01-.12-.025-.184-.078-.453.092-.562-.112a1.482 1.482 0 0 1-.16-.915c.062-.417-.062-.585-.49-.647-.572-.084-1.148-.114-1.726-.035-.26.037-.342-.04-.293-.306.05-.27.104-.538.2-.794.366-.982.506-2.018.71-3.037.025-.13.048-.262.1-.382.19-.456.21-.923.112-1.4-.135-.67-.146-1.35-.2-2.024a4.63 4.63 0 0 0-.13-.745c-.07-.287-.366-.31-.573-.37-.178-.053-.285.166-.29.35-.004.328-.255.543-.35.826-.167.49-.336.978-.487 1.472-.548 1.79-1.232 3.54-1.654 5.364-.267 1.154-.627 2.28-.933 3.422-.285 1.065-.546 2.14-.867 3.192-.285.925-.554 1.854-.84 2.776-.017.057-.01.117-.015.178.1.083.192.197.344.124.175-.084.358-.062.538-.052.53.033 1.05-.03 1.568-.127.354-.064.512-.25.516-.597.002-.185.062-.352.11-.525.09-.338.335-.604.417-.93.163-.638.31-1.277.522-1.9.22-.643.24-1.334.51-1.965.07-.17.114-.24.32-.193a9.53 9.53 0 0 0 1.223.204c.894.086 1.79.13 2.688.062.193-.016.29.035.352.228.205.655.385 1.32.556 1.985.197.77.345 1.557.7 2.277.212.437.425.716 1.08.47a.565.565 0 0 1 .24-.024c.42.034.82-.106 1.233-.144.2-.02.42-.066.576-.23.085-.304-.02-.6-.13-.855-.16-.37-.187-.765-.297-1.14zm-11.952 2.758c-.02.056-.06.076-.113.074-.045 0-.093-.035-.068-.07.124-.198.103-.45.24-.643.025-.035.057-.062.102-.045.043.014.06.046.05.093-.13.177-.13.395-.21.59zm9.278-7.767v-.002h-.002v-.002c-.065-.133-.15-.26-.194-.4-.303-.947-.723-1.855-.942-2.83-.017-.01-.022-.027-.02-.048-.065-.023-.063-.076-.057-.13v-.005c-.155-.15-.166-.35-.185-.544l-.002-.004c-.104-.166-.14-.357-.185-.543v-.003c-.066-.043-.095-.11-.11-.187a5.023 5.023 0 0 1-.064-.092c-.022.003-.035-.008-.037-.03l-.018-.005-.004-.016-.127.033c.005.02 0 .034-.013.05-.013.31.008.618.02.94-.248-.39-.445-.794-.532-1.25a2.163 2.163 0 0 1-.024-.11.49.49 0 0 1-.106-.312l-.004-.016c-.053-.044-.065-.102-.058-.166-.18-.684-.462-1.34-.562-2.045-.047-.323-.217-.608-.317-.916-.096-.295.01-.4.317-.446.298-.045.53.23.832.123.02-.005.138.154.14.237.003.625.228 1.194.43 1.77.087.13.122.275.112.432l.006.066a.43.43 0 0 1 .055.298l.006.068c.04.12.08.238.118.357l.004.013c.018.035.033.072.05.107l.017.062.03.058.03.117c.016.023.027.045.042.068l.015.07c.092.148.147.31.166.482.005.042.01.084.017.127.06.068.065.15.053.234.002.04.006.078.01.116.04.06.06.122.047.192l.016.11c.086.177.15.36.182.553l.002.008c.033.03.064.064.052.117.012.016.017.035.012.055.11.167.177.348.183.55l.002.005c.312.866.497 1.762.603 2.675v.002l.01.007-.015-.004zm.796 6.626c.213-.04.39-.07.625.012-.276.134-.363.13-.626-.012zM229.072 32.123c-.09-.215-.176-.433-.326-.614a39.164 39.164 0 0 1-3.266.226c-.364.01-.73.05-1.092.078-.123.01-.212-.002-.238-.154-.088-.498-.14-1-.193-1.502-.062-.564-.003-1.14-.14-1.693-.095-.393-.04-.786-.037-1.18 0-.162.07-.258.27-.29.535-.085 1.062-.23 1.597-.317.578-.094 1.11-.36 1.697-.414.25-.155.217-.492.436-.668l-.006-.16c-.144-.175-.262-.36-.293-.59-.007-.06-.04-.098-.1-.082-.127.032-.12.16-.168.27l-.11-.15c-.232-.055-.466-.108-.7-.162-.022-.162.08-.24.21-.246.306-.014.32-.027.19-.32-.143-.002-.284-.01-.426-.004-.81.036-1.617.072-2.427.117-.18.008-.282-.022-.304-.23-.082-.88-.045-1.765-.106-2.645-.004-.052-.043-.133.093-.132.916.007 1.764-.355 2.652-.507.68-.116 1.354-.288 2.025-.452.162-.04.328-.137.332-.338.006-.33-.01-.663-.017-.995-.06-.034-.135-.057-.175-.105-.18-.223-.31-.14-.43.056-.197.072-.205-.11-.22-.202-.024-.165.122-.097.207-.106.21-.12.304-.322.378-.54-.402.018-.806.02-1.205.053-.705.062-1.408.166-2.113.212-1.162.074-2.326.12-3.49.17-.273.01-.467.045-.337.39.018.046-.01.12-.037.17-.104.185-.103.385-.11.59-.05 1.235.02 2.473-.05 3.71a34.95 34.95 0 0 0-.05 3.285c.05 1.325.146 2.647.093 3.978a66.45 66.45 0 0 0-.024 4.442c.006.197.05.47.32.412.34-.072.662-.045 1-.02.223.015.454-.103.682-.103.732.003 1.438-.193 2.156-.27.912-.097 1.77-.478 2.686-.55.42-.034.746-.346 1.17-.37.132-.01.187-.138.178-.278-.04-.595-.025-1.19-.182-1.77zm-6.603-12.02c.093.118.183 1.51.07 1.6-.245.193-.237.504-.397.754-.105-.088-.074-.203-.074-.302.003-.48.024-.956-.13-1.433-.104-.328-.088-.698-.116-1.05a1.203 1.203 0 0 0-.07-.354c-.082-.2.006-.33.222-.336.22-.005.438 0 .658 0-.607.337-.52.68-.165 1.12zm2.11 14.4c.31-.253.626-.248.936-.272-.277.136-.573.208-.935.274zM114.24 30.75l.034-.066a.584.584 0 0 1 .234-.25.952.952 0 0 1-.31-.21.72.72 0 0 1-.22.303.855.855 0 0 1 .263.223zM101.346 33.947c-.17 0-.178.224-.22.367-.25.84-.594 1.63-1.08 2.37-.218.33-.484.63-.674.98a1.09 1.09 0 0 1-.23.28c-.293.27-.602.523-.905.783-.237.205-.246.213-.408-.062-.017-.027-.035-.072-.055-.073-.23-.017-.17-.187-.168-.317.016-.756.03-1.512.056-2.268.007-.207.04-.414.068-.62.08-.564.228-1.12.286-1.688.057-.554.085-1.11.192-1.656.094-.48.223-.952.296-1.434.122-.795.278-1.584.44-2.37.103-.506.214-1.022.288-1.527.137-.917.337-1.825.43-2.75.015-.155.108-.293.102-.46-.006-.148-.07-.193-.204-.164-.297.063-.594.126-.89.196-.63.15-1.26.3-1.886.46-.22.056-.415.118-.482.415-.077.35-.135.698-.194 1.05-.04.243-.146.485-.087.734.033.135.07.256-.076.317-.13.057-.276-.047-.31-.137-.11-.317-.4-.498-.55-.79-.17-.327-.27-.693-.516-.98-.192-.226-.385-.49-.71-.495-.302-.006-.596.104-.877.227-.598.26-1.014.732-1.426 1.213-.617.718-1.09 1.507-1.322 2.44-.16.642-.454 1.24-.592 1.9-.145.69-.16 1.385-.14 2.073.026.92.05 1.845.284 2.746.104.396.15.808.372 1.17.068.108.085.313-.046.356-.196.067-.296.23-.442.34-.357.273-.69.58-1.05.855-.338.26-.636.587-1.11.5-.237-.044-.53-.017-.684-.23-.232-.33-.433-.687-.41-1.12.024-.49-.004-.977.092-1.47.17-.878.387-1.743.593-2.613.127-.54.314-1.07.27-1.638-.025-.306-.08-.608-.098-.913-.048-.785-.338-1.473-.825-2.08-.182-.23-.38-.453-.7-.473a4.378 4.378 0 0 0-.56.01 2.72 2.72 0 0 0-1.158.326c-.736.408-1.345.98-1.908 1.605-.322.358-.584.77-.948 1.09-.082.07-.17.167-.278.127-.093-.034-.078-.146-.053-.24.005-.017-.014-.045-.03-.062-.14-.16-.146-.353-.174-.554-.04-.288.027-.575-.036-.864-.06-.27-.17-.465-.436-.584-.433-.19-.737.07-1.02.3-.313.256-.585.565-.85.88-.37.436-.734.88-1.054 1.35a77.388 77.388 0 0 0-1.582 2.463c-.32.514-.716.973-1.013 1.502-.486.86-1.04 1.664-1.856 2.266-.345.254-1.157.146-1.31-.416a5.514 5.514 0 0 1-.21-1.523c.005-.4.075-.797.115-1.19.04-.383.067-.78.187-1.152.318-.99.567-2.003.99-2.958.065-.15.087-.32.202-.452.036-.043.09-.108.018-.176-.063-.06-.118-.023-.182.002-.723.293-1.444.59-2.172.87-.28.107-.454.267-.54.573-.105.39-.293.753-.423 1.136-.127.376-.303.73-.444 1.1-.153.397-.227.823-.384 1.224a3.448 3.448 0 0 0-.22.732c-.075.473-.185.938-.22 1.42-.02.248-.02.498-.055.746-.075.532-.066 1.062.12 1.574.106.295.252.573.3.89.03.214.01.355-.248.312-.085-.014-.098.045-.138.078-.42.338-.723.79-1.173 1.104-.54.37-1.098.7-1.71.935-.163.063-.276-.057-.238-.176.06-.186-.02-.32-.064-.477-.044-.15-.122-.303-.095-.46.148-.847.34-1.687.55-2.522.143-.56.223-1.117.042-1.686-.172-.545-.565-.886-1.043-1.15-.425-.234-.908-.142-1.36-.204-.218-.03-.43-.016-.648-.112-.164-.073-.122-.117-.05-.207.07-.088.17-.13.263-.187.308-.188.61-.38.938-.54.864-.423 1.405-1.2 1.962-1.94.46-.61.784-1.302 1.004-2.042.062-.205.08-.404.097-.61.024-.302-.158-.552-.17-.85-.033-.778-.465-1.302-1.184-1.546-.45-.152-.934-.072-1.397.027-.34.07-.644.235-.954.392-.737.37-1.37.88-1.825 1.546-.354.516-.73 1.026-1.015 1.59-.05.102-.135.17-.26.095-.106-.064-.15-.15-.1-.27a.428.428 0 0 1 .063-.107c.164-.188.286-.38.09-.623-.025-.033-.023-.094-.028-.143-.05-.442.132-.842.23-1.258.108-.45.33-.88.335-1.346.003-.295.1-.51.26-.728.405-.556.96-.966 1.428-1.464.7-.746 1.357-1.518 1.925-2.37a15.22 15.22 0 0 0 1.054-1.854c.288-.604.587-1.206.744-1.863.08-.336.165-.672.228-1.012.098-.533.312-1.062.102-1.615-.345-.088-.016-.226-.024-.338.014-.312-.12-.58-.265-.843-.077-.14-.11-.323-.317-.345-.22-.022-.424-.124-.648-.135-.798-.038-1.543.17-2.22.563-.766.44-1.522.908-2.083 1.624-.334.425-.65.856-.89 1.345-.204.416-.355.852-.533 1.277-.17.41-.348.822-.504 1.236-.186.49-.223 1.035-.375 1.54-.245.813-.308 1.662-.537 2.48a16.16 16.16 0 0 0-.41 1.865c-.153.982-.314 1.96-.695 2.89-.037.09-.098.204-.18.172-.24-.097-.335.115-.487.196-.146.078-.262.2-.416.27-.647.293-1.23.715-1.887.986-.48.197-.96.4-1.458.543-.387.11-.778.206-1.166.316-.128.037-.183.1-.18.228.002.324.002.668.075.963.19.754.116 1.507.103 2.255-.012.703-.08 1.41-.14 2.114-.05.582-.268 1.12-.322 1.692-.045.462-.27.87-.41 1.304-.11.338-.155.695-.316 1.018-.215.43-.35.89-.543 1.33-.2.45-.463.824-.79 1.166-.28.295-.352.285-.55.02l-.062.004c-.13.222-.32.238-.665.12-.482-.17-.765-.528-1.007-.948-.58-1.002-.532-2.07-.323-3.15.176-.908.505-1.764.875-2.605.275-.63.524-1.27.903-1.844.324-.49.62-1 .958-1.483.274-.394.488-.828.852-1.154.088-.078.026-.143-.01-.22-.126-.257-.36-.437-.433-.74-.11-.477-.212-.497-.635-.25-.015.008-.026.02-.04.03-.886.588-1.872.963-2.86 1.33-.488.184-1.02.194-1.528.304-1.032.22-2.01.084-2.943-.352-.256-.12-.4-.093-.597.055-.327.242-.7.406-1.088.516-.21.06-.285.175-.226.375.066.226.24.376.332.577.262.578.38 1.185.468 1.814.11.787-.066 1.528-.192 2.276-.065.384-.215.756-.238 1.152a.417.417 0 0 1-.066.187c-.292.453-.35.995-.558 1.48-.083.196-.212.37-.265.583a5.184 5.184 0 0 1-.484 1.236c-.288.53-.727.947-1.102 1.41a1.06 1.06 0 0 1-.89.408c-.07-.002-.142.018-.194-.072-.076-.13-.16-.12-.21.03-.036.108-.097.187-.224.194-.13.006-.21-.08-.254-.172a1.806 1.806 0 0 0-.26-.394c-.168-.194-.3-.414-.327-.66-.034-.32-.162-.575-.314-.855-.275-.51-.347-1.086-.24-1.67.14-.77.384-1.504.672-2.23.326-.822.797-1.564 1.322-2.262.28-.372.56-.757.875-1.112.467-.523.99-.98 1.515-1.438.146-.127.19-.238.148-.396-.04-.146-.097-.266-.062-.44.044-.22-.3-.384-.5-.267-.208.12-.415.24-.616.365-.96.6-1.766 1.383-2.564 2.173-.89.88-1.683 1.843-2.357 2.9-.37.577-.742 1.155-1.018 1.786-.18.41-.28.85-.42 1.272-.334.997-.323 1.996-.065 3.002.03.118.127.225.14.34.035.338.204.615.4.86.29.356.542.76.95 1.006.39.233.715.574 1.146.74.238.092.496.124.72.257.156.092.307.066.485.037.313-.055.564-.248.856-.32.637-.158 1.17-.512 1.68-.883.854-.616 1.538-1.403 2.122-2.282.662-.996 1.076-2.113 1.547-3.197.353-.81.356-1.72.416-2.597.04-.557.02-1.117-.012-1.678-.027-.488-.012-.98-.075-1.467-.043-.338-.095-.674-.144-1.01-.02-.12-.032-.242.077-.322.092-.066.16.023.243.053.23.08.438.243.7.23h.907c.453-.08.907-.15 1.357-.24.677-.136 1.268-.474 1.85-.823.12-.073.22-.133.36-.025.077.062.187.05.278-.014.078-.057.166-.173.256-.078.092.1-.037.192-.08.285-.02.036-.046.068-.072.102a9.59 9.59 0 0 0-.817 1.215c-.366.64-.73 1.28-1.108 1.912-.475.79-.883 1.606-1.186 2.48-.3.87-.463 1.76-.47 2.683-.003.563.102 1.107.198 1.656.127.723.48 1.296 1.02 1.77.277.245.63.333.935.515.59.35 1.225.385 1.885.363.282-.007.474-.182.708-.272.38-.148.71-.385 1.014-.662.45-.41.694-.988 1.163-1.38.027-.024.033-.073.053-.108.294-.528.53-1.088.802-1.627.555-1.103.897-2.28 1.025-3.49.113-1.078.314-2.147.367-3.238.036-.77.05-1.54.065-2.312.01-.523.144-.97.645-1.226.325-.166.65-.333.983-.48a8.88 8.88 0 0 0 1.573-.89c.085-.06.18-.082.272-.11.14-.046.22.026.238.145.047.285.086.574.03.865-.21 1.15-.36 2.31-.565 3.46-.18.996-.402 1.984-.543 2.986-.082.583-.216 1.154-.322 1.732a78.71 78.71 0 0 0-.336 2.04c-.116.753-.297 1.493-.456 2.238-.03.146.063.214.147.188.253-.078.51-.027.765-.068.53-.088 1.05-.256 1.592-.268.17-.05.344-.047.516-.04.12.003.208-.026.276-.12-.038-.388.092-.758.122-1.133.054-.657.284-1.262.452-1.88.187-.69.296-1.396.473-2.086.157-.617.21-1.26.415-1.867.072-.22.168-.428.195-.664.018-.154.133-.283.3-.283.48 0 .983-.115 1.416.213.258.195.592.248.818.527.533.658.748 1.39.584 2.212-.108.546-.282 1.078-.404 1.62-.122.543-.19 1.098-.328 1.633-.18.7-.32 1.396-.28 2.123.01.13.033.248.09.36.243.462.74.522 1.144.548.33.02.72-.094 1.06-.22.37-.142.73-.302 1.074-.52.705-.444 1.48-.775 2.095-1.37.264-.252.513-.517.758-.783.417-.455.806-.932 1.08-1.49.158-.326.245-.344.48-.07.43.496.97.826 1.59 1.006.48.138.984.233 1.376-.24.035-.042.095-.064.14-.103.43-.352.77-.78 1.037-1.265.246-.442.48-.89.725-1.333.346-.634.72-1.252 1.036-1.9.378-.774.774-1.542 1.242-2.263.373-.575.818-1.104 1.24-1.646a.604.604 0 0 1 .39-.25c.23-.034.33.06.357.294.038.332-.034.658-.028.99.01.56-.066 1.127-.145 1.684-.14 1.012-.263 2.025-.497 3.02-.205.868-.22 1.773-.548 2.614-.067.172.032.207.162.217.73.055 1.457.112 2.19.112.22 0 .293-.093.313-.287.035-.33.066-.662.122-.988.11-.636.155-1.278.274-1.914.096-.512.095-1.045.225-1.547.2-.774.346-1.562.563-2.334.26-.927.59-1.81 1.234-2.54.328-.374.68-.73 1.226-.764.24-.015.455.046.575.27.2.372.307.786.236 1.198-.114.666-.252 1.326-.37 1.992-.197 1.118-.34 2.233-.324 3.373.01.728.15 1.412.465 2.064.216.445.512.803 1.036.896.296.114.606.067.91.082.17.012.32-.054.478-.11.6-.214 1.002-.69 1.46-1.087.576-.5.996-1.142 1.5-1.703.32-.356.487-.81.754-1.196.223-.326.323-.324.575-.03.322.38.723.538 1.232.51.52-.032.928-.286 1.34-.558.262-.174.546-.31.768-.55.08-.09.274-.146.39-.073.106.067.04.23.02.35-.03.17-.114.325-.138.5-.08.602-.16 1.202-.358 1.78-.056.442-.11.888-.167 1.333-.07.55-.25 1.072-.396 1.602-.05.172-.113.367-.392.41-.22.035-.427.217-.62.36-.35.255-.686.528-1.054.76-.742.466-1.387 1.06-2.094 1.577-.14.102-.27.224-.396.345-.666.64-1.43 1.194-1.92 1.993-.46.754-1.06 1.443-1.207 2.36-.08.493-.086.99.067 1.478.005.016.003.036.013.048.185.21.347.446.563.616.212.164.48.262.723.384.095.048.21.05.295.124.162.033.326.104.484.095.795-.063 1.594-.016 2.385-.182.52-.108 1.008-.27 1.46-.543.447-.27.995-.41 1.224-.96.013-.027.044-.05.07-.07.435-.346.733-.802 1.06-1.242.67-.9 1.122-1.916 1.656-2.89.49-.894.743-1.877.993-2.854.146-.574.3-1.148.465-1.718.132-.45.275-.887.252-1.36-.004-.074 0-.134.08-.19.433-.297.963-.366 1.414-.64.313-.187.635-.352.91-.596.59-.52 1.01-1.164 1.366-1.852.22-.423.28-.887.307-1.367.028-.503.028-.996-.055-1.488-.02-.14-.03-.373-.132-.373zM60.868 23.075c.184-.508.22-1.053.366-1.57.242-.858.47-1.722.737-2.572.21-.672.7-1.143 1.292-1.482.23-.13.528-.19.813-.084.11.04.19.116.21.23.06.323.232.628.178.875-.01.838-.296 1.482-.686 2.087-.084.13-.145.267-.184.405-.11.397-.43.648-.656.96-.377.513-.732 1.048-1.197 1.493-.18.172-.354.348-.483.566-.098.165-.26.134-.35-.032-.154-.287-.15-.567-.04-.873zm.807 10.11c-.25.105-.462.255-.75.238-.536-.03-.772-.392-.594-.907.14-.4.415-.74.564-1.124.21-.538.663-.77 1.065-1.078.114-.09.27-.13.404-.19.41-.19.664-.07.785.374.048.18.103.363.057.555.045.215-.095.385-.178.548-.13.25-.21.536-.435.73-.28.31-.487.673-.92.856zM93.05 43.373c-.237.65-.323 1.348-.574 1.996-.265.682-.478 1.38-.68 2.08-.103.356-.3.66-.477.98-.297.532-.512 1.117-.98 1.543-.11.158-.26.276-.403.402-.05.042-.12.09-.13.144-.044.252-.22.227-.397.21-.546.18-.89-.174-1.23-.49-.164-.152-.18-.405-.236-.616-.093-.34-.05-.693-.005-1.042.1-.783.488-1.438.94-2.058.318-.438.733-.793 1.147-1.143.534-.45 1.046-.924 1.565-1.39.357-.32.718-.67 1.22-.775.122-.024.32-.067.237.16zm1.65-9.958c-.1.318-.2.686-.398.913-.3.345-.642.743-1.163.778a.916.916 0 0 1-.826-.37c-.318-.437-.352-.97-.42-1.484-.09-.693.064-1.38.103-2.07.052-.955.39-1.823.98-2.584.406-.4 1.028-.31 1.22.054.092.058.187.112.22.23l.002.005c.263.27.318.637.41.97.127.452.13.933.114 1.405-.04.722-.025 1.453-.245 2.154zM22.964 42.342l-.004.006zM16.544 20.32h-.003v.003zM31.396 20.423l-.004.002-.002.002z"/><path fill="#FFF" d="M31.303 28.604c.518-.342.974-.77 1.51-1.09a.572.572 0 0 0 .236-.31.376.376 0 0 1 .123-.17c.53-.472 1.06-.942 1.513-1.493.104-.216.27-.388.424-.57.11-.15.25-.29.33-.455.2-.42.372-.85.556-1.276.242-.76.552-1.497.667-2.292.017-.126-.046-.26.042-.377.015-.255.11-.51.01-.768-.01-.17-.146-.274-.216-.41-.187-.362-.383-.714-.73-.964-.197-.14-.347-.348-.51-.53a2.523 2.523 0 0 0-.488-.425 16.866 16.866 0 0 0-1.326-.775 2.96 2.96 0 0 0-1.86-.328c-.58.082-1.162.172-1.736.354-.43.135-.84.327-1.276.447a1.092 1.092 0 0 0-.453.24c-.173.165-.354.26-.59.263a.37.37 0 0 0-.23.084c-.203.152-.397.317-.61.45-.67.42-1.377.782-2.01 1.265-.98.75-1.99 1.466-2.86 2.355-.254.262-.572.465-.81.74-.463.535-.984 1.014-1.435 1.564a34.734 34.734 0 0 0-2.29 3.138c-.133.207-.367.237-.566.087-.115-.087-.23-.245-.38-.202-.147.042-.287 0-.333-.074-.163-.26-.468-.333-.66-.55-.125-.143-.25-.3-.41-.4-.175-.11-.236-.266-.284-.442-.03-.104-.055-.208-.08-.312-.222-.885-.3-1.765.07-2.634.193-.457.397-.914.704-1.302.262-.33.598-.604.9-.903 0-.035.012-.06.048-.065l-.004.004c.015-.06.062-.053.105-.054.004-.03.02-.05.05-.05l-.004.003c.013-.06.06-.05.103-.054-.04-.11.217-.18.04-.31-.028-.012-.058-.032-.09-.037-.704-.11-1.324.233-1.957.424-.59.177-1.123.558-1.537 1.053-.226.27-.416.557-.52.892-.176.564-.164 1.135-.04 1.712.105.49.21.977.442 1.43.34.66.867 1.13 1.484 1.513.178.11.384.172.528.336.437.177.835.428 1.248.65.11.06.225.096.344.127.065.018.183-.062.188.042.006.112.1.27-.08.347-.097.278-.298.5-.41.774-.136.34-.388.623-.53.957-.235.56-.513 1.1-.725 1.673-.212.57-.51 1.104-.744 1.667-.457 1.103-.775 2.244-1.04 3.4-.225.973-.416 1.953-.616 2.932-.11.537-.146 1.084-.222 1.625-.096.683-.202 1.363-.225 2.052-.02.654-.11 1.314 0 1.968.074.446.057.9.173 1.35.1.388.21.777.285 1.177.07.376.187.762.44 1.066.25.304.436.642.598.99.223.48.482.96.854 1.32.507.49 1.082.924 1.77 1.16.13.047.266.083.398.122.19-.01.377 0 .55.097l-.008-.004c.054.015.12-.016.157.05h-.006c.015.01.028.02.042.026.145.025.284.087.436.074.086-.006.176-.01.21.088.038.11.035.216-.085.28-.016.124.013.18.165.195.308.03.61-.03.918-.005l.213-.058c.236-.097.476-.174.736-.144.228-.006.434-.11.65-.168 1.062-.278 2.085-.63 2.897-1.438.42-.42.928-.756 1.328-1.2.38-.42.715-.874 1.063-1.32 1.064-1.364 1.657-2.938 2.106-4.577.164-.598.19-1.226.232-1.85.06-.908-.068-1.772-.434-2.6-.18-.404-.312-.844-.67-1.146-.565-.48-1.215-.827-1.883-1.12-.313-.138-.687-.312-1.052-.124a4.586 4.586 0 0 0-.693.453c-.475.365-.574.947-.745 1.468-.16.484-.142 1.016-.144 1.53-.002.352.005.71.13 1.05.072.064.16.057.246.05l.03-.044c.017-.02.04-.033.05-.056.49-.95 1.23-1.666 2.1-2.265.17-.12.267-.188.51-.037.227.142.3.297.312.492.026.375.1.742.114 1.117.034.842.067 1.67-.198 2.496-.187.58-.358 1.164-.575 1.732-.158.416-.334.824-.545 1.222-.192.362-.494.65-.642 1.03a1.5 1.5 0 0 1-.346.508c-.352.36-.703.72-1.113 1.023-.215.158-.457.234-.69.295-.287.072-.558.14-.775.352a.537.537 0 0 1-.38.16c-.396.008-.798.03-1.16-.184a.245.245 0 0 0-.14-.038c-.18.012-.315-.074-.408-.228-.142-.233-.285-.467-.422-.703-.282-.486-.615-.947-.802-1.486-.173-.5-.195-1.02-.254-1.54-.112-.986-.063-1.96.097-2.934.09-.547.244-1.08.37-1.62.192-.824.442-1.628.714-2.43.103-.298.242-.583.32-.89.147-.57.385-1.11.598-1.656.216-.554.494-1.09.702-1.644a15.23 15.23 0 0 1 1.19-2.516c.066-.11.126-.24.31-.146.073.037.16-.016.25-.055.503-.224 1.02-.414 1.57-.496.44-.066.88-.133 1.295-.322.6-.273 1.185-.578 1.847-.69.53-.09 1.026-.292 1.51-.532.625-.312 1.254-.62 1.896-.898.27-.117.354-.406.596-.535.04-.245.226-.227.41-.216zm-.617-.396c-.282.2-.583.383-.888.543-.588.313-1.16.667-1.808.85-.49.138-.948.396-1.44.493-.522.104-1.042.228-1.566.323-.342.062-.697.065-1.027.19a.69.69 0 0 1-.342.04c-.237.075-.482.126-.688.28-.057.042-.13.047-.186 0-.056-.045-.014-.103-.004-.16.05-.302.242-.46.525-.525.052-.06.103-.122.152-.185a1.515 1.515 0 0 1-.01-1.127c.194-.546.44-1.072.705-1.588.153-.295.312-.59.5-.863.645-.938 1.315-1.852 2.136-2.65.543-.53 1.074-1.078 1.688-1.518.512-.366.98-.794 1.554-1.085.29-.147.58-.322.853-.514l.056-.038c.15-.117.315-.2.5-.248.053-.11.15-.143.263-.148.112-.154.3-.14.453-.205.37.054.745.083 1.087.255l-.005-.004c.073.022.185-.052.21.087.265.136.515.31.58.607.062.266.172.523.196.79.056.615.058 1.226-.225 1.806-.21.43-.296.91-.523 1.338-.233.44-.52.846-.78 1.268-.504.81-1.193 1.447-1.964 1.992z"/><path fill="#FFF" d="M36.706 20.567l-.002.004v.003zM71.21 24.642c.437.104.883.11 1.33.102.234-.038.487-.035.684-.18.2-.146.417-.238.64-.326.022-.055.05-.102.12-.097l.005-.002c.04-.268.24-.396.45-.52.477-.46.82-.982.74-1.682-.036-.314-.057-.65-.412-.814-.628-.29-1.26-.338-1.902-.054-.424.188-.828.41-1.22.657-.573.36-.966.864-1.153 1.506-.097.333-.088.68.188.96.163.165.316.343.53.452z"/><g><path fill="none" d="M125.42 43.945c.017.05.055.105.1.133.045.03.11.03.15.037.092-.003.18-.004.263-.016a2.616 2.616 0 0 1-.473-.332.174.174 0 0 0-.04.177zM116.618 41.646l-.05.008c.018.03.03.066.056.084.043.028.093.01.084-.022-.01-.03-.058-.046-.09-.07zM137.98 38.373c-.06.017-.105.052-.11.115-.01.1.077.198.17.19.062-.007.102-.055.108-.115.01-.1-.08-.196-.17-.19zM115.11 40.475c.058.147.125.233.24.272.027.01.08-.008.098-.03.02-.023.025-.073.015-.104-.045-.13-.145-.168-.353-.138zM111.747 25.69zM140.38 20.565a.097.097 0 0 0-.116.1c.007.104.066.182.178.192.02.002.047-.046.07-.07.01-.104-.015-.2-.132-.222zM141.155 26.717c-.066.072-.13.15-.085.258.005.014.03.03.045.028.125-.018.137-.117.148-.215.002-.018-.006-.038-.02-.098-.053.016-.078.015-.088.027zM130.224 12.112c.01-.027-.01-.082-.034-.1-.095-.07-.203-.115-.458-.114.166.127.253.203.35.263.05.033.12.017.142-.048z"/><path fill="#FFF" d="M111.84 25.7c-.015.01-.03.012-.046.01s-.03-.012-.048-.02c.032.018.065.03.093.01zM124.408 29.505c-.01.018.02.08.043.085.1.03.19.018.23-.095-.013-.035-.02-.09-.04-.098-.103-.03-.185.014-.232.108zM127.002 16.17l.052-.07a3.075 3.075 0 0 1-.052.07zM135.58 28.643c.137-.062.217-.163.363-.385-.156-.083-.317-.08-.478-.06.03.083.055.168.072.26.012.063.028.124.042.185zM127.997 25.657c.002.11.05.186.17.178.064-.004.104-.055.092-.116-.02-.098-.065-.18-.18-.19-.064.018-.085.07-.083.127zM113 26.023c.054.087.165.105.345.058-.007-.015-.012-.03-.018-.047a1.075 1.075 0 0 0-.327-.01zM107.824 27.842c-.076.082-.064.18-.06.277.005.072.002.153.096.213.11-.063.14-.17.12-.29-.013-.09-.025-.194-.156-.2zM133.09 32.31c-.006.06.03.106.093.11.023 0 .05-.04.074-.06 0-.063-.03-.11-.095-.11-.025.002-.07.036-.072.06zM115.068 25.64a.694.694 0 0 0-.074-.454c-.065-.118-.16-.174-.292-.158-.114.014-.203.126-.19.262.015.137.04.275.078.407.043.146.108.238.18.278.1-.095.196-.192.295-.288 0-.014 0-.03.003-.046zM130.854 26.867c-.07.044-.114.115-.097.196.03.145.03.302.13.43.172-.062.226-.215.303-.346.042-.072.036-.148-.017-.218-.066-.087-.228-.12-.32-.063zM112.264 21.077l.123-.267c-.168.068-.135.172-.123.267zM118.607 15.94c-.132-.183-.308-.244-.47-.315-.228-.1-.304-.053-.49.286.193.168.404.304.647.366.154-.067.242-.17.313-.336zM115.75 22.436c.06.01.104-.02.123-.083l-.037-.094c-.047.02-.108.028-.138.064-.042.048-.016.103.052.112zM112.157 21.247c.032-.043.062-.09.09-.138a.57.57 0 0 0-.387.054c-.126.058-.257.114-.37.193-.113.08-.292-.018-.38.17.416.127.774.09 1.047-.28zM112.264 21.077l-.008.017-.01.014.02.004c0-.01 0-.023-.002-.035zM108.416 33.338a.538.538 0 0 0-.143.26c.16.486.377.955.632 1.416.05.092.102.182.152.27.024.005.056.008.09.015.076-.13.156-.265.252-.424-.557-.353-.695-.963-.984-1.538z"/><path fill="#D2C781" d="M108.273 33.597c-.023.12.01.233.05.35.16.48.434.897.695 1.322.006.01.02.014.04.016-.052-.09-.104-.18-.153-.27a8.383 8.383 0 0 1-.632-1.42z"/><path fill="#FFD923" d="M109.983 17.564c0-.004-.003-.008-.004-.012a.144.144 0 0 1-.05.02.79.79 0 0 0 .053-.008zM109.968 17.497c.02-.062.002-.08-.014-.042-.01.026.012.063.025.097-.003-.02-.016-.04-.012-.055z"/><path fill="#FFF" d="M143.106 25.74c-.056-.618-.113-1.237-.12-1.857-.008-.575-.147-1.11-.34-1.64-.252-.697-.528-1.386-.766-2.087-.305-.896-.747-1.723-1.207-2.544a4.792 4.792 0 0 0-.26-.404c-.06-.08-.118-.185-.2-.22-.304-.124-.44-.396-.615-.637-.13-.176-.26-.367-.433-.496a10.433 10.433 0 0 1-1.62-1.517c-.012-.015-.03-.027-.044-.04-.97-.917-2.1-1.602-3.27-2.23-.246-.133-.492-.27-.75-.383-1.006-.442-2.022-.864-3.025-1.316-.717-.323-1.447-.576-2.24-.614-.2-.01-.398-.054-.594-.097a16.997 16.997 0 0 0-2.792-.38c-1.326-.06-2.597.163-3.857.505-.33.09-.648.187-.995.19-.196.002-.41.01-.563.166-.195.2-.43.28-.7.296a.71.71 0 0 0-.28.097c-.46.25-.948.397-1.446.548-.312.094-.6.263-.886.44-.175.11-.35.22-.526.32-.213.32-.573.425-.88.604-.174.1-.358.18-.535.273-.047.023-.075.018-.095-.03-.02-.154.207-.198.16-.363-.063-.08-.145-.062-.21-.018l-.077.053c-.047.03-.092.062-.138.093a2.12 2.12 0 0 0-.266.21c-.52.5-1.016 1.02-1.66 1.37-.104.055-.188.148-.28.224-.51.408-.877.935-1.236 1.468-.48.716-.956 1.436-1.43 2.157-.098.15-.208.305-.254.474-.172.628-.48 1.19-.816 1.737a2.017 2.017 0 0 0-.303 1.084c0 .183 0 .36-.06.533-.094.264-.173.536-.288.79-.35.777-.53 1.604-.665 2.43-.133.83-.15 1.677-.216 2.517-.003.04.006.08.008.12.03.564.015 1.133.072 1.694.034.33.094.66.202.983.013.04.018.08.017.12-.002.442.084.874.152 1.307.02.12.038.242.052.363.042.364.145.707.337 1.02.037.06.07.123.104.185.273.48.476.99.67 1.51.374.985.928 1.86 1.655 2.628.383.404.812.78 1.003 1.334.013.036.04.07.068.1.37.393.72.81 1.155 1.14.544.408 1.095.812 1.522 1.354.073.094.166.177.264.245.524.37.997.8 1.53 1.163.674.46 1.42.73 2.16 1.028.667.27 1.367.467 2.008.787.73.363 1.487.547 2.277.63.088.01.175.02.263.026.22.016.443.024.627.172.07.058.148.1.226.134.175.077.363.105.564.094a.92.92 0 0 1 .24.018c.01.004.02.004.032.008.13.03.263.05.396.06.453.038.914-.003 1.356.138.072.022.16.01.24-.002.59-.095 1.197-.076 1.78-.26.302-.096.62-.154.942-.03.086.032.2.016.296-.007.33-.082.662-.16.985-.266.326-.106.653-.21.978-.32.625-.21 1.24-.445 1.817-.772.157-.09.322-.166.513-.145.363.038.666-.113.946-.32l.018-.012c.176-.128.36-.235.56-.325.034-.015.064-.033.1-.047.146-.057.272-.165.403-.256.165-.115.323-.24.485-.355.75-.538 1.49-1.087 2.104-1.783.132-.15.26-.306.405-.44.576-.534 1.055-1.15 1.52-1.777a1.17 1.17 0 0 0 .213-.427c.05-.236.19-.372.363-.523.297-.262.59-.54.596-.993a.87.87 0 0 1 .218-.55c.13-.157.208-.344.25-.54a.824.824 0 0 1 .217-.425c.27-.254.378-.552.35-.91-.004-.06-.004-.132.025-.18.334-.53.45-1.142.616-1.733.008-.02.02-.037.024-.056.105-.322.256-.638.303-.97.063-.453.162-.91.11-1.374-.023-.205.004-.396.198-.532.145-.102.178-.267.165-.43-.026-.345.053-.68.077-1.02.054-.76.078-1.52.01-2.283zm-11.586-13.3c.24.046.442.175.618.347.386.376.596.844.717 1.357.014.057.015.12.008.18-.01.08-.037.154-.123.187a.2.2 0 0 1-.22-.053c-.096-.1-.18-.21-.26-.323-.16-.23-.307-.468-.47-.695-.3-.418-.71-.54-1.204-.45-.136.026-.28.013-.415.04-.27.053-.56.09-.68.404-.096.246-.36.22-.524.34-.316-.083-.424-.267-.49-.497.028-.045.05-.12.093-.14.55-.227 1.072-.52 1.65-.693.44-.132.867-.088 1.3-.004zm-3.723 4.048c-.13.17-.136.38-.126.578.06 1.146-.073 2.286-.09 3.43-.004.258-.01.514-.137.76a.946.946 0 0 0-.077.468c.046.824-.035 1.645-.055 2.466-.005.26-.013.51.122.76.124.23.11.505.104.768-.023 1.103.005 2.207-.094 3.308-.028.32-.04.642-.033.962.007.333.113.422.448.415.74-.017 1.483-.053 2.226-.053 1.022 0 2.046.03 3.068.042.26.004.52.028.82-.05.085-.19.14-.365.234-.518.29-.478.293-.99.203-1.515-.046-.255-.104-.507-.15-.737.056-.056.078-.096.11-.11.108-.048.22-.087.325-.127.38.207.637.49.77.865.16-.02.32-.023.478.06-.146.222-.227.322-.364.385.038.173.083.345.127.517.086.336.036.634-.23.88-.1.096-.204.192-.24.358.27.168.575.18.864.116.387-.084.756-.05 1.124.01.207.408.16.557-.203.708-.303.126-.62.137-.942.144-.48.01-.957.03-1.404.044-.1.117-.048.186 0 .247.27.334.422.74.535 1.134.19.668.06 1.302-.515 1.824-.206-.223-.448-.334-.707-.324-.13-.22-.092-.423-.09-.62 0-.63-.067-1.24-.458-1.77-.104-.143-.067-.193.167-.316a.294.294 0 0 0 .127-.11c.025-.048.04-.124.02-.168-.02-.042-.09-.075-.143-.08a.28.28 0 0 0-.17.037 2.138 2.138 0 0 1-1.133.338c-1.003 0-2.004.095-3.008.038-.502-.028-1.003-.032-1.505-.04-.1-.002-.2.02-.296.043a.29.29 0 0 0-.227.25c-.012.08-.02.16-.02.24-.036 1.083-.114 2.165-.048 3.25.023.378.01.753-.11 1.13-.085.26-.113.56-.087.832.048.474.27.886.682 1.145.554.35 1.147.576 1.825.427.077-.018.16-.013.24-.01.038 0 .076.02.132.035.088.113.196.23.278.365a.416.416 0 0 1-.192.605.888.888 0 0 1-.346.083c-.3.002-.605.01-.9-.034-.355-.052-.704-.152-1.054-.234a.617.617 0 0 1-.34-.233c-.105-.128-.234-.216-.44-.154a3.076 3.076 0 0 0-.075 1.32c-.267.12-.337.497-.72.496-.28-.333-.158-.766-.266-1.14-.11-.38.03-.796-.055-1.188-.133-.067-.186.03-.245.105-.448.584-1.03.936-1.766 1.033a1.705 1.705 0 0 0-.35.086c-.396.144-.75.01-1.087-.176-.24-.13-.256-.233-.193-.62.055-.006.112-.01.17-.018.038-.004.075-.013.114-.02.095-.122-.06-.222-.028-.345.082-.143.225-.188.348-.092.177.137.343.18.555.104.092-.033.198-.03.298-.03.648 0 1.222-.183 1.678-.665.055-.058.123-.102.187-.15.016-.012.037-.016.053-.02.12-.02.162.107.258.13.03-.02.078-.037.088-.066.117-.35.144-.707.088-1.07a5.052 5.052 0 0 1-.043-.96c.027-.762.05-1.523.077-2.285.01-.26.033-.512.1-.77.113-.436.013-.87-.123-1.303-.443-.117-.884-.135-1.322-.153-.742-.032-1.484-.036-2.226-.077-.42-.023-.838.097-1.255-.008-.016-.004-.037.01-.056.017-.58.235-1.188.156-1.786.16-1.062.01-2.127-.033-3.19.038-.138.01-.28-.007-.418-.036-.597-.12-1.2-.082-1.8-.07-.536.01-.81.264-.888.787-.043.298-.074.59.03.892.08.23.06.474-.013.607-.147.203-.275.17-.392.184-.118.013-.214.12-.393.065-.282-.153-.372-.454-.37-.788.007-.617-.04-1.24.233-1.827-.523-.18-1.056.036-1.54-.14-.04-.242.105-.412.053-.595.53-.328 1.116-.287 1.628-.44.066-.204-.085-.282-.15-.394a1.616 1.616 0 0 1 .117-1.796c.084-.11.15-.236.228-.352.066-.1.13-.204.208-.294.162-.187.394-.25.532-.158.153.102.228.396.145.602-.03.073-.078.14-.117.21-.266.486-.086.936.13 1.374.04.08.14.15.227.185.24.093.39.27.49.47.18.072.34.063.53.03.18-.53.586-.922.96-1.33.362-.393.704-.825 1.207-1.034.1-.148-.06-.28.014-.418.06-.115.16-.177.255-.248.115-.085.194-.2.267-.32.094-.155.195-.305.297-.454.125-.18.287-.27.512-.18.286-.41.586-.782.834-1.197.194-.325.43-.63.686-.912.59-.655 1.227-1.27 1.77-1.967.11-.14.26-.252.4-.36.195-.147.382-.277.33-.58-.018-.09.09-.213.16-.31.293-.41.648-.763 1.032-1.088.187-.16.338-.338.45-.556a7.487 7.487 0 0 1 1.535-1.994c.246-.232.48-.48.653-.79-.24-.402-.767-.46-.955-.88-.734.1-1.428-.044-2.077-.03-.195-.162-.005-.302-.076-.44-.124-.036-.258-.068-.388-.114-.072-.025-.078-.158-.018-.206.18-.14.392-.21.604-.26 1.01-.23 1.993-.215 2.9.37.05.034.107.055.16.078.02.007.04.008.06.01.125-.027.144-.13.15-.228.03-.32.05-.64.072-.96.02-.28.063-.315.366-.306.04 0 .08.016.118.014.352-.02.432.02.522.287.02.057.046.12.04.175-.045.438.142.876-.026 1.297.138.12.247.047.344-.015.082-.053.145-.137.22-.2.482-.412 1.058-.562 1.672-.555.302.004.592.11.823.324.21.192.228.39.065.638l-.134.2c-.08.114-.194.14-.316.1a2.42 2.42 0 0 1-.332-.14.933.933 0 0 0-.704-.05c-.516.16-.917.486-1.24.91zm.462 9.23c.01.06-.028.112-.092.116-.12.008-.17-.07-.17-.178-.003-.057.018-.108.083-.128.114.01.16.094.18.19zm4.997 6.642c-.024.02-.05.06-.074.06-.062-.003-.1-.05-.093-.11.002-.024.047-.058.072-.06.065 0 .094.047.095.11zm-3.068-20.35c.023.02.044.075.033.102-.022.065-.092.08-.143.05-.097-.06-.184-.136-.35-.264.256 0 .365.043.46.113zm-8.99.326a3.11 3.11 0 0 1 1.03-.477c.157-.04.324-.052.468.032.188.11.387.11.582.066a.95.95 0 0 1 .75.107c.223.137.317.346.368.588.003.01.032.014.08.033.23-.125.42-.332.618-.52.348-.333.686-.674 1.03-1.008.16-.156.327-.27.58-.255.196.012.348.065.478.2.306.318.618.627.91.955.11.124.23.215.373.292a.617.617 0 0 1 .176.154c.086.11.013.306-.116.345a.67.67 0 0 1-.413-.01c-.074-.026-.162-.053-.21-.108-.162-.187-.436-.074-.6-.237-.156-.155-.308-.314-.466-.467-.024-.024-.073-.023-.136-.04-.21.25-.422.513-.647.765-.224.25-.547.41-.674.777-.27-.008-.525-.013-.78-.025-.205-.01-.4-.075-.56-.197-.37-.28-.794-.37-1.24-.39-.207-.007-.386-.058-.5-.187-.342-.01-.514.31-.753.203-.22-.1-.443.064-.668-.09-.01-.233.156-.39.32-.507zm-3.062 3.29c.162.07.338.13.47.314-.07.167-.16.27-.313.336a1.61 1.61 0 0 1-.646-.365c.184-.338.26-.386.488-.285zm-2.44 6.697c.03-.036.09-.045.138-.065l.037.094c-.02.062-.063.092-.123.083-.068-.008-.094-.063-.052-.112zm-4.207-.966c.113-.08.244-.135.37-.193a.57.57 0 0 1 .387-.055c.002-.006.006-.01.01-.015l.007-.017c-.012-.095-.045-.2.123-.267l-.123.268c0 .012.003.023.003.035l-.02-.004c-.028.048-.058.094-.09.137-.273.37-.63.407-1.047.28.088-.188.267-.09.38-.17zm-1.536-3.902c.016-.04.032-.02.014.042-.004.016.01.037.014.055h-.002c0 .005.004.01.004.013a1.145 1.145 0 0 0-.054.007.144.144 0 0 0 .05-.02c-.014-.034-.036-.07-.026-.097zm-2.094 10.878c-.094-.06-.09-.14-.095-.214-.006-.097-.018-.196.06-.278.13.007.142.11.155.202.02.12-.01.226-.12.29zm1.286 6.966c-.033-.008-.064-.01-.09-.015-.018-.002-.032-.007-.038-.017-.262-.425-.535-.843-.696-1.32-.04-.118-.072-.23-.05-.352a.538.538 0 0 1 .144-.26c.29.576.427 1.187.983 1.54l-.254.423zm-.08-2.678c-.4-.287-.69-.67-.912-1.103a.326.326 0 0 1-.013-.295c.126-.124.255-.046.382.003.118.046.19-.004.234-.114-.024-.168-.2-.084-.282-.164-.093-.09-.157-.226-.085-.315.413-.51.714-1.108 1.21-1.555.178-.162.352-.33.482-.59-.1-.313-.093-.67-.047-1.028.064-.5.18-.976.57-1.345.246-.232.41-.542.697-.742.407-.284.862-.418 1.348-.472.284-.032.56.004.823.122.505.224.935.537 1.24 1.007.02-.02.036-.038.056-.056-.073-.04-.14-.132-.182-.278a2.248 2.248 0 0 1-.077-.407c-.013-.135.076-.248.19-.26.133-.017.227.04.292.157.08.146.1.3.074.455l-.004.047a44.086 44.086 0 0 0 2.486-2.64c.576-.67 1.112-1.372 1.665-2.06.213-.265.44-.517.676-.763.283-.296.572-.604.662-1.048.04-.204.208-.385.333-.565.204-.295.42-.582.643-.886l-.477-.475c-.153-.155-.305-.316-.463-.47-.527-.51-.728-1.134-.653-1.854.055-.54.176-1.067.438-1.55.062-.114.108-.27.32-.262.06.407-.278.77-.164 1.287.276-.506.297-1.047.714-1.354.13.066.172.158.144.262-.047.173-.097.35-.172.51-.312.67-.225 1.34.028 1.987.162.413.493.724.89.944.05.028.114.034.172.05.12.037.225.09.247.23.02.127-.06.234-.233.303-.088.036-.2.005-.266.102-.02.087.022.153.1.23.203.036.31-.222.5-.228.075.078.08.162.05.233-.046.11-.106.216-.175.314-1.025 1.485-2.025 2.99-3.117 4.427-.34.447-.702.875-1.05 1.316-.08.1-.176.18-.303.164-.244-.027-.394.084-.446.305-.06.247-.218.428-.364.615-.434.553-.872 1.1-1.256 1.69-.13.2-.265.404-.487.51-.21.016-.187-.238-.337-.283.02.05.053.102.058.154.015.16.042.343-.118.438-.2.118-.34-.048-.47-.167-.132-.123-.245-.264-.366-.397-.122-.133-.24-.27-.365-.4a1.107 1.107 0 0 0-.58-.33c.007.016.012.033.02.048-.18.048-.292.03-.346-.057-.025.003-.05.004-.076.01-.06.01-.118.035-.177.03-.35-.03-.652.025-.913.31-.124.134-.353.17-.565.266-.1.094-.132.25-.15.41-.04.36-.05.72-.003 1.08.014.1.07.198.016.294-.167.29-.027.49.216.63-.083.413-.364.615-.62.832-.322.27-.655.53-.976.803-.18.154-.368.31-.468.577.22.376.582.624.924.894.125.1.264.182.387.284.08.067.108.165.047.305-.325.08-.68.11-1.034.11-.204 0-.38-.12-.545-.238zm6.382 8.095c-.02.022-.07.04-.097.03-.115-.04-.183-.125-.24-.272.208-.03.308.01.353.14.01.03.004.078-.015.102zm1.176 1.02c-.025-.017-.038-.054-.057-.083l.05-.008c.033.023.08.04.09.07.01.03-.04.05-.083.022zm21.415-3.06c-.093.01-.18-.09-.17-.188.006-.064.05-.1.11-.116.09-.006.178.09.168.19-.006.06-.045.108-.11.114zm1.96-7.045c-.206-.01-.33.103-.447.252a8.355 8.355 0 0 1-2.19 1.954c-.23.144-.337.32-.345.584-.014.416-.2.795-.42 1.113-.227.324-.518.662-.995.672a1.105 1.105 0 0 0-.755.326c-.233.223-.497.232-.78.12-.466-.188-.922-.394-1.304-.73-.4-.356-.662-.8-.79-1.322-.02-.094-.032-.192-.056-.33-.544.06-1.084-.097-1.59.148-.107.098-.1.222-.11.34-.03.3-.056.6-.096.898-.034.256-.143.516-.115.76.024.222.275.386.215.63.435.077.435.077.803-.072.138.05.067.286.263.288.133-.022.087-.225.258-.244.38.07.58.4.742.705.237.438.4.91.385 1.435-.013.397-.106.767-.322 1.077-.184.268-.325.55-.47.836-.188.376-.466.628-.866.784-1.164.455-1.038.446-2.488-.027-.185.105-.287.31-.428.472-.13.15-.25.312-.377.47l-.562.703a.508.508 0 0 1-.29.202c-.077.017-.144.024-.224-.02-.213-.11-.217-.102-.53-.045.103.182.447.3.14.605a1.187 1.187 0 0 1-.32-.115c-.082.012-.17.013-.262.016-.04-.008-.105-.008-.15-.037a.254.254 0 0 1-.1-.134.174.174 0 0 1 .04-.177c-.02-.018-.04-.033-.058-.05-.228-.195-.445-.407-.497-.73-.028-.186-.127-.313-.283-.436-.234-.182-.427-.415-.617-.608-.21-.037-.34.072-.482.136-.226.1-.46.167-.702.122-.63-.118-1.27-.176-1.87-.425a1.737 1.737 0 0 1-.504-.322c-.127-.115-.228-.27-.195-.422.066-.312-.078-.544-.207-.79-.056-.108-.098-.222-.155-.328-.1-.188-.105-.366-.032-.575.094-.262.135-.543.2-.815.025-.1.07-.21.18-.218.267-.02.304-.21.352-.413.11-.474.42-.77.882-.886.542-.135 1.09-.25 1.625-.135.122-.048.13-.132.13-.208.017-.52.034-1.043.04-1.564.004-.43-.124-.56-.57-.598-.18-.016-.36-.018-.542-.025-.62-.024-1.24-.048-1.86-.148-.31-.05-.64-.03-.96-.01-.442.033-.88.02-1.318-.055a3.754 3.754 0 0 0-1.197-.03c-.458.07-.92.046-1.384.042-.22-.003-.442-.035-.64.058-.157.107-.127.305-.258.43-.045.002-.105.015-.16.002-.12-.025-.194.023-.238.127-.042.098.028.135.104.176.108.06.1.165.074.263-.047.183-.175.31-.313.43-.477.41-1.05.58-1.652.664-.264.036-.52-.028-.766-.124-.69-.268-1.2-.718-1.387-1.464a6.422 6.422 0 0 1-.13-.646c-.017-.115.004-.236.007-.316.094-.1.174-.106.278-.11.2-.423.32-.917.79-1.224.083.254.004.436-.09.61-.155.293-.192.612-.21.933-.02.348.12.6.44.783.556.315 1.155.44 1.775.523.197-.354.39-.702.586-1.048.082-.14.126-.29.155-.45.043-.236.1-.468.158-.727.243-.028.42.145.644.127.34-.025.68-.03 1.01-.12.335-.09.674-.11 1.016-.09.44.022.877.085 1.32.06.245-.013.495.04.674.216.254.25.558.246.838.148.49-.17.99-.186 1.48-.115a6.216 6.216 0 0 0 1.68-.005 6.29 6.29 0 0 1 1.49.013c.105.107.084.22 0 .323-.073.093-.162.173-.244.26.37.367.365.368.427.873.092.767.038 1.52-.21 2.254-.08.234-.064.475-.085.713-.02.223-.188.328-.377.22-.732-.412-1.353-.106-1.943.31-.227.158-.408.382-.617.584-.056.102-.046.222-.048.342-.018.866.382 1.454 1.183 1.765.3.116.605.215.913.303a.45.45 0 0 0 .444-.094c.288-.238.3-.225.613-.016.05.032.1.063.157.102.196-.094.054-.35.214-.447.067-.034.137-.023.17.024.29.406.668.742.92 1.184.16.28.4.497.747.598.367-.186.577-.54.825-.843.252-.31.53-.602.695-.934.19-.137.427.13.563-.145.04-.08.183-.034.282-.01.39.097.78.183 1.168.282.374.098.655-.008.9-.31.312-.382.556-.782.584-1.29.01-.18.04-.357.06-.546-.098-.126-.217-.24-.288-.38-.28-.56-.792-.742-1.347-.75-.478-.006-.69-.236-.824-.632a2.35 2.35 0 0 1-.116-.83c.015-.58.038-1.163.06-1.744.017-.402.058-.8.245-1.185.143-.11.22.127.363.093.116-.04.04-.187.19-.29.042-.014.152-.075.267-.088.778-.09 1.557-.18 2.332.033.327.09.362.1.376.438.023.55.25 1 .593 1.413.228.272.5.46.842.55.192.05.39.09.592.135l.982-.704c.17-.122.286-.273.316-.49a1.29 1.29 0 0 1 .1-.346c.117-.258.117-.5-.048-.74a.37.37 0 0 1-.03-.4c.19-.11.268.143.466.125.087-.182.282-.283.465-.4.46-.296.882-.632 1.213-1.07.11-.147.226-.27.435-.283.162-.01.295-.108.352-.306-.067-.035-.133-.085-.205-.104-.288-.076-.493-.26-.663-.493a2.803 2.803 0 0 0-.644-.623c-.24-.173-.438-.408-.65-.62-.11-.11-.123-.25-.1-.394.037-.235.083-.47.124-.697-.52-.447-.555-.49-.907-1.182-.045-.088-.085-.18-.13-.27a1.037 1.037 0 0 0-.684-.548c-.25-.066-.503-.13-.75-.21-.09-.03-.165-.1-.253-.157-.044.06-.077.14-.14.182-.448.292-.646.764-.84 1.22-.257.614-.316 1.244.132 1.823.084.11.167.23.103.384-.146.12-.308.09-.455.026-.212-.092-.425-.083-.647-.08-.862.005-1.725-.005-2.588-.012-.078 0-.162 0-.218-.08-.074-.167.19-.14.183-.163-.047-.334-.077-.553-.11-.77-.01-.08-.004-.178-.048-.233-.256-.313-.21-.68-.2-1.037.03-1.084.017-2.164-.09-3.247-.08-.817-.036-1.646.04-2.465.076-.822.044-1.644.033-2.466-.005-.38-.003-.762.007-1.143.003-.136.006-.283.136-.387.324.133.194.506.38.708.128.038.186-.04.222-.14.043-.114.066-.238-.028-.338-.08-.085-.208-.13-.242-.255a.155.155 0 0 1 .012-.114c.018-.03.058-.055.093-.062s.083-.003.116.013c.37.184.692.013 1.013-.143.144-.07.268-.183.413-.244.71-.298 1.015-.865 1.086-1.592.008-.08.002-.16.012-.24.02-.17.13-.213.296-.128.204.104.288.077.327-.116.012-.057.002-.12 0-.18-.003-.093.05-.15.13-.176.12-.04.193.05.24.133.037.064.062.167.036.23-.146.356-.124.744-.23 1.11-.07.25-.147.487-.29.714-.403.647-.955 1.117-1.624 1.47-.23.122-.375-.038-.555-.093-.072.2-.128.402-.354.505-.145.066-.186.21-.126.358.16.406.127.826.108 1.248-.02.5-.057 1.005-.032 1.504.043.863-.045 1.722-.056 2.583-.005.324.028.64.11.953.11.41.162.825.18 1.247.02.5.046 1 .075 1.502.02.363.107.444.48.47.08.006.163.016.24.004.178-.03.353-.073.502-.104a.362.362 0 0 0 .12-.352c-.04-.27.04-.515.153-.754.232-.488.466-.97.835-1.383.315-.353.646-.44 1.086-.208.458-.236.947-.22 1.438-.043.3.11.6.223.903.33.386.134.623.42.804.77.065.123.096.27.178.38.333.443.44.935.334 1.45.187.308.4.543.633.765.39.375.726.8 1.116 1.18.333.32.482.77.672 1.154-.047.145-.122.21-.232.206zm-8.81-4.485c-.078.13-.132.284-.303.347-.1-.13-.1-.286-.13-.43-.02-.082.024-.153.096-.197.092-.057.254-.024.32.062.053.07.058.145.016.217zm9.25-6.29c-.11-.01-.17-.087-.177-.192a.097.097 0 0 1 .116-.1c.116.023.14.117.132.22-.024.027-.05.075-.07.072zm.675 6.146c-.014.002-.04-.015-.045-.028-.044-.108.02-.186.085-.258.01-.012.035-.01.09-.026.013.06.02.08.02.1-.013.096-.025.195-.15.213z"/><path fill="#FFF" d="M111.794 25.71c.016.002.03 0 .045-.01-.03.02-.06.008-.093-.012a.14.14 0 0 0 .047.02z"/><path fill="none" stroke="#8AC8EC" stroke-width="0" stroke-linecap="round" stroke-linejoin="round" d="M111.84 25.7a.056.056 0 0 1-.046.01"/><path fill="#FFF" d="M123.83 24.88c-.15.032-.233.153-.32.258-.353.433-.717.858-1.004 1.342a3.047 3.047 0 0 1-.544.708c-.275.255-.427.604-.475.98.14.084.253.11.364.032.084-.057.16-.122.267-.126.48-.02.958 0 1.427.12.04.01.09.09.086.13-.006.047-.06.118-.105.127-.135.028-.274.03-.413.044-.106.01-.19.045-.183.207.272.023.546.05.86-.02.104-.227.068-.43.074-.626.027-.958.055-1.917.077-2.876.003-.106.053-.247-.11-.3zM115.155 26.73l.013.004-.006-.01z"/><path fill="#FFF" d="M126.34 21.724c.01-.14.013-.28.017-.42.008-.32.067-.65.013-.96-.1-.567-.044-1.116.04-1.672.03-.197.035-.4.04-.6.002-.072.014-.165-.095-.197-.108.008-.173.087-.23.166-.188.26-.37.524-.558.784-.104.146-.19.323-.33.422-.42.3-.692.72-.998 1.115-.223.285-.43.582-.705.82-.08.07-.17.108-.273-.01.187-.436.562-.762.797-1.254-.226.002-.275.122-.347.213-.42.534-.842 1.068-1.258 1.605a.81.81 0 0 0-.166.314c-.058.29-.242.5-.42.716-.14.17-.29.333-.436.5-.065.075-.157.16-.13.257.063.237-.085.38-.207.532a22.103 22.103 0 0 1-1.562 1.747c-.282.286-.602.524-.92.764-.096.07-.234.156-.21.273.06.298-.103.497-.256.705-.56.757-1.17 1.477-1.654 2.29-.103.173-.252.24-.46.168-.092-.03-.2-.006-.215.152.16.017.317.042.474.05.177.01.278.15.42.22a.284.284 0 0 0 .114.03c.658.026 1.317.157 1.974-.01.274-.07.55-.102.832-.055.137.022.282.025.42.01.98-.114 1.952.21 2.93.03.197.1.385.02.575-.025.115-.028.235-.065.353-.063.39.006.808-.088 1.06.267.525.05.92-.254 1.38-.277.15-.45.172-.88.087-1.323-.126-.653-.132-1.314-.083-1.976.008-.12.008-.26.07-.35.172-.25.158-.528.16-.806.013-1.18.022-2.36.032-3.603-.27-.063-.3-.295-.28-.55zm-1.89 7.866c-.02-.006-.05-.067-.042-.085.047-.095.13-.14.232-.108.02.007.027.063.04.098-.04.113-.13.125-.23.095zm.502-2.796c-.01.12-.005.262-.068.35-.19.256-.134.53-.107.808.042.417.035.833-.03 1.242-.373.157-.655.07-.875-.19-1.41.21-2.81.277-4.208.347-.097.006-.197-.018-.3-.143.034-.242.153-.43.266-.616a8.95 8.95 0 0 1 .49-.754c.462-.63.98-1.215 1.402-1.876.116-.183.293-.328.44-.49.08-.088.18-.168.233-.27.256-.486.62-.887.99-1.28.276-.295.525-.605.706-.97.17-.337.46-.604.574-.98.022-.077.14-.126.23-.202.043.075.087.12.095.17.238 1.612.283 3.23.162 4.856zM126.99 16.184l.012-.015-.012.014zM130.822 17.86c.002 0 .004 0 .006.002l.006-.017-.012.015zM111.725 25.697h-.002c-.015.148-.137.21-.24.284.104-.072.228-.136.242-.283z"/></g></svg>