<svg version="1.1" id="Layer_1" xmlns="http://www.w3.org/2000/svg" x="0" y="0" width="836.503" height="288.091" viewBox="0 0 836.503 288.091" xml:space="preserve"><g opacity=".5" fill="none" stroke-miterlimit="10"><g opacity=".3"><path stroke="#CCC" d="M0 257l52.28-62.738L104.564 257"/><path stroke="#F2F2F2" d="M0 277.914l52.28-62.74 52.283 62.74"/><path stroke="#CCC" d="M0 298.826l52.28-62.74 52.283 62.74"/><path stroke="#F2F2F2" d="M0 319.74L52.28 257l52.283 62.74"/><path stroke="#CCC" d="M104.563 257l52.28-62.738L209.127 257"/><path stroke="#F2F2F2" d="M104.563 277.914l52.28-62.74 52.283 62.74"/><path stroke="#CCC" d="M104.563 298.826l52.28-62.74 52.283 62.74"/><path stroke="#F2F2F2" d="M104.563 319.74l52.28-62.74 52.283 62.74"/><path stroke="#CCC" d="M209.126 257l52.28-62.738L313.69 257"/><path stroke="#F2F2F2" d="M209.126 277.914l52.28-62.74 52.282 62.74"/><path stroke="#CCC" d="M209.126 298.826l52.28-62.74 52.282 62.74"/><path stroke="#F2F2F2" d="M209.126 319.74l52.28-62.74 52.282 62.74"/><path stroke="#CCC" d="M313.688 257l52.282-62.738L418.25 257"/><path stroke="#F2F2F2" d="M313.688 277.914l52.282-62.74 52.28 62.74"/><path stroke="#CCC" d="M313.688 298.826l52.282-62.74 52.28 62.74"/><path stroke="#F2F2F2" d="M313.688 319.74L365.97 257l52.28 62.74"/><path stroke="#CCC" d="M418.25 257l52.283-62.738L522.813 257"/><path stroke="#F2F2F2" d="M418.25 277.914l52.283-62.74 52.28 62.74"/><path stroke="#CCC" d="M418.25 298.826l52.283-62.74 52.28 62.74"/><path stroke="#F2F2F2" d="M418.25 319.74L470.534 257l52.28 62.74"/><path stroke="#CCC" d="M522.814 257l52.282-62.738L627.376 257"/><path stroke="#F2F2F2" d="M522.814 277.914l52.282-62.74 52.28 62.74"/><path stroke="#CCC" d="M522.814 298.826l52.282-62.74 52.28 62.74"/><path stroke="#F2F2F2" d="M522.814 319.74L575.096 257l52.28 62.74"/><path stroke="#CCC" d="M627.377 257l52.28-62.738L731.94 257"/><path stroke="#F2F2F2" d="M627.377 277.914l52.28-62.74 52.283 62.74"/><path stroke="#CCC" d="M627.377 298.826l52.28-62.74 52.283 62.74"/><path stroke="#F2F2F2" d="M627.377 319.74l52.28-62.74 52.283 62.74"/><path stroke="#CCC" d="M731.94 257l52.282-62.738L836.502 257"/><path stroke="#F2F2F2" d="M731.94 277.914l52.282-62.74 52.28 62.74"/><path stroke="#CCC" d="M731.94 298.826l52.282-62.74 52.28 62.74"/><path stroke="#F2F2F2" d="M731.94 319.74L784.222 257l52.28 62.74"/></g><g opacity=".3"><path stroke="#CCC" d="M36 225l52.28-62.738L140.564 225"/><path stroke="#F2F2F2" d="M36 245.914l52.28-62.74 52.283 62.74"/><path stroke="#CCC" d="M36 266.826l52.28-62.74 52.283 62.74"/><path stroke="#F2F2F2" d="M36 287.74L88.28 225l52.283 62.74"/><path stroke="#CCC" d="M140.563 225l52.28-62.738L245.127 225"/><path stroke="#F2F2F2" d="M140.563 245.914l52.28-62.74 52.283 62.74"/><path stroke="#CCC" d="M140.563 266.826l52.28-62.74 52.283 62.74"/><path stroke="#F2F2F2" d="M140.563 287.74l52.28-62.74 52.283 62.74"/><path stroke="#CCC" d="M245.126 225l52.28-62.738L349.69 225"/><path stroke="#F2F2F2" d="M245.126 245.914l52.28-62.74 52.282 62.74"/><path stroke="#CCC" d="M245.126 266.826l52.28-62.74 52.282 62.74"/><path stroke="#F2F2F2" d="M245.126 287.74l52.28-62.74 52.282 62.74"/><path stroke="#CCC" d="M349.688 225l52.282-62.738L454.25 225"/><path stroke="#F2F2F2" d="M349.688 245.914l52.282-62.74 52.28 62.74"/><path stroke="#CCC" d="M349.688 266.826l52.282-62.74 52.28 62.74"/><path stroke="#F2F2F2" d="M349.688 287.74L401.97 225l52.28 62.74"/><path stroke="#CCC" d="M454.25 225l52.283-62.738L558.813 225"/><path stroke="#F2F2F2" d="M454.25 245.914l52.283-62.74 52.28 62.74"/><path stroke="#CCC" d="M454.25 266.826l52.283-62.74 52.28 62.74"/><path stroke="#F2F2F2" d="M454.25 287.74L506.534 225l52.28 62.74"/><path stroke="#CCC" d="M558.814 225l52.282-62.738L663.376 225"/><path stroke="#F2F2F2" d="M558.814 245.914l52.282-62.74 52.28 62.74"/><path stroke="#CCC" d="M558.814 266.826l52.282-62.74 52.28 62.74"/><path stroke="#F2F2F2" d="M558.814 287.74L611.096 225l52.28 62.74"/><path stroke="#CCC" d="M663.377 225l52.28-62.738L767.94 225"/><path stroke="#F2F2F2" d="M663.377 245.914l52.28-62.74 52.283 62.74"/><path stroke="#CCC" d="M663.377 266.826l52.28-62.74 52.283 62.74"/><path stroke="#F2F2F2" d="M663.377 287.74l52.28-62.74 52.283 62.74"/><path stroke="#CCC" d="M767.94 225l52.282-62.738L872.502 225"/><path stroke="#F2F2F2" d="M767.94 245.914l52.282-62.74 52.28 62.74"/><path stroke="#CCC" d="M767.94 266.826l52.282-62.74 52.28 62.74"/><path stroke="#F2F2F2" d="M767.94 287.74L820.222 225l52.28 62.74"/></g><g opacity=".3"><path stroke="#CCC" d="M-800 225l52.28-62.738L-695.436 225"/><path stroke="#F2F2F2" d="M-800 245.914l52.28-62.74 52.283 62.74"/><path stroke="#CCC" d="M-800 266.826l52.28-62.74 52.283 62.74"/><path stroke="#F2F2F2" d="M-800 287.74l52.28-62.74 52.283 62.74"/><path stroke="#CCC" d="M-695.437 225l52.28-62.738L-590.873 225"/><path stroke="#F2F2F2" d="M-695.437 245.914l52.28-62.74 52.283 62.74"/><path stroke="#CCC" d="M-695.437 266.826l52.28-62.74 52.283 62.74"/><path stroke="#F2F2F2" d="M-695.437 287.74l52.28-62.74 52.283 62.74"/><path stroke="#CCC" d="M-590.874 225l52.28-62.738L-486.31 225"/><path stroke="#F2F2F2" d="M-590.874 245.914l52.28-62.74 52.282 62.74"/><path stroke="#CCC" d="M-590.874 266.826l52.28-62.74 52.282 62.74"/><path stroke="#F2F2F2" d="M-590.874 287.74l52.28-62.74 52.282 62.74"/><path stroke="#CCC" d="M-486.312 225l52.282-62.738L-381.75 225"/><path stroke="#F2F2F2" d="M-486.312 245.914l52.282-62.74 52.28 62.74"/><path stroke="#CCC" d="M-486.312 266.826l52.282-62.74 52.28 62.74"/><path stroke="#F2F2F2" d="M-486.312 287.74L-434.03 225l52.28 62.74"/><path stroke="#CCC" d="M-381.75 225l52.283-62.738 52.28 62.738"/><path stroke="#F2F2F2" d="M-381.75 245.914l52.283-62.74 52.28 62.74"/><path stroke="#CCC" d="M-381.75 266.826l52.283-62.74 52.28 62.74"/><path stroke="#F2F2F2" d="M-381.75 287.74l52.283-62.74 52.28 62.74"/><path stroke="#CCC" d="M-277.186 225l52.282-62.738 52.28 62.738"/><path stroke="#F2F2F2" d="M-277.186 245.914l52.282-62.74 52.28 62.74"/><path stroke="#CCC" d="M-277.186 266.826l52.282-62.74 52.28 62.74"/><path stroke="#F2F2F2" d="M-277.186 287.74l52.282-62.74 52.28 62.74"/><path stroke="#CCC" d="M-172.623 225l52.28-62.738L-68.06 225"/><path stroke="#F2F2F2" d="M-172.623 245.914l52.28-62.74 52.283 62.74"/><path stroke="#CCC" d="M-172.623 266.826l52.28-62.74 52.283 62.74"/><path stroke="#F2F2F2" d="M-172.623 287.74l52.28-62.74 52.283 62.74"/><path stroke="#CCC" d="M-68.06 225l52.282-62.738L36.502 225"/><path stroke="#F2F2F2" d="M-68.06 245.914l52.282-62.74 52.28 62.74"/><path stroke="#CCC" d="M-68.06 266.826l52.282-62.74 52.28 62.74"/><path stroke="#F2F2F2" d="M-68.06 287.74L-15.778 225l52.28 62.74"/></g><path stroke="#000" d="M124.446-108.5L103.233-145l21.213-36.5h42.427l21.212 36.5-21.212 36.5z"/><path stroke="#000" d="M140.66-101.5l-25-43.5 25-43.5h50l25 43.5-25 43.5z"/><path stroke="#000" d="M124.446-108.5L103.233-145l21.213-36.5h42.427l21.212 36.5-21.212 36.5z"/><path stroke="#000" d="M140.66-101.5l-25-43.5 25-43.5h50l25 43.5-25 43.5z"/></g></svg>