<?xml version="1.0" encoding="utf-8"?>
<!-- Generator: Adobe Illustrator 16.0.0, SVG Export Plug-In . SVG Version: 6.00 Build 0)  -->
<!DOCTYPE svg PUBLIC "-//W3C//DTD SVG 1.1//EN" "http://www.w3.org/Graphics/SVG/1.1/DTD/svg11.dtd">
<svg version="1.1" id="Layer_1" xmlns="http://www.w3.org/2000/svg" xmlns:xlink="http://www.w3.org/1999/xlink" x="0px" y="0px"
	 width="486px" height="273px" viewBox="0 0 486 273" enable-background="new 0 0 486 273" xml:space="preserve">
<g>
	<path fill-rule="evenodd" clip-rule="evenodd" fill="#FFFFFF" d="M97.883,217.211c0.603,2.046,1.3,4.069,1.771,6.146
		c0.254,1.118,0.636,2.759,0.079,3.416c-2.46,2.897-1.356,4.676,0.522,7.506c0.722,1.086,0.252,3.69,2.481,4.686
		c-0.334,0.374-0.889,0.708-0.965,1.131c-0.5,2.764-0.473,5.704-1.432,8.286c-1.287,3.464,2.919,7.457-1.496,10.566
		c-3.702,2.607-15.184,3.062-18.816,0.325c-0.779-0.587-1.593-1.374-2.483-1.527c-4.709-0.804-5.304-3.679-4.921-7.904
		c0.75-8.268,0.794-16.597,1.429-24.878c0.551-7.201,1.732-14.356,2.243-21.56c0.713-10.062,0.727-20.184,1.698-30.216
		c0.536-5.531,2.513-10.914,3.616-16.408c0.219-1.091-1.053-2.477-0.839-3.571c1.109-5.668,2.393-11.306,3.776-16.914
		c1.686-6.832,3.842-13.561,5.23-20.447c1.736-8.608,3.223-17.298,4.165-26.023c0.453-4.187-0.504-8.548-1.087-12.792
		c-0.063-0.463-2.171-1.264-2.849-0.931c-8.168,4.021-12.295,11.572-16.283,19.183c-4.88,9.314-9.86,18.583-14.361,28.078
		c-0.825,1.742,0.501,4.463,0.684,6.743c0.062,0.763-0.418,1.553-0.525,2.347c-0.234,1.739-0.383,3.49-0.576,5.234
		c-0.255,2.304-0.518,4.607-0.779,6.911c-0.111,0.976-0.257,1.947-0.333,2.926c-0.432,5.608-0.932,11.214-1.24,16.829
		c-0.214,3.902-0.405,7.842-0.063,11.715c0.098,1.109,2.097,2.041,3.209,3.071c0.668,0.618,1.306,1.271,1.958,1.907
		c-0.793,0.287-1.734,0.396-2.343,0.902c-0.849,0.709-1.981,1.684-2.036,2.602c-0.091,1.534,1.188,3.286,0.806,4.64
		c-1.117,3.95-2.809,7.735-4.175,11.621c-0.208,0.59-0.048,1.444,0.229,2.042c0.781,1.684,1.738,3.28,2.577,4.937
		c1.211,2.393,0.806,3.224-1.523,3.418c-0.355,0.029-0.993,0.526-0.964,0.73c0.508,3.519,0.522,7.26,1.823,10.475
		c1.579,3.901,1.119,8.242-2.256,10.793c-0.553,0.418-1.117,1.3-1.086,1.941c0.32,6.844-5.009,9.299-9.544,12.248
		c-5.511,3.584-21.102,1.089-25.208-3.95c-0.557-0.683-0.91-1.944-0.7-2.77c0.99-3.891,2.54-7.66,3.277-11.588
		c1.35-7.194,2.175-14.483,3.391-21.703c1.498-8.893,3.245-17.742,4.753-26.634c1.913-11.27,3.657-22.567,5.543-33.842
		c1.799-10.757,3.772-21.485,5.492-32.254c0.61-3.82,0.49-7.757,1.07-11.585c1.106-7.305,2.243-14.623,3.85-21.827
		c0.649-2.909-0.76-2.874-2.102-1.922c-2.468,1.75-5.135,3.718-6.64,6.239c-5.025,8.419-9.585,17.117-14.29,25.728
		c-0.568,1.04-0.839,2.243-1.416,3.276c-0.702,1.262-1.583,2.424-2.386,3.629c-1.975-1.47-4.107-2.786-5.812-4.521
		c-0.42-0.429,0.25-2.45,0.93-3.356c8.368-11.153,16.524-22.493,25.506-33.134c2.016-2.389,7.01-3.102,10.621-3.071
		c3.707,0.032,4.708,3.7,5.334,7.143c1.244,6.844,2.806,13.63,4.26,20.436c0.098,0.461,0.392,0.88,0.595,1.318
		c0.362-0.371,0.774-0.706,1.078-1.119c5.808-7.91,10.945-16.45,17.626-23.535c4.637-4.917,11.243-8.11,17.316-11.442
		c1.458-0.799,4.27,1.032,6.499,1.44c3.38,0.62,1.914,2.751,2.008,4.842c0.717,15.752,2.489,31.499,2.33,47.232
		c-0.09,8.942-2.846,17.94-5.052,26.752c-1.762,7.038-5.594,14.099-3.144,21.212c2.655,7.711-0.8,14.949-0.178,22.481
		c0.24,2.904,1.611,2.503,2.411,3.64c0.209,0.298,0.369,0.631,0.55,0.948c-0.414-0.011-0.829-0.055-1.24-0.028
		c-1.497,0.095-2.992,0.213-4.488,0.323c1.275,1.958-1.509,5.849,3.099,6.372c0.53,0.061,1.23,2.083,1.172,3.158
		c-0.14,2.553-0.727,5.076-1.056,7.622c-0.187,1.438-0.224,2.896-0.328,4.344L97.883,217.211z M74.324,243.124
		c-0.213-0.284-0.433-0.579-0.652-0.872c-0.109,0.277-0.351,0.584-0.296,0.825c0.08,0.352,0.371,0.655,0.572,0.98
		C74.055,243.792,74.162,243.525,74.324,243.124z"/>
	<path fill-rule="evenodd" clip-rule="evenodd" fill="#FFFFFF" d="M199.321,171.127c-3.38-0.369-6.556,0.123-8.614-1.167
		c-2.237-1.403-3.475-4.438-5.065-6.816c-0.519-0.778-0.772-1.732-1.148-2.606c-0.624,0.677-1.412,1.264-1.834,2.049
		c-0.765,1.422-1.514,2.91-1.912,4.461c-1.692,6.586-7.07,10.156-13.833,9.294c-4.277-0.545-8.62-0.589-12.894-1.157
		c-4.245-0.563-6.503,2.251-8.432,4.998c-1.952,2.778-3.893,4.1-7.473,4.037c-8.509-0.152-17.031,0.495-25.542,0.368
		c-5.947-0.087-10.907-4.492-11.268-10.548c-0.337-5.666,0.361-11.452,1.147-17.11c0.71-5.106,1.729-10.254,3.362-15.132
		c4.006-11.967,11.601-21.884,19.889-31.067c2.653-2.939,7.792-3.543,11.638-5.521c7.694-3.954,18.255,5.088,15.207,13.742
		c-5.395,15.317-10.776,30.893-24.406,41.497c-3.092,2.407-2.995,7.145,0.614,10.45c2.629,2.406,5.145,1.2,7.546-1.337
		c2.586-2.734,5.653-5.062,8.711-7.291c7.037-5.127,7.996-12.834,9.613-20.552c1.308-6.245,3.966-12.2,5.902-18.322
		c1.56-4.936,3.004-9.91,4.374-14.903c1.494-5.448,5.522-7.227,10.531-4.512c1.346,0.729,2.911,1.241,3.962,2.274
		c1.07,1.052,2.511,2.812,2.269,3.936c-1.521,7.074-3.621,14.023-5.224,21.083c-1.322,5.82-2.312,11.723-3.239,17.622
		c-0.208,1.326,0.458,2.791,0.723,4.192c0.964-0.89,2.033-1.691,2.871-2.688c1.729-2.058,3.505-4.108,4.952-6.361
		c2.065-3.217,4.723-6.413,5.542-9.981c1.056-4.61,3.776-7.665,6.865-10.591c1.021-0.969,2.981-0.945,4.512-1.375
		c0.247,1.561,1.059,3.293,0.647,4.654c-2.441,8.066-4.755,16.092-2.34,24.592c0.155,0.545,0.711,0.978,1.08,1.463
		c0.556-0.611,1.31-1.131,1.638-1.847c3.028-6.623,6.126-13.218,8.924-19.938c3.539-8.501,6.837-17.101,10.178-25.682
		c0.425-1.091,0.309-2.397,0.758-3.474c0.55-1.316,1.144-2.988,2.233-3.626c2.049-1.198,4.316-3.38,6.813-0.224
		c1.315,1.661,3.189,2.879,4.813,4.294c3.36,2.928,5.565,0.312,7.525-1.839c4.007-4.403,7.642-9.148,11.692-13.509
		c1.933-2.081,4.261-4.074,6.811-5.183c1.279-0.557,4.022,0.457,5.087,1.659c1.337,1.511,1.368,3.656-1.757,4.198
		c-0.897,0.156-1.933,1.577-2.258,2.62c-2.856,9.161-5.476,18.398-8.352,27.553c-1.861,5.922-0.55,10.991,4.318,15.189
		c0.407,0.353,0.936,0.751,1.06,1.219c0.817,3.132,1.643,6.267,2.274,9.438c2.105,10.579,3.33,21.243,0.874,31.897
		c-0.703,3.051-3.007,5.699-3.989,8.723c-2.54,7.817-8.646,11.424-15.643,14.327c-4.196,1.739-8.741,3.33-12.699,1.188
		c-5.362-2.9-10.944-6.287-14.818-10.839c-6.288-7.389-5.51-15.331,1.605-21.254c2.527-2.104,6.988-1.885,10.566-2.725
		c0.084,0.689,0.427,1.473,0.215,2.055c-1.637,4.509-3.804,8.873-4.959,13.494c-0.945,3.775,1.125,7.504,4.867,8.017
		c2.365,0.323,5.915-1.618,7.562-3.653c4.762-5.882,5.54-13.052,6.056-20.55c0.547-7.98-3.063-14.695-4.49-22.03
		c-0.162-0.835-1.36-1.632-2.254-2.133c-4.019-2.252-5.456-4.976-3.397-9.676c2.504-5.716,4.229-11.775,6.238-17.704
		c0.212-0.624,0.078-1.367,0.104-2.055c-0.626,0.152-1.244,0.342-1.877,0.452c-8.248,1.44-7.548,9.128-9.915,14.517
		c-5.587,12.715-10.836,25.577-16.173,38.4c-0.653,1.568-0.842,3.339-1.568,4.862c-0.427,0.896-1.4,1.951-2.284,2.12
		C202.156,171.405,200.366,171.141,199.321,171.127z M143.563,117.656c-0.813-1.609-1.012-2.554-1.587-2.95
		c-0.389-0.268-1.544,0.011-1.957,0.435c-6.649,6.822-11.448,14.625-12.521,24.326c-0.045,0.402,0.044,0.819,0.071,1.23
		c0.394-0.119,0.979-0.111,1.153-0.376C133.73,132.729,138.698,125.106,143.563,117.656z"/>
	<path fill-rule="evenodd" clip-rule="evenodd" fill="#FFFFFF" d="M332.853,139.562c2.27-9.578,4.342-18.135,6.306-26.715
		c0.696-3.038,1.772-6.212,1.433-9.181c-0.201-1.75-2.687-3.417-4.424-4.761c-1.72-1.33-1.91-1.965,0.069-3.227
		c2.735-1.744,5.296-3.779,7.822-5.825c0.765-0.62,1.418-1.616,1.693-2.564c2.335-8.041,4.763-16.064,6.77-24.189
		c1.318-5.336,1.847-10.863,3.01-16.244c0.498-2.299,1.924-6.405,2.558-6.335c3.475,0.382,6.842,1.782,10.212,2.929
		c0.229,0.077,0.33,0.981,0.242,1.454c-1.112,5.97-1.382,12.296-3.646,17.8c-2.701,6.563-1.544,13.328-2.974,19.857
		c-0.133,0.603-0.068,1.249-0.095,1.874c0.698-0.083,1.396-0.209,2.098-0.243c7.741-0.377,8.718-6.046,9.996-12.034
		c1.719-8.042,3.926-16.006,6.508-23.81c0.404-1.219,4.19-2.387,5.933-1.891c4.828,1.373,6.488,7.146,4.898,12.234
		c-1.962,6.287-3.317,12.771-4.746,19.211c-0.228,1.028,0.395,3.199,0.855,3.267c2.739,0.401,7.085,1.515,8.064,0.232
		c4.359-5.71,10.408-7.679,16.743-9.02c7.838-1.659,15.794,7.962,12.569,15.468c-3.313,7.712-7.337,15.16-11.589,22.407
		c-1.549,2.639-4.697,4.319-7.044,6.514c-4.191,3.914-0.509,7.544,0.84,10.93c1.273,3.199,3.901,1.519,6.093,0.396
		c7.422-3.796,9.961-11.448,14.241-17.758c5.657-8.338,7.742-17.767,9.186-27.496c0.545-3.676,1.61-7.301,2.721-10.861
		c1.065-3.409,7.348-4.167,10.14-1.359c3.878,3.901,4.839,3.632,6.8-1.315c1.558-3.924,3.14-7.93,5.421-11.437
		c1.086-1.669,4.219-3.528,5.735-3.061c2.651,0.816,4.788,3.341,7.084,5.218c0.192,0.156,0.07,0.88-0.095,1.259
		c-1.739,4.012-3.546,7.994-5.245,12.021c-0.232,0.553,0.072,1.313,0.037,1.973c-0.116,2.177-0.145,4.371-0.443,6.525
		c-0.64,4.59-1.406,9.164-2.161,13.737c-0.409,2.482-0.976,4.94-1.337,7.427c-0.435,2.992-0.888,5.995-1.044,9.009
		c-0.326,6.243-0.45,12.497-0.678,18.745c-0.241,6.605-0.573,13.208-0.734,19.815c-0.085,3.521-0.157,7.078,0.252,10.562
		c0.383,3.261,2.715,3.604,5.633,3.022c1.949-0.39,4.048-0.026,6.079-0.001c-0.429,1.806-0.892,3.604-1.281,5.418
		c-2.233,10.39-10.091,2.736-14.996,4.601c-1.185,0.451-2.754-0.227-4.136-0.16c-9.449,0.46-14.575-4.596-13.665-13.967
		c0.883-9.072,2.973-18.103,3.032-27.161c0.103-15.406,5.893-29.661,7.718-44.665c0.131-1.081,0.279-2.194,0.151-3.261
		c-0.102-0.846-0.612-1.642-0.94-2.46c-1.104,0.74-2.85,1.264-3.188,2.263c-0.864,2.559-0.291,5.937-1.754,7.895
		c-3.742,5.009-1.488,12.301-6.778,16.591c-0.435,0.353,0.276,2.043,0.343,3.118c0.038,0.642,0.098,1.517-0.264,1.914
		c-6.478,7.148-12.838,14.421-19.67,21.218c-1.795,1.785-5.049,2.693-7.717,2.892c-6.883,0.513-14.121,1.65-20.6,0.044
		c-3.522-0.873-5.449-1.806-7.864,1.005c-0.117,0.137-0.445,0.226-0.614,0.164c-6.709-2.435-14.891-0.714-20.331-5.911
		c-1.913-1.829-1.614-6.771-1.15-10.13c1.1-7.961,2.916-15.821,4.399-23.731c0.151-0.808,0.013-1.67,0.009-2.507
		c-0.935,0.175-1.905,0.244-2.8,0.542c-7.227,2.404-6.396,9.107-7.414,14.58c-1.312,7.072-2.274,14.248-2.716,21.421
		c-0.124,2.016,2.018,4.238,3.301,6.25c0.966,1.515,3.446,3.394,3.107,4.152c-0.932,2.09,0.13,6.529-4.449,5.551
		c-6.832-1.459-13.682-2.932-20.334-5.006C333.055,144.477,333.11,140.843,332.853,139.562z M380.185,111.637
		c0.17,0.021,0.339,0.042,0.509,0.064c-0.179,1.066-0.645,2.181-0.484,3.193c0.618,3.896,1.414,7.767,2.223,11.63
		c0.072,0.342,0.711,0.563,1.086,0.841c-0.074-0.413-0.215-0.826-0.215-1.238c-0.003-11.591,0.783-23.033,6.022-33.703
		c0.29-0.592-0.029-2.111-0.485-2.333c-1.817-0.883-6.528,2.241-6.77,4.366C381.417,100.181,380.809,105.909,380.185,111.637z
		 M418.024,88.475c-0.849-2.803-1.46-4.818-2.071-6.834c-1.266,0.859-3.133,1.437-3.692,2.627c-2.5,5.336-4.744,10.804-6.801,16.329
		c-0.464,1.245,0.196,2.907,0.34,4.378c0.771-0.808,1.537-1.623,2.32-2.42c0.836-0.851,1.861-1.57,2.509-2.543
		C413.158,96.206,415.572,92.322,418.024,88.475z M383.955,131.603c0.356,0.224,0.637,0.534,0.834,0.487
		c0.203-0.048,0.465-0.453,0.442-0.678c-0.02-0.197-0.41-0.515-0.608-0.495C384.413,130.937,384.235,131.294,383.955,131.603z"/>
	<path fill-rule="evenodd" clip-rule="evenodd" fill="#FFFFFF" d="M322.987,81.32c1.932-0.062,3.863-0.127,5.796-0.188
		c3.46-0.109,7.928,5.642,6.726,9.003c-2,5.59-3.821,11.324-6.577,16.543c-3.839,7.274-8.667,14.021-12.616,21.243
		c-0.937,1.711-0.487,4.534,0.104,6.625c0.537,1.9,1.765,4.173,3.362,5.054c1.825,1.006,4.404,0.902,6.642,0.839
		c4.411-0.123,3.932,3.599,3.891,5.754c-0.026,1.329-2.708,3.47-4.432,3.736c-4.621,0.715-9.369,0.615-14.066,0.847
		c-0.655,0.032-1.313,0.199-1.96,0.151c-2.429-0.181-5.898-1.536-7.079-0.429c-3.187,2.991-5.236,7.157-8.068,10.581
		c-1.427,1.726-3.388,3.344-5.443,4.132c-2.767,1.061-6,2.126-8.776,1.661c-5.146-0.862-11.088,0.974-15.276-3.533
		c-1.016-1.091-1.643-3.034-1.587-4.555c0.372-10.062,0.774-20.131,1.58-30.165c0.543-6.746,1.826-13.43,2.664-20.156
		c0.646-5.198,0.844-10.464,1.713-15.621c2.088-12.375,4.305-24.733,6.77-37.038c1.23-6.144,3.027-12.181,4.76-18.212
		c0.462-1.605,1.58-3.037,2.475-4.501c3.807-6.235,7.062-12.937,11.7-18.48c2.527-3.02,7.557-5.785,11.204-5.492
		c3.4,0.273,6.482,4.724,9.644,7.408c0.299,0.254,0.292,1.039,0.213,1.543c-1.358,8.769-2.044,17.719-4.306,26.251
		c-3.198,12.069-7.613,23.814-11.42,35.726c-2.547,7.968-4.264,16.277-7.565,23.909c-4.699,10.86-4.716,22.086-4.754,33.452
		c-0.004,0.825-0.652,1.659-0.619,2.473c0.111,2.598,0.405,5.188,0.627,7.781c2.198-1.38,4.518-2.603,6.562-4.179
		c2.8-2.159,1.088-4.281,0.434-7.069c-1.11-4.729-0.899-10.078,0.05-14.913c1.912-9.741,5.496-19.085,11.453-27.081
		c3.573-4.797,8.366-8.702,12.753-12.858c0.739-0.7,2.197-0.643,3.323-0.936C322.919,80.859,322.954,81.09,322.987,81.32z
		 M329.867,94.682c-0.225-0.927-0.466-1.921-0.707-2.916c-0.743,0.539-1.663,0.941-2.198,1.638
		c-5.505,7.151-10.54,14.554-11.725,23.827c-0.166,1.294-0.079,2.619-0.11,3.931c0.91-0.896,2.096-1.642,2.676-2.715
		c2.268-4.197,4.341-8.499,6.492-12.76C326.116,102.077,327.947,98.472,329.867,94.682z M295.476,63.713
		c0.064,0.016,0.129,0.033,0.192,0.049c-0.146,0.805-0.289,1.609-0.434,2.414c0.639-0.687,1.372-1.31,1.88-2.083
		c0.331-0.5,0.335-1.217,0.477-1.839c1.606-6.995,3.222-13.988,4.799-20.99c0.153-0.687,0.064-1.428,0.087-2.144
		c-0.408,0.631-1.014,1.211-1.192,1.902C299.31,48.576,297.401,56.146,295.476,63.713z M305.898,63.736
		c-0.149-0.148-0.253-0.285-0.387-0.367c-0.061-0.037-0.268,0.029-0.27,0.061c-0.015,0.156,0.018,0.317,0.033,0.476
		C305.453,63.857,305.632,63.809,305.898,63.736z"/>
	<path fill-rule="evenodd" clip-rule="evenodd" fill="#FFFFFF" d="M97.875,217.249c0.601,0.079,1.201,0.158,1.802,0.237
		c-0.087,0.231-0.175,0.463-0.263,0.693c-0.509-0.316-1.018-0.632-1.529-0.959C97.883,217.211,97.875,217.249,97.875,217.249z"/>
	<path fill-rule="evenodd" clip-rule="evenodd" fill="#FFFFFF" d="M103.68,254.026c-0.09,0.083-0.164,0.149-0.238,0.219
		c-0.104-0.135-0.222-0.266-0.303-0.413c-0.013-0.023,0.132-0.135,0.204-0.206C103.456,253.761,103.568,253.894,103.68,254.026z"/>
</g>
</svg>
