<?xml version="1.0" encoding="utf-8"?>
<!-- Generator: Adobe Illustrator 16.0.0, SVG Export Plug-In . SVG Version: 6.00 Build 0)  -->
<!DOCTYPE svg PUBLIC "-//W3C//DTD SVG 1.1//EN" "http://www.w3.org/Graphics/SVG/1.1/DTD/svg11.dtd">
<svg version="1.1" id="Layer_1" xmlns="http://www.w3.org/2000/svg" xmlns:xlink="http://www.w3.org/1999/xlink" x="0px" y="0px"
	 width="404.333px" height="142px" viewBox="0 0 404.333 142" enable-background="new 0 0 404.333 142" xml:space="preserve">
<g>
	<path fill-rule="evenodd" clip-rule="evenodd" d="M284.088,36.831c-2.027,6.51-1.385,13.059-2.551,19.577
		c2.74,0.878,5.072,1.733,7.639,1.55c0.297-0.021,0.688-0.253,0.865-0.133c0.551,0.367,1.191,0.778,1.447,1.334
		c0.123,0.266-0.439,1.062-0.869,1.328c-1.363,0.843-2.812,1.543-4.223,2.309c-1.406,0.763-2.85,1.471-4.184,2.341
		c-0.525,0.342-1.025,1.01-1.16,1.614c-0.547,2.439-0.916,4.918-1.418,7.369c-0.229,1.127-0.609,2.222-0.912,3.292
		c0.357,1.265,0.729,2.585,1.191,4.232c1.439,0.479,3.182,0.931,4.809,1.636c1.633,0.706,3.154,1.666,5.059,2.697
		c-0.771,0.605-1.168,1.141-1.668,1.269c-2.215,0.567-4.025,2.144-6.475,2.239c-1.42,0.057-2.805,0.971-4.287,1.529
		c-0.639,2.898-0.916,5.656,0.576,8.406c0.768,1.414,0.133,2.965-0.389,4.34c-0.881,2.314-1.941,4.561-2.76,6.449
		c-1.789,1.091-3.143,1.023-4.357,0.093c-0.926-0.708-1.807-0.675-2.812-0.321c-0.533,0.188-1.113,0.246-1.918,0.414
		c-0.799-2.961,0.162-5.818-0.324-8.67c-0.471-2.744,0.371-5.713,0.648-8.703c-1.91-0.392-3.428-0.352-5.076,0.785
		c-0.314,4.951-2.451,9.716-2.355,14.94c0.072,3.923-3.062,6.671-7.027,6.709c-1,0.011-2.008,0.068-3-0.033
		c-1.721-0.177-2.533-1.161-2.287-2.857c0.301-2.075,0.771-4.125,1.113-6.194c0.506-3.062,0.973-6.131,1.422-9.201
		c0.068-0.469-0.049-0.965-0.08-1.451c-1.391-0.688-2.666-0.186-3.936-0.132c-2.799,0.12-5.613,0.346-8.398,0.171
		c-3.256-0.203-5.25-2.678-7.336-4.82c-0.584-0.598-0.541-1.396-0.127-2.236c0.799-1.62,1.787-2.895,3.736-3.088
		c4.283-0.426,8.564-0.871,12.85-1.291c0.598-0.059,1.215,0.055,1.803-0.039c1.514-0.242,2.686-1.298,2.82-2.68
		c0.271-2.768,0.438-5.546,0.662-8.502c-0.656-0.062-1.217-0.148-1.777-0.166c-1.629-0.048-3.131-0.291-4.463-1.434
		c-0.783-0.672-1.846-1.096-2.852-1.403c-1.488-0.455-2.051-1.483-2.211-2.876c-0.111-0.992-0.189-1.988-0.307-3.23
		c4.107-1.935,8.604-1.381,12.92-1.924c0.607-5.33,1.033-10.388,1.799-15.394c0.561-3.652,1.498-7.254,2.408-10.843
		c0.451-1.785,1.193-2.12,2.873-1.488c1.4,0.526,2.74,1.227,4.072,1.917c1.002,0.519,1.305,1.383,1.189,2.525
		c-0.131,1.273-0.066,2.568-0.076,3.854c-0.002,0.197,0.123,0.421,0.066,0.59c-1.1,3.231-0.207,6.575-0.555,9.856
		c-0.25,2.364-0.066,4.772-0.076,7.238c2.979,0.709,5.307-0.571,7.57-1.741c0.652-0.336,1.09-1.432,1.275-2.258
		c0.479-2.142,0.742-4.332,1.129-6.496c0.633-3.546,2.252-6.859,2.426-10.522c0.059-1.232,0.992-1.914,2.098-2.32
		C279.404,36.585,281.803,36.486,284.088,36.831z M269.727,69.973c-1.949,0.174-3.33,0.203-4.676,0.443
		c-1.545,0.276-1.785,0.57-1.918,2.209c-0.229,2.781-0.369,5.568-0.521,8.355c-0.016,0.278,0.133,0.564,0.232,0.948
		c1.773,0.372,3.488,0.405,5.25-0.463C268.617,77.783,269.129,74.179,269.727,69.973z"/>
	<path fill-rule="evenodd" clip-rule="evenodd" d="M354.98,76.445c0.58-0.057,1.18-0.233,1.738-0.147
		c1.568,0.241,3.121,0.591,5.133,0.986c-2.117,0.591-3.836,1.095-5.568,1.548c-4.242,1.11-4.904,2.086-4.252,6.334
		c0.045,0.295,0.076,0.592,0.113,0.889c-1.223-0.307-1.223-0.307-1.24,0.645c0.428-0.26,0.84-0.508,1.254-0.757
		c0.09,0.284,0.312,0.606,0.246,0.847c-0.875,3.123-0.076,6.352-0.641,9.5c-0.17,0.947,0.098,1.974,0.17,3.051
		c-0.41,0.008-0.785,0.016-1.178,0.023c-0.229,0.532-0.459,1.07-0.748,1.739c0.328,0.419,0.691,0.871,1.043,1.331
		c1.748,2.287,1.607,4.869-0.373,6.742c-0.688,0.649-1.506,1.171-2.439,0.793c-1.838-0.744-3.711-0.533-5.6-0.492
		c-0.539,0.012-1.084-0.307-1.377-0.396c-0.053-1.705-0.176-3.156-0.115-4.6c0.037-0.862,0.197-1.8,0.596-2.547
		c0.734-1.371,1.094-2.607-0.287-3.764c0.547-0.865,1.02-1.611,1.447-2.286c-0.041-0.308,0-0.55-0.104-0.688
		c-1.166-1.584-2.018-3.188-1.084-5.245c0.217-0.479,0.031-1.168-0.057-1.748c-0.205-1.377-0.463-2.747-0.711-4.186
		c-1.357-1.415-2.766-1.359-4.545-0.432c-2.621,1.363-5.432,2.039-8.412,0.922c-0.613-0.229-1.375-0.057-2.066-0.074
		c-1.43-0.034-2.781-0.341-3.943-1.226c-1.051-0.802-1.428-2.025-0.529-2.837c2.48-2.236,2.863-5.403,4.059-8.223
		c0.854-2.011,2.037-3.879,2.971-5.859c0.811-1.716,1.441-3.518,2.219-5.251c0.812-1.817,1.701-3.6,2.568-5.394
		c0.262-0.542,0.607-1.047,0.816-1.608c1.023-2.758,2.57-5.196,4.438-7.451c1.043-1.262,1.66-2.708,1.908-4.34
		c0.504-3.317,3.252-4.72,5.732-6.099c0.922-0.513,2.555,0.012,3.779,0.36c1.135,0.322,2.346,0.839,3.184,1.63
		c1.27,1.199,1.629,2.885,1.4,4.649c-0.141,1.078-0.289,2.155-0.387,3.237c-0.215,2.388-0.42,4.777-0.598,7.168
		c-0.186,2.496-0.326,4.995-0.5,7.493c-0.312,4.496-0.637,8.99-0.945,13.485c-0.033,0.492,0,0.987,0.004,1.724
		c1.016,0.188,1.971,0.366,2.912,0.545c-0.324,0.183-0.637,0.364-0.945,0.546c0.043,0.064,0.086,0.129,0.129,0.193
		C354.459,76.934,354.719,76.689,354.98,76.445z M343.504,58.113c-0.342,0.386-0.766,0.673-0.908,1.062
		c-0.779,2.132-1.359,4.343-2.246,6.426c-1.793,4.21-3.746,8.35-5.605,12.533c-0.174,0.394-0.148,0.877-0.295,1.843
		c2.645-1.606,5.543-1.268,7.516-2.862c0.016-1.846-0.035-3.33,0.068-4.807c0.051-0.764,0.465-1.496,0.555-2.264
		c0.447-3.75,0.258-7.573,1.324-11.254C343.947,58.671,343.734,58.482,343.504,58.113z M342.658,90.946
		c0.176,0.017,0.387,0.098,0.516,0.029c0.098-0.054,0.098-0.297,0.139-0.455c-0.23-0.016-0.459-0.032-0.691-0.049
		C342.633,90.631,342.645,90.787,342.658,90.946z M350.498,95.578c0.01-0.08,0.018-0.164,0.025-0.248
		c-0.121,0.042-0.242,0.082-0.365,0.123c0.037,0.072,0.059,0.184,0.113,0.205S350.418,95.609,350.498,95.578z"/>
	<path fill-rule="evenodd" clip-rule="evenodd" d="M380.08,96.551c1.107,1.29,2.232,2.566,3.318,3.875
		c0.816,0.984,1.586,2.01,2.389,3.035c1.314-0.502,2.648-0.919,3.889-1.526c0.572-0.281,1.1-0.862,1.406-1.437
		c0.418-0.782,0.754-1.669,0.865-2.545c0.338-2.637,1.459-5.041,2.125-7.578c0.256-0.98,1.389-1.579,2.363-1.469
		c1.117,0.128,1.381,0.941,1.619,1.875c0.793,3.09,0.701,6.116-0.469,9.1c-0.178,0.451-0.545,1.029-0.402,1.369
		c0.814,1.932-1.008,3.426-0.76,5.23c-1.137,1.061-2.109,2.68-3.441,3.068c-3.221,0.939-6.574,1.666-10.225,1.046
		c-0.525-1.688-2.082-2.339-3.693-2.914c0.516-0.188,1.035-0.378,1.555-0.567c-0.84-0.54-1.588-1.386-2.693-0.207
		c0.514,0.321,0.887,0.555,1.258,0.786c-1.107,0.347-2.445,0.44-2.967-0.572c-0.629-1.218-1.596-0.825-2.42-1.038
		c-1.041-1.412-0.992-2.753-0.031-4.143c0.328-0.475,0.48-1.072,0.723-1.609c0.125-0.138,0.242-0.277,0.361-0.416
		c-0.096,0.145-0.188,0.289-0.281,0.434c-1.322,0.193-2.289-0.205-2.963-1.459c-0.83-1.547-0.896-1.512-0.258-3.436
		c-0.715,0.334-1.295,0.607-1.922,0.9c-0.881-0.693-1.158-1.521-0.43-2.326c1.121-1.241,1.041-2.494,0.412-3.878
		c-0.684-1.512-0.785-3.042-0.234-4.651c0.287-0.838,0.547-1.812,0.395-2.646c-0.299-1.629-0.35-3.093,0.551-4.593
		c0.291-0.485,0.021-1.362-0.113-2.036c-0.354-1.771-0.281-3.396,1.35-4.579c-1.074-3.333-0.326-6.566,0.242-9.77
		c0.449-2.549,1.271-5.03,1.764-7.573c0.336-1.741,0.395-3.504,0.953-5.241c0.58-1.806,0.877-3.659,2.355-5.039
		c0.34-0.318,0.422-0.898,0.695-1.31c1.465-2.217,2.553-4.751,5.312-5.85c0.537-0.214,0.816-1.075,1.189-1.599
		c1.182-0.197,2.262-0.424,3.354-0.542c0.58-0.062,1.387-0.16,1.732,0.153c1.189,1.079,2.693,1.117,4.084,1.552
		c0.566,0.177,1.148,0.404,1.627,0.745c2.271,1.619,4.041,3.745,6.195,5.962c-1.91,0.311-3.461,0.687-5.025,0.762
		c-0.715,0.035-1.488-0.469-2.188-0.822c-2.24-1.126-3.066-1.121-4.699,0.831c-1.066,1.274-2.074,2.786-2.521,4.358
		c-1.367,4.806-2.445,9.693-3.652,14.545c-0.191,0.774-0.457,1.53-0.701,2.29c-1.006,3.131-1.711,6.296-1.631,9.63
		c0.033,1.377-0.346,2.768-0.574,4.146c-0.35,2.119-0.688,4.193-0.521,6.402c0.154,2.054-0.371,4.17-0.713,6.239
		c-0.059,0.354-0.699,0.614-1.072,0.917c-0.328,0.297-0.656,0.594-0.984,0.892c0.031,0.034,0.064,0.069,0.096,0.104
		c0.301-0.332,0.598-0.666,0.898-0.998c1.41,1.027,3.014,1.938,2.508,4.129c-0.418,0.249-0.811,0.562-1.254,0.73
		c-1.312,0.494-1.084,1.295-0.617,2.377C378.904,98.508,379.492,97.529,380.08,96.551z M375.885,88.552
		c-0.061-0.057-0.119-0.115-0.18-0.173c0.055,0.074,0.109,0.146,0.166,0.22c-0.207,0.119-0.416,0.239-0.623,0.358
		C375.463,88.818,375.68,88.682,375.885,88.552z M376.844,103.66c-0.141-0.118-0.281-0.236-0.422-0.354
		c0.154,0.124,0.311,0.247,0.461,0.364c0.049-0.057,0.1-0.113,0.148-0.17C376.969,103.554,376.906,103.607,376.844,103.66z
		 M380.713,100.768c0.172,0.062,0.373,0.207,0.508,0.162c0.119-0.039,0.164-0.295,0.24-0.455c-0.232-0.078-0.465-0.155-0.697-0.232
		C380.746,100.418,380.729,100.592,380.713,100.768z M374.16,97.292c0.029-0.161,0.057-0.321,0.086-0.483
		c-0.188-0.02-0.4-0.098-0.559-0.038c-0.082,0.03-0.074,0.306-0.105,0.472C373.775,97.258,373.967,97.275,374.16,97.292z
		 M378.119,68.877c0.066-0.045,0.133-0.089,0.201-0.133c-0.094-0.1-0.18-0.211-0.287-0.291c-0.021-0.016-0.127,0.083-0.195,0.129
		C377.932,68.681,378.025,68.779,378.119,68.877z M378.834,104.818l0.227,0.063l-0.051-0.226L378.834,104.818z M387.922,109.494
		l-0.092,0.212l0.223-0.047L387.922,109.494z"/>
	<path fill-rule="evenodd" clip-rule="evenodd" d="M321.057,96.88c-0.158,2.036-0.354,3.349-1.223,4.577
		c-0.68,0.961-1.145,2.127-1.477,3.267c-0.467,1.595-1.447,2.491-2.973,3.026c-2.924,1.024-5.842,2.08-8.713,3.246
		c-2.072,0.841-3.988,0.057-5.824-0.535c-1.088-0.35-2.246-1.361-1.85-3.069c-0.734-0.1-1.545-0.034-2.166-0.345
		c-0.584-0.294-1.008-0.953-1.434-1.504c-2.357-3.049-3.559-6.145-3.963-10.095c-0.021-0.198-0.027-0.405-0.088-0.594
		c-1.084-3.376-0.205-6.75,0.215-10.067c0.639-5.049,1.729-10.041,2.529-15.073c0.312-1.956,0.359-3.955,0.523-5.934
		c0.025-0.295-0.02-0.613,0.076-0.885c1.24-3.581,2.373-7.208,3.811-10.709c0.742-1.806,1.754-3.581,3.42-4.826
		c0.473-0.354,0.924-0.802,1.234-1.3c2.08-3.33,5.273-5.453,8.34-7.7c0.615-0.451,1.443-0.662,2.207-0.843
		c1.07-0.255,2.193-0.294,3.256-0.574c3.244-0.853,5.895,0.178,8.201,2.424c0.832,0.812,1.662,1.625,2.553,2.492
		c-1.174,1.243-2.371,0.834-3.186,0.282c-3.373-2.291-6.221-1.119-9.072,1.007c-1.795,1.339-3.197,2.933-4.393,4.852
		c-1.971,3.156-3.336,6.486-4.016,10.128c-0.145,0.783-0.51,1.521-0.715,2.296c-1.02,3.868-2.062,7.731-3.014,11.616
		c-0.852,3.481-1.473,7.023-2.42,10.479c-0.984,3.584-0.779,7.15-0.299,10.735c0.115,0.867,0.453,1.792,0.957,2.501
		c1.1,1.547,2.203,3.162,3.609,4.404c2.439,2.156,5.459,2.316,8.514,1.637c0.629-0.141,1.199-0.678,1.732-1.111
		c1.166-0.949,2.254-1.996,3.449-2.904C319.355,97.404,320.041,97.283,321.057,96.88z"/>
</g>
<g>
	<path fill-rule="evenodd" clip-rule="evenodd" d="M61.425,48.254c-0.306,3.084-0.443,6.196-0.961,9.243
		c-0.622,3.652-1.479,7.272-2.409,10.859c-0.55,2.122-1.35,4.192-2.194,6.222c-1.511,3.631-2.606,7.344-3.243,11.244
		c-0.45,2.756-1.465,5.418-2.185,8.133c-0.254,0.961-0.534,1.953-0.536,2.932c-0.008,5.414,0.017,10.828,0.146,16.24
		c0.037,1.589,0.527,3.163,0.669,4.756c0.14,1.578,0.102,3.17,0.139,4.654c0.922,0.639,1.548,0.342,1.896-0.361
		c1.58-3.191,3.861-6.143,3.563-10.007c-0.015-0.192,0.012-0.433,0.117-0.583c1.22-1.756,1.869-3.559,1.661-5.832
		c-0.188-2.047,0.338-4.16,0.545-6.244c0.326-3.275,0.354-6.553,1.217-9.803c0.785-2.957,0.752-6.121,1.326-9.147
		c0.723-3.81,1.791-7.556,2.535-11.362c0.883-4.51,2.553-8.818,2.817-13.51c0.189-3.352,1.377-6.646,2.092-9.971
		c0.292-1.362,0.501-2.74,0.77-4.106c0.208-1.062,0.448-2.118,0.672-3.177c0.124-0.587,0.366-1.178,0.35-1.762
		c-0.112-4.006,1.353-7.653,2.538-11.362c0.392-1.226,0.849-2.432,1.341-3.828c2.377-0.929,5.017-1.347,7.678-1.693
		c0.833-0.108,1.623-0.176,2.1,0.705c0.438,0.81,0.347,1.674-0.328,2.195c-1.78,1.374-1.688,3.579-2.485,5.373
		c-0.305,0.688-0.329,1.693,0.419,2.523c0.47,0.521,0.804,1.465,0.705,2.147c-0.825,5.649-1.663,11.3-2.708,16.911
		c-0.642,3.445-1.747,6.802-2.467,10.235c-0.554,2.642-0.856,5.338-1.229,8.016c-0.5,3.578-1.099,7.15-1.403,10.746
		c-0.431,5.091-0.838,10.2-0.876,15.305c-0.041,5.405,0.371,10.813,0.566,16.221c0.036,1.001,0.069,2.018-0.056,3.006
		c-0.177,1.406,0.472,2.25,1.562,2.986c3.851,2.599,5.27,2.162,6.782-2.178c0.231-0.662,0.372-1.355,0.55-2.035
		c0.377-1.441,0.457-3.062,1.192-4.289c1.441-2.406,1.956-5.051,2.428-7.688c0.633-3.539,0.981-7.13,1.389-10.707
		c0.062-0.547-0.214-1.133-0.363-1.841c-1.297,0.044-2.476,0.073-3.654,0.128c-1.989,0.091-3.779-0.293-5.114-1.945
		c-0.306-0.379-0.744-0.651-1.153-1c0.101-1.189,0.764-2.393-0.398-3.414c-0.277-0.244-0.192-0.921-0.231-1.402
		c-0.016-0.189,0.13-0.389,0.127-0.584c-0.036-2.496,0.255-4.896,1.958-6.898c-0.172-1.854,1.202-3.104,1.836-4.642
		c0.458-1.106,1.374-1.706,2.574-1.812c3.613-0.322,7.047,0.073,9.813,2.731c0.782,0.751,1.529,1.601,2.062,2.535
		c0.942,1.655,1.807,3.37,2.516,5.135c0.704,1.748,1.175,3.588,1.818,5.606c1.263-0.802,1.646-2.083,1.785-3.277
		c0.434-3.743,2.867-6.34,5.067-9.026c0.776-0.946,2.09-1.635,3.292-2.008c1.877-0.582,3.562-1.92,5.741-1.546
		c0.423,0.073,1.014-0.521,1.449-0.898c0.68-0.589,1.271-1.281,1.94-1.885c3.287-2.971,8.792-3.235,12.722-1.333
		c2.713,1.313,4.773,3.266,6.1,6.003c0.515,1.062,1.191,2.046,1.752,2.996c3.13-0.692,4.365-2.173,5.017-4.91
		c1.011-4.237,3.125-6.138,7.445-5.142c1.556,0.358,3.067,0.912,4.771,1.428c0.105,2.773,0.615,5.545,0.057,8.492
		c-0.573,3.027-0.241,6.213-0.564,9.302c-0.522,4.989-0.355,10.001-0.701,14.991c-0.035,0.501,0.026,1.021-0.091,1.5
		c-0.293,1.201-0.662,2.383-1,3.572c1.202,0.862,1.175,2.223,1.455,3.479c0.291,1.307,1.032,1.67,2.199,1.006
		c0.765-0.434,1.43-1.074,2.069-1.695c2.597-2.524,3.971-5.732,4.999-9.123c0.058-0.192,0.175-0.387,0.166-0.576
		c-0.189-3.929,1.624-7.374,2.642-11.011c0.16-0.571,0.311-1.153,0.38-1.741c0.189-1.582,0.258-3.182,0.511-4.752
		c0.383-2.376,0.583-4.734,0.586-7.157c0.002-1.933,0.79-3.87,1.264-5.797c0.304-1.235,0.671-2.455,1.053-3.837
		c2.98-0.868,5.95,0.107,9.152,0.708c-0.508,5.046-0.043,9.995,0.629,14.933c0.168,1.237,0.253,2.441-0.8,2.875
		c0.145,1.391,0.35,2.447,0.35,3.505c-0.002,5.101-0.025,10.202-0.125,15.302c-0.023,1.187-0.41,2.361-0.571,3.549
		c-0.254,1.871-0.619,3.748-0.638,5.625c-0.017,1.574,0.723,2.143,2.279,2.154c0.791,0.008,1.583-0.213,2.377-0.314
		c0.561-0.072,1.125-0.119,1.943-0.203c-1.948,4.346-5.452,6.199-9.481,6.888c-2.094,0.358-4.367-0.269-6.551-0.526
		c-1.119-0.134-1.688-0.977-2.068-1.971c-0.49-1.285-1.006-2.561-1.649-4.188c-1.007,2.891-2.938,4.33-5.412,5.035
		c-2.016,0.575-4.083,0.971-6.132,1.423c-0.487,0.108-1.024,0.036-1.488,0.192c-5.06,1.718-8.398-0.998-11.437-4.436
		c-1.347-1.523-1.5-3.498-1.575-5.375c-0.123-3.08-0.522-6.17,0.585-9.23c0.452-1.25,0.425-2.793,0.208-4.137
		c-0.317-1.967,0.167-3.771,0.498-5.641c0.242-1.373,0.387-2.78,0.391-4.172c0.002-0.578-0.479-1.157-1.008-2.332
		c-0.482,1.188-0.992,1.812-0.912,2.346c0.65,4.294-0.168,8.355-1.606,12.377c-0.742,2.076-1.113,4.283-1.866,6.354
		c-1.881,5.169-3.368,10.511-6.27,15.256c-1.094,1.787-2.207,3.48-2.858,5.562c-0.782,2.494-3.035,3.787-5.628,3.762
		c-2.115-0.02-4.162,0.154-6.254,0.403c-2.264,0.269-4.641,0.216-6.885-0.178c-1.498-0.263-2.849-1.366-4.349-2.136
		c-0.095-0.599-0.114-1.198-0.295-1.744c-0.342-1.035-0.485-2.506-1.227-2.971c-2.492-1.56-2.275-4.289-3.283-6.474
		c-0.042-0.091-0.087-0.188-0.093-0.284c-0.081-1.281-0.009-2.596-0.273-3.838c-0.266-1.25-0.864-2.429-1.416-3.906
		c-1.224,1.381-1.197,3.123-1.662,4.625c-1.066,3.437-1.989,6.918-2.964,10.382c-0.243,0.861-0.445,1.735-0.705,2.593
		c-0.635,2.1-0.961,4.492-4.085,4.234c-0.278-0.023-0.591,0.428-0.895,0.646c-0.322,0.229-0.641,0.618-0.98,0.641
		c-4.171,0.28-8.085,2.031-12.29,2.125c-0.686,0.016-1.451,0.113-2.034,0.435c-1.235,0.683-2.479,0.537-3.792,0.484
		c-1.314-0.054-2.145-0.593-3.077-1.509c-1.762-1.73-3.502-3.654-6.528-3.941c-0.572,0.435-1.43,0.951-2.123,1.637
		c-2.062,2.039-4.56,3.222-7.315,3.957c-0.776,0.207-1.547,0.435-2.312,0.681c-3.366,1.086-5.771-0.011-7.17-3.327
		c-0.73-1.732-2.04-3.207-2.038-5.277c0-0.852-1.223-1.079-1.878-0.4c-0.625,0.647-1.156,1.386-1.748,2.066
		c-3.536,4.061-8.412,6.081-13.066,8.381c-1.261,0.622-2.925,0.435-4.406,0.607c-3.39,0.395-6.042-0.711-8.635-3.088
		c-2.184-2-3.641-3.902-3.421-6.887c0.022-0.299,0.07-0.626-0.02-0.898c-1.208-3.686-0.839-7.455-0.746-11.231
		c0.066-2.681-0.228-5.369-0.368-8.054c-0.026-0.502-0.221-1.031-0.111-1.494c1.073-4.514,0.485-9.107,0.738-13.66
		c0.06-1.078,0.226-2.172,0.509-3.213c0.586-2.156,0.99-4.25,0.229-6.49c-0.293-0.866-0.182-2.013,0.112-2.91
		c0.827-2.518,1.179-4.959,0.679-7.649c-0.294-1.58,0.301-3.346,0.596-5.012C7.51,57.344,8.79,53.235,9.032,48.92
		c0.077-1.374,0.548-2.758,1.023-4.07c0.883-2.438,2.067-4.777,2.822-7.25c0.923-3.024,2.561-5.64,4.186-8.272
		c0.725-1.175,1.521-2.404,2.566-3.267c2.841-2.344,5.463-4.925,8.715-6.821c4.12-2.4,8.192-2.464,12.384-0.734
		c1.383,0.571,2.468,0.827,3.945,0.253c1.872-0.728,3.903-0.768,5.915-0.199c1.25,0.353,2.566,0.459,3.83,0.772
		c2.378,0.589,3.905,1.883,4.825,4.383c1.329,3.612,1.491,7.227,1.321,10.955c-0.146,3.208-0.266,6.418-0.336,9.628
		c-0.017,0.788,0.203,1.58,0.313,2.37l0.044-0.11c-0.452,0.986-0.163,1.561,0.935,1.689L61.425,48.254z M47.625,69.889
		c0.103,0.092,0.206,0.184,0.229,0.205c-0.024-0.025-0.122-0.128-0.22-0.23c0.424-0.5,1.052-0.937,1.236-1.514
		c0.756-2.366,1.375-4.776,2.05-7.168c0.323-1.146,0.795-2.269,0.966-3.435c0.609-4.15,1.106-8.317,1.67-12.475
		c0.201-1.483,0.784-2.989,0.638-4.429c-0.257-2.533,0.081-4.99,0.373-7.461c0.323-2.74-0.074-5.376-0.878-7.972
		c-0.307-0.994-0.935-1.731-1.929-1.961c-0.295,0.141-0.576,0.181-0.633,0.316c-1.477,3.484-3.188,6.863-3.35,10.795
		c-0.37,8.991-0.829,17.976-0.384,26.979C47.529,64.319,47.548,67.105,47.625,69.889z M40.456,22.404
		c-1.583-0.837-2.544-0.21-3.52,0.283c-3.792,1.917-6.773,4.735-8.594,8.549c-1.807,3.787-3.424,7.682-4.85,11.63
		c-1.326,3.67-2.491,7.425-3.364,11.226c-1.233,5.367-2.324,10.783-3.121,16.23c-0.811,5.542-1.175,11.149-1.764,16.727
		c-0.221,2.09-0.599,4.167-0.769,6.262c-0.362,4.492-0.653,8.991-0.936,13.488c-0.132,2.1-0.241,4.205-0.251,6.309
		c-0.017,3.525,1.409,6.643,3.045,9.643c0.965,1.77,2.083,2.127,4.047,1.373c1.479-0.566,2.961-1.272,4.238-2.197
		c4.408-3.189,6.989-7.943,10.062-12.248c1.665-2.331,1.443-2.996-0.346-5.16c0.048-2.061,0.187-4.037,0.113-6.006
		c-0.066-1.775-0.47-3.537-0.531-5.311c-0.064-1.892,0.195-3.793,0.14-5.684c-0.102-3.485,0.34-6.997-0.499-10.454
		c-0.137-0.562,0.022-1.196,0.056-1.797c0.077-1.392,0.23-2.782,0.23-4.173c0.001-3.451,0.585-6.885,0.114-10.356
		c-0.317-2.343-0.638-4.755,0.621-6.995c0.084-0.15-0.007-0.394,0.003-0.593c0.166-3.484,0.081-6.992,1.062-10.396
		c0.098-0.339-0.085-0.759-0.139-1.142c-0.416-2.92-0.139-5.754,0.932-8.523C37.797,29.573,39.093,26.034,40.456,22.404z
		 M131.681,80.16c-0.584-0.006-1.064-0.059-1.532-0.006c-3.041,0.345-5.987,0.081-8.722-1.398c-1.135-0.614-2.225-1.318-3.301-2.033
		c-1.522-1.013-2.08-1.02-2.75,0.582c-0.84,2.01-1.619,4.103-2.005,6.236c-1.174,6.473-2.21,12.969-2.515,19.562
		c-0.159,3.424,0.009,6.768,1.145,10.031c0.794,2.28,3.116,3.895,5.516,3.759c1.062-0.06,1.938-0.425,2.484-1.406
		c0.389-0.7,1.031-1.335,1.182-2.076c0.854-4.214,3.854-7.372,5.425-11.241c0.997-2.456,1.839-4.824,1.534-7.504
		c-0.208-1.822-0.065-3.792,1.077-5.131c2.058-2.413,1.891-5.389,2.666-8.122C131.976,81.086,131.772,80.676,131.681,80.16z
		 M87.973,83.74c0.701-2.535,0.302-7.258-0.795-9.607c-2.411,1.516-3.37,3.787-3.69,6.416c-0.04,0.327,0.196,0.823,0.466,1.029
		C85.118,82.467,86.199,83.549,87.973,83.74z M131.427,71.812c0.813-2.274-0.349-3.525-1.16-4.823
		c-0.585-0.935-1.578-1.149-2.637-0.833c-0.909,0.271-1.646,0.75-1.714,1.808c-0.072,1.124,0.512,1.946,1.473,2.375
		C128.63,70.893,129.945,71.281,131.427,71.812z M98.938,100.064c-0.081-0.044-0.167-0.124-0.209-0.105
		c-0.066,0.03-0.103,0.127-0.152,0.195c0.095,0.047,0.189,0.094,0.283,0.14C98.887,100.217,98.913,100.139,98.938,100.064z
		 M100.163,89.069c-0.003-0.079-0.005-0.159-0.008-0.237c-0.077,0.006-0.188-0.017-0.221,0.024
		c-0.037,0.046-0.005,0.149-0.002,0.228C100.009,89.078,100.085,89.074,100.163,89.069z"/>
	<path fill-rule="evenodd" clip-rule="evenodd" d="M208.492,23.4c1.324,0.626,1.391,1.869,1.354,3.051
		c-0.096,3-0.342,5.996-0.43,8.997c-0.102,3.458-0.098,6.919-0.143,10.462c2.379,0.542,4.617-0.044,6.867-0.375
		c0.684-0.1,1.424-0.371,2.047-0.211c2.59,0.665,5.143,1.463,7.75,2.224c-1.191,2.146-2.57,3.966-4.787,5.204
		c-1.52,0.848-3.053,1.873-3.846,3.673c-0.5,1.13-1.559,1.779-3.422,1.766c0.857-0.956,1.445-1.609,2.215-2.468
		c-3.166-0.355-5.818,0.798-8.648,1.562c-0.135,0.672-0.299,1.234-0.352,1.807c-0.227,2.39-0.627,4.787-0.578,7.174
		c0.092,4.488-1.182,8.852-1.033,13.324c0.029,0.863,0.713,1.942,0.389,2.529c-0.693,1.25,0.424,1.527,0.729,2.246
		c0.266,0.631,0.393,1.519-0.516,1.766c-1.143,0.312-1.246,1.184-1.414,2.062c-0.341,1.773-0.646,3.554-0.983,5.328
		c-0.233,1.229-0.224,2.316,0.788,3.319c1.066,1.054,0.703,2.577,0.316,3.688c-0.521,1.499-0.264,2.694,0.307,4.022
		c1.043,2.438,0.139,4.734-2.377,5.475c-3.864,1.139-7.809,1.648-11.841,0.732c-1.338-0.303-2.179-0.986-2.465-2.291
		c-0.363-1.656-0.838-3.312-0.199-5.027c0.167-0.445,0.322-1.012,0.193-1.436c-1.259-4.141,0.148-8.092,0.651-12.133
		c0.392-3.137,1.44-6.169,1.245-9.418c-0.105-1.756,0.464-3.555,0.75-5.331c0.08-0.493,0.386-0.987,0.339-1.456
		c-0.413-4.141,0.73-8.086,1.421-12.09c0.146-0.853,0.061-1.746,0.085-2.774c-1.474-0.181-2.75-0.471-4.026-0.47
		c-5.142,0.002-9.212-2.398-12.874-5.674c-0.525-0.47-0.748-1.347-0.954-2.079c-0.156-0.554,0.014-1.195-0.106-1.767
		c-0.099-0.47-0.414-0.894-0.647-1.369c1.021-1.792,2.66-2.074,4.416-1.911c2.095,0.194,4.171,0.63,6.267,0.752
		c2.488,0.145,4.989,0.077,7.484,0.079c1.385,0,2.036-0.787,2.615-2.029c0.899-1.928,0.727-3.951,0.703-5.883
		c-0.03-2.471,0.549-4.753,1.211-7.047c1.03-3.57,1.658-7.195,1.959-10.9c0.128-1.572,0.667-3.108,0.999-4.665
		c0.144-0.675,0.209-1.366,0.355-2.04c0.21-0.975,0.278-2.04,0.734-2.892c0.973-1.817,1.51-3.685,1.246-5.731
		c2.172-1.724,4.542-1.584,6.948-1.512c1.363,2.472,0.812,5.019,0.965,7.459c0.084,1.386-0.059,2.786-0.086,4.18
		c-0.055,2.79,0.207,5.636-1.508,8.11c-0.037-0.148-0.08-0.292-0.125-0.438c0.086,0.017,0.168,0.034,0.254,0.051
		C208.652,23.15,208.572,23.274,208.492,23.4z M223.078,49.735l-0.191-0.021l0.057,0.162L223.078,49.735z"/>
	<path fill-rule="evenodd" clip-rule="evenodd" d="M62.166,36.568c0.076,0.917,0.148,1.27,0.126,1.617
		c-0.061,0.953-0.162,1.903-0.502,2.833C61.498,39.703,61.046,38.389,62.166,36.568z"/>
	<path fill-rule="evenodd" clip-rule="evenodd" d="M62.558,33.477c-0.104,0.455-0.208,0.909-0.312,1.364
		c-0.158-0.039-0.316-0.079-0.473-0.118c0.117-0.453,0.234-0.906,0.352-1.36C62.269,33.401,62.413,33.439,62.558,33.477z"/>
	<path fill-rule="evenodd" clip-rule="evenodd" d="M60.542,46.668c1.435-0.226,1.463-0.174,0.884,1.586l0.095-0.007
		c-0.312-0.563-0.623-1.126-0.935-1.689L60.542,46.668z"/>
	<path fill-rule="evenodd" clip-rule="evenodd" d="M60.984,44.243c0.229-0.324,0.358-0.559,0.543-0.737
		c0.044-0.042,0.364,0.077,0.389,0.167c0.044,0.16,0.003,0.386-0.089,0.525C61.778,44.273,61.542,44.223,60.984,44.243z"/>
</g>
</svg>
