<?xml version="1.0" encoding="utf-8"?>
<!-- Generator: Adobe Illustrator 16.0.0, SVG Export Plug-In . SVG Version: 6.00 Build 0)  -->
<!DOCTYPE svg PUBLIC "-//W3C//DTD SVG 1.1//EN" "http://www.w3.org/Graphics/SVG/1.1/DTD/svg11.dtd">
<svg version="1.1" id="Layer_1" xmlns="http://www.w3.org/2000/svg" xmlns:xlink="http://www.w3.org/1999/xlink" x="0px" y="0px"
	 width="339px" height="183px" viewBox="0 0 339 183" enable-background="new 0 0 339 183" xml:space="preserve">
<g>
	<path fill="#FFFFFF" d="M329.073,85.061c-0.883-2.146-1.731-4.319-2.814-6.364c-1.305-2.46-2.768-4.844-4.604-6.971
		c-0.453-0.524-0.792-1.146-1.196-1.714c-0.439-0.617-0.463-1.244-0.267-1.978c0.777-2.917,1.553-5.837,2.215-8.782
		c0.422-1.874,0.892-3.779,0.329-5.729c-0.062-0.215-0.026-0.463-0.014-0.695c0.096-1.796-0.402-3.534-0.542-5.309
		c-0.066-0.827-0.401-1.661-0.748-2.432c-1.208-2.688-3.164-4.314-6.258-4.391c-1.078-0.026-1.935,0.24-2.786,0.884
		c-1.315,0.994-2.285,2.298-3.416,3.458c-1.283,1.317-1.787,2.854-1.941,4.589c-0.048,0.54-0.063,1.083-0.095,1.624
		c-0.251,4.293,0.348,8.505,1.269,12.678c0.231,1.054,0.616,2.077,0.966,3.102c0.752,2.212,1.822,4.275,3.102,6.221
		c0.704,1.07,0.751,2.093,0.333,3.294c-1.659,4.766-3.51,9.443-5.968,13.862c-0.49,0.88-1.021,1.736-1.539,2.601
		c-0.317,0.529-0.824,0.723-1.392,0.625c-0.527-0.09-1.038-0.285-1.548-0.458c-0.364-0.124-0.715-0.415-1.07-0.413
		c-1.527,0.009-3.032-0.517-4.649-0.169c-0.289,0.653-0.691,1.301-1.191,1.89c-0.502,0.592-0.924,1.247-1.16,1.992
		c-0.196,0.617-0.179,1.215,0.334,1.721c1.049,1.032,1.886,2.224,2.625,3.45c-0.288,0.882-0.951,1.267-1.661,1.599
		c-0.548,0.256-1.073,0.005-1.261-0.61c-0.09-0.295-0.166-0.6-0.205-0.904c-0.444-3.455-1.064-6.898-1.275-10.368
		c-0.328-5.417-0.286-10.845,0.621-16.229c0.128-0.76,0.173-1.541,0.181-2.312c0.004-0.317,0.143-0.743-0.28-0.984
		c-0.125,0.392-0.221,0.764-0.372,1.113c-0.043,0.102-0.253,0.198-0.37,0.182c-0.087-0.013-0.225-0.22-0.21-0.323
		c0.144-1.074,0.32-2.143,0.474-3.216c0.305-2.14,1.026-4.225,0.817-6.435c-0.027-0.294,0.053-0.624,0.167-0.903
		c0.659-1.614,0.755-3.315,0.771-5.021c0.01-1.245,0.226-2.42,0.844-3.506c-0.003,0.004-0.006,0.007-0.009,0.011
		c0.05-1.306-0.034-2.635,0.19-3.911c0.186-1.062,0.375-2.116,0.438-3.192c0.026-0.454,0.062-0.905,0.326-1.297
		c-0.005,0.007-0.01,0.015-0.016,0.022c0.031-0.93,0.191-1.876,0.066-2.783c-0.252-1.816,0.196-3.544,0.422-5.307
		c0.122-0.964,0.552-1.542,1.551-1.748c0.595-0.122,1.131-0.504,1.722-0.674c1.445-0.414,2.637-1.291,3.886-2.061
		c0.387-0.238,0.786-0.564,1.005-0.949c0.686-1.204,0.781-2.485-1.035-2.743c-0.536-0.077-1.082-0.095-1.617-0.172
		c-1.139-0.164-2.273-0.35-3.321-0.513c-0.675-1.26,0.374-2.353,0.068-3.485c-0.731,0.163-0.934,0.052-0.935-0.408
		c-0.002-0.871,0.247-1.678,0.562-2.477c0.638-1.627,0.728-3.316,0.515-5.034c-0.047-0.385-0.104-0.759-0.393-1.062
		c-0.872-0.912-0.936-2.067-0.99-3.238c-0.025-0.529,0.331-1.085-0.04-1.578c-0.401-0.535-0.989-0.249-1.509-0.265
		c-0.224-0.007-0.496-0.045-0.658-0.177c-1.11-0.9-2.58-1.018-3.763-1.764c-0.727-0.458-1.571-0.836-2.414-0.683
		c-1.129,0.206-2.278,0.492-3.211,1.253c-0.9,0.734-1.235,1.758-1.422,2.847c-0.92,5.348-2.17,10.625-3.316,15.926
		c-0.545,2.521-0.731,2.345-2.819,2.582c-2.387,0.27-4.773,0.536-7.155,0.841c-1.541,0.198-3.04,0.609-4.497,1.144
		c-0.576,0.211-1.146,0.493-1.272,1.329c0.479,0.615,1.04,1.242,1.754,1.712c2.371,1.564,4.921,2.591,7.812,2.596
		c0.931,0.002,1.861,0.011,2.791,0.048c1.167,0.047,1.421,0.314,1.28,1.39c-0.685,5.223-1.314,10.455-2.099,15.664
		c-0.748,4.979-1.654,9.935-2.51,14.897c-0.09,0.52-0.124,1.08-0.508,1.516c-0.369-0.239-0.462-0.65-0.512-1.009
		c-0.138-1.01-0.445-1.942-0.948-2.83c-0.225-0.399-0.351-0.863-0.47-1.311c-0.744-2.795-2.076-5.334-3.409-7.874
		c-0.265-0.505-0.557-0.894-1.234-0.838c-0.414,0.034-0.721-0.298-0.886-0.652c-0.339-0.725-0.905-1.243-1.456-1.791
		c-0.827-0.821-1.623-1.662-1.628-2.956c-0.002-0.562-0.754-0.782-0.742-1.135c0.043-0.788,0.682-1.139,0.466-1.74
		c-0.318-0.298-0.723-0.371-1.086-0.263c-1.479,0.44-2.991,0.813-4.316,1.65c-0.521,0.328-1.073,0.653-1.481,1.098
		c-1.151,1.251-2.269,2.524-3.26,3.925c-1.516,2.146-3.108,4.259-5.178,5.935c-2.951,2.39-5.927,4.751-8.619,7.441
		c-0.262,0.262-0.537,0.582-1.031,0.412c-0.438-0.639-0.446-1.438-0.673-2.165c-0.229-0.739-0.38-1.511-0.686-2.216
		c-0.614-1.421-1.235-2.849-1.989-4.2c-1.279-2.295-2.673-4.512-4.196-6.671c-2.221-3.151-8.567-3.893-11.459-1.143
		c-2.398,2.281-4.357,4.816-5.907,7.702c-0.659,1.229-1.262,2.488-1.902,3.727c-0.138,0.268-0.285,0.574-0.7,0.443
		c-0.292-0.498-0.176-1.052-0.167-1.579c0.031-1.948-1.112-3.335-2.251-4.705c-0.447-0.539-1.132-0.959-1.825-0.92
		c-1.603,0.088-2.602-0.724-3.433-1.934c-0.172-0.251-0.429-0.447-0.661-0.651c-1.421-1.241-2.393-1.341-3.993-0.406
		c-0.932,0.545-1.76,1.296-2.861,1.508c-0.836,0.16-1.328,0.71-1.78,1.373c-1.355,1.989-2.548,4.07-3.579,6.244
		c-1.062,2.241-2.08,4.503-3.175,6.728c-1.091,2.217-2.163,4.454-3.837,6.324c-0.141,0.158-0.279,0.448-0.229,0.622
		c0.225,0.788-0.038,1.516-0.121,2.278c-0.08,0.725-0.053,1.532,0.392,2.169c0.157,0,0.242,0.021,0.311-0.003
		c1.429-0.527,2.155-1.973,3.467-2.667c0.16-0.085,0.189-0.408,0.293-0.614c0.173-0.346,0.325-0.708,0.543-1.023
		c1.673-2.422,2.979-5.078,4.772-7.424c0.467-0.61,0.782-1.335,1.165-2.008c0.345-0.606,0.675-1.221,1.038-1.815
		c0.146-0.239,0.294-0.558,0.822-0.347c0,0.409-0.011,0.869,0.002,1.328c0.146,4.885-0.288,9.754-0.541,14.623
		c-0.196,3.787-0.992,7.522-1.626,11.267c-1.112,6.569-2.29,13.13-2.965,19.766c-0.543,5.319-1.071,10.639-1.477,15.971
		c-0.317,4.169-0.989,8.313-1.222,12.483c-0.211,3.797-0.893,7.529-1.195,11.314c-0.401,5.008-1.251,9.983-2.039,14.952
		c-0.238,1.496,0.065,2.563,1.262,3.431c0.375,0.271,0.673,0.67,1.073,0.886c1.366,0.73,2.745,1.48,4.366,0.697
		c0.338-0.164,0.672-0.427,1.087-0.271c0.969,0.362,1.802-0.252,2.692-0.399c0.833-0.137,1.608-0.526,2.028-1.392
		c0.24-0.5,0.633-0.908,1.266-0.854c0.384,0.034,0.56-0.203,0.735-0.455c0.532-0.757,1.079-1.506,1.567-2.29
		c0.198-0.317,0.31-0.711,0.374-1.084c0.301-1.756,0.605-3.512,0.846-5.276c0.472-3.452,0.879-6.911,1.46-10.352
		c0.358-2.119,0.677-4.274,0.633-6.458c-0.045-2.246,0.129-4.485,0.446-6.72c0.283-1.991,0.493-4.006,0.533-6.016
		c0.059-2.942,0.631-5.862,0.352-8.817c-0.036-0.377,0.039-0.778,0.134-1.151c0.252-1.002,0.169-1.993,0.016-2.998
		c-0.247-1.625-0.092-3.246,0.162-4.856c0.086-0.538,0.476-0.83,1.004-0.686c2.179,0.598,4.448,0.607,6.646,1.056
		c2.207,0.45,4.312-0.014,6.397-0.639c1.047-0.313,1.987-0.854,2.792-1.619c0.73-0.693,1.479-1.369,2.247-2.021
		c3.926-3.331,6.646-7.513,8.66-12.199c0.825-1.92,1.641-3.845,2.508-5.746c0.275-0.606,0.318-1.352,1.029-1.933
		c0.07,0.505,0.124,0.87,0.173,1.236c0.194,1.458,0.348,2.924,0.59,4.375c0.494,2.946,1.836,5.581,3.183,8.195
		c0.565,1.099,1.333,2.088,2.473,2.714c1.355,0.743,2.683,1.54,4.044,2.273c0.47,0.254,1.004,0.394,1.513,0.575
		c1.724,0.614,3.534,0.331,5.3,0.507c1.206,0.12,2.287-0.193,3.362-0.687c4.225-1.939,7.374-5.118,9.926-8.876
		c2.171-3.2,4.104-6.562,5.689-10.109c0.046-0.101,0.238-0.135,0.364-0.201c0.312,0.202,0.248,0.532,0.242,0.813
		c-0.046,2.253,0.173,4.487,0.447,6.719c0.426,3.475,0.927,6.923,2.854,9.971c0.245,0.388,0.488,0.832,0.545,1.274
		c0.188,1.473,1.155,2.255,2.306,3.003c1.745,1.136,3.487,2.258,5.057,3.677c1.563,1.414,3.523,2.255,5.723,2.235
		c0.865-0.008,1.687,0.13,2.506,0.406c0.576,0.194,1.189,0.282,1.8,0.421c0.412-0.438,0.725-0.903,1.156-1.191
		c0.435-0.291,1.009-0.368,1.481-0.617c0.331-0.175,0.646-0.438,0.874-0.734c0.422-0.548,0.773-1.15,1.205-1.807
		c0.218-0.026,0.53-0.025,0.818-0.106c0.408-0.116,0.628-0.428,0.669-0.852c0.014-0.153,0.05-0.325,0-0.46
		c-0.39-1.064-0.529-2.086,0.296-3.042c0.12-0.138,0.116-0.45,0.063-0.655c-0.4-1.529,0.196-3.013,0.091-4.529
		c0.826,0,1.411,0.407,2.028,0.719c3.065,1.541,6.264,2.197,9.68,1.515c0.604-0.12,1.236-0.211,1.848-0.176
		c1.278,0.073,2.425-0.358,3.604-0.734c1.133-0.36,2.049-1.087,3.058-1.653c1.775-0.997,3.37-2.202,4.432-4.001
		c0.273-0.465,0.629-0.881,0.938-1.326c1.444-2.074,2.353-4.369,2.436-6.892c0.057-1.693-0.165-3.397-0.31-5.092
		C329.409,86.417,329.333,85.692,329.073,85.061z M224.78,76.846c-0.457,4.891-1.712,9.576-3.386,14.17
		c-0.605,1.667-0.919,3.423-1.692,5.047c-0.736,1.544-1.656,2.972-2.542,4.419c-0.393,0.64-1.053,1.117-1.603,1.658
		c-0.105,0.104-0.263,0.222-0.396,0.223c-1.13,0.014-2.325,0.23-3.372-0.067c-1.023-0.292-2.002-0.73-3.09-0.822
		c-0.285-0.023-0.558-0.22-0.857-0.347c-0.188-0.986,0.074-1.884,0.245-2.782c0.372-1.975,0.904-3.931,1.12-5.921
		c0.301-2.765,0.956-5.471,1.217-8.237c0.095-1,0.247-1.997,0.297-2.999c0.067-1.353,0.488-2.54,1.238-3.678
		c1.361-2.062,2.596-4.209,3.938-6.286c0.963-1.491,2.045-2.906,3.017-4.391c0.55-0.838,0.951-1.772,1.483-2.624
		c0.44-0.704,0.804-1.5,1.618-1.919c0.792,0.667,1.056,1.563,1.317,2.449c0.726,2.449,1.354,4.914,1.514,7.484
		C224.942,73.771,224.925,75.295,224.78,76.846z M243.643,69.538c-0.268,0.469-0.623,0.917-0.763,1.424
		c-0.235,0.856-0.681,1.552-1.285,2.167c-0.778,0.79-1.177,1.81-1.706,2.752c-0.257,0.458-0.315,1.048-0.856,1.322
		c-0.113-0.094-0.289-0.165-0.318-0.274c-0.362-1.376-0.067-2.768-0.14-4.162c2.056-1.795,3.659-4.017,6.009-5.424
		c0.014-0.008,0.097,0.099,0.207,0.214C244.416,68.204,244.024,68.869,243.643,69.538z M258.55,90.437
		c-1.1,2.392-2.968,4.12-5.228,5.427c-0.967,0.559-1.484,0.395-2.028-0.678c-0.985-1.944-1.446-4.067-2.066-6.139
		c-0.947-3.161-0.597-6.268,0.254-9.356c0.718-2.604,1.538-5.181,2.296-7.775c0.127-0.438,0.26-0.911,0.22-1.353
		c-0.081-0.896,0.189-1.67,0.579-2.44c0.452-0.897,0.85-1.822,1.329-2.703c0.211-0.391,0.564-0.706,0.948-1.17
		c0.582,0.55,0.95,0.947,1.368,1.282c0.616,0.494,1.084,1.102,1.465,1.778C261.939,74.869,262.15,82.595,258.55,90.437z
		 M314.385,92.866c-0.311,0.459-0.727,0.87-1.262,0.974c-1.268,0.244-2.525,0.699-3.809,0.435c-0.083-0.135-0.142-0.195-0.158-0.267
		c-0.017-0.07-0.012-0.163,0.021-0.225c0.475-0.885,0.942-1.773,1.437-2.646c0.952-1.682,1.966-3.331,2.865-5.041
		c0.746-1.42,1.363-2.907,2.104-4.505c0.715,0.822,0.691,1.719,0.87,2.515C317.182,87.35,316.187,90.21,314.385,92.866z
		 M318.104,56.045c-0.479,2.261-1.032,4.508-1.57,6.757c-0.087,0.366-0.258,0.713-0.508,1.384c-0.832-1.023-1.145-1.891-1.409-2.76
		c-0.786-2.587-1.338-5.225-1.574-7.925c-0.088-0.996-0.229-1.987-0.319-2.983c-0.148-1.618-0.191-3.235,0.294-4.815
		c0.175-0.569,0.65-0.852,1.251-0.761c1.666,0.252,2.792,1.237,3.522,2.695c0.488,0.975,0.722,2.027,0.744,3.125
		C318.57,52.538,318.471,54.308,318.104,56.045z"/>
	<path fill="#FFFFFF" d="M188.269,100.562c0.244-3.099-0.443-6.004-1.733-8.793c-0.358-0.773-0.787-1.516-1.112-2.301
		c-0.985-2.384-2.366-4.529-3.892-6.59c-0.415-0.561-0.817-1.137-1.289-1.646c-0.78-0.839-0.874-1.747-0.506-2.794
		c0.514-1.461,0.997-2.935,1.449-4.417c0.697-2.288,1.603-4.512,1.847-6.934c0.274-2.725,0.319-5.379-0.669-8.016
		c-0.624-1.667-1.667-2.756-3.28-3.362c-1.554-0.584-3.096-0.992-4.562,0.266c-0.344,0.295-0.821,0.43-1.2,0.691
		c-1.849,1.272-3.623,2.666-5.545,3.814c-1.581,0.945-2.462,2.289-3.045,3.934c-0.309,0.871-0.515,1.776-1.324,2.399
		c-0.266,0.204-0.365,0.665-0.469,1.03c-0.171,0.595-0.299,1.203-0.419,1.812c-0.781,3.963-0.341,7.715,1.966,11.131
		c0.693,1.027,1.388,2.055,2.128,3.048c1.11,1.492,2.273,2.944,3.392,4.429c2.045,2.716,1.754,2.382,0.736,5.018
		c-2.014,5.209-4.427,10.241-7.006,15.193c-0.145,0.277-0.313,0.537-0.732,0.616c-0.527-0.101-1.15-0.373-1.72-0.287
		c-0.736,0.111-1.377-0.216-2.058-0.188c-0.848,0.034-1.708-0.062-2.531,0.019c-1.089,0.108-2.386,0.011-2.966,1.362
		c-0.082,0.19-0.342,0.304-0.519,0.455c-1.294,1.103-1.787,2.532-1.35,4.133c0.22,0.806-0.288,1.264-0.432,1.825
		c0.182,0.451,0.554,0.603,0.875,0.809c0.521,0.335,1.061,0.644,1.569,0.996c0.442,0.307,0.534,0.746,0.293,1.222
		c-0.14,0.275-0.288,0.551-0.462,0.806c-2.17,3.18-4.923,5.765-8.115,7.894c-0.515,0.344-1.062,0.631-1.851,0.463
		c-0.415-0.905-1.125-1.774-1.089-2.916c0.05-1.569-0.323-3.07-0.602-4.592c-0.35-1.905-0.694-3.835-0.525-5.767
		c0.325-3.706,0.366-7.425,0.645-11.135c0.486-6.488,0.699-12.997,1.388-19.471c0.106-1,0.141-2.009,0.17-3.015
		c0.007-0.249-0.268-0.641-0.72-0.649c-0.224,0.31-0.003,0.604-1.003,0.899c0,0.024,0,0.048,0,0.073
		c0,0.012,0.344,0.025,0.338,0.038c0.231,0.708,0.648,1.399,0.316,2.169c-0.288,0.668,0.227,1.521-0.31,2.124
		c-0.299-0.016-0.369-0.121-0.333-0.307c0.242-1.252-0.027-2.591,0.558-3.789c0.019-0.087,0.054-0.174,0.089-0.26
		c0.011-0.016,0.028-0.032,0.04-0.047c-0.041-1.514,0.322-3.038-0.125-4.544c-0.062-0.211-0.029-0.471,0.025-0.692
		c0.421-1.725,0.168-3.536,0.699-5.249c0.16-0.515,0.22-1.062,0.315-1.595c0.836-4.649,1.678-9.296,2.497-13.949
		c0.135-0.771,0.375-1.495,0.656-2.221c0.244-0.629,0.644-1.06,1.268-1.26c2.653-0.846,5.23-1.951,7.979-2.472
		c1.171-0.222,2.195-0.746,3.221-1.283c1.059-0.555,1.944-1.26,1.985-2.613c0.006-0.215,0.173-0.427,0.274-0.637
		c0.58-1.209-0.181-2.23-0.499-3.301c-0.07-0.234-0.446-0.412-0.715-0.547c-0.79-0.395-1.635-0.438-2.498-0.323
		c-2.534,0.336-5.068,0.668-7.603,1.002c-0.446,0.059-0.902,0.27-1.322-0.079c-0.053-0.143-0.164-0.289-0.148-0.42
		c0.229-1.998,0.463-3.996,0.723-5.991c0.129-0.998,0.324-1.987,0.469-2.983c0.147-1.011-0.493-1.929-0.346-2.96
		c0.081-0.571-0.277-0.991-0.761-1.338c-0.561-0.402-1.095-0.861-1.561-1.369c-0.646-0.705-1.423-0.915-2.311-0.748
		c-0.852,0.16-1.674,0.234-2.515-0.089c-0.261-0.101-0.618-0.053-0.904,0.026c-1.266,0.35-2.526,0.724-3.781,1.112
		c-0.898,0.277-1.703,0.718-2.185,1.323c-1.211,4.993-2.368,9.812-3.553,14.624c-0.285,1.157-0.495,1.312-1.805,1.371
		c-1.553,0.07-3.091,0.197-4.605,0.579c-0.823,0.208-1.658,0.384-2.495,0.527c-2.229,0.379-4.367,1.069-6.443,1.935
		c-0.774,0.323-1.489,0.821-2.174,1.319c-0.714,0.521-0.627,1.189,0.193,1.64c1.22,0.672,2.481,1.271,3.693,1.957
		c1.253,0.708,2.596,0.981,4.011,1.013c1.317,0.03,2.635,0.055,3.951,0.115c0.845,0.038,1.696,0.091,2.449,0.449
		c0.181,0.75-0.228,1.263-0.506,1.795c-1.473,2.82-3.159,5.51-4.989,8.113c-2.681,3.814-5.617,7.41-8.982,10.646
		c-1.518,1.46-3.206,2.688-4.997,3.78c-0.674,0.411-1.415,0.731-2.205,0.415c-1.021-0.408-2.072-0.603-3.157-0.701
		c-0.402-0.036-0.661-0.554-0.448-0.879c0.591-0.908,1.201-1.804,1.818-2.696c0.474-0.686,1.021-1.331,1.217-2.13
		c-0.23-0.167-0.344-0.318-0.471-0.33c-1.737-0.161-3.367,0.334-4.972,0.891c-0.417,0.144-0.789,0.49-1.12,0.808
		c-2.631,2.516-5.274,5.02-7.858,7.583c-1.592,1.579-3.141,3.209-4.609,4.904c-1.316,1.519-2.499,3.155-3.734,4.744
		c-2.337,3.008-5.039,5.678-7.732,8.356c-0.218,0.217-0.465,0.41-0.718,0.588c-0.322,0.229-0.658,0.276-1.08,0.22
		c-1.087-0.146-1.257,0.059-1.067,1.026c0.104,0.528,0.163,1.069,0.323,1.579c0.095,0.3,0.414,0.491,0.747,0.391
		c0.363-0.109,0.718-0.276,1.044-0.473c0.942-0.566,1.639-1.412,2.418-2.165c0.241-0.232,0.426-0.67,0.903-0.436
		c0.017,0.086,0.06,0.168,0.039,0.228c-0.267,0.808-0.548,1.612-0.817,2.421c-1.755,5.269-2.21,10.594-0.696,16.004
		c0.815,2.909,1.511,5.866,3.022,8.522c1.149,2.02,2.345,4.015,3.59,5.977c1.003,1.58,2.289,2.918,3.79,4.057
		c3.74,2.836,7.988,3.099,12.406,2.481c1.935-0.27,3.663-1.146,5.447-1.895c2.356-0.988,4.067-2.798,6.002-4.322
		c0.344-0.271,0.501-0.771,0.76-1.156c0.516-0.771,0.964-1.608,1.582-2.29c1.064-1.172,1.782-2.526,2.373-3.964
		c0.82-1.997,1.466-4.055,2.151-6.1c0.179-0.533-0.106-1.038,0.118-1.586c1.063-2.607,1.614-5.302,1.203-8.137
		c-0.055-0.377-0.049-0.788,0.039-1.158c0.515-2.161,0.42-4.301-0.134-6.438c-0.096-0.37-0.094-0.769-0.132-1.152
		c-0.208-2.072-0.389-4.126-1.123-6.129c-0.446-1.218-0.637-2.551-1.126-3.773c-0.744-1.86-1.453-3.699-3.259-4.932
		c-1.065-0.728-1.591-2.015-2.05-3.218c0.636-0.462,1.284-0.465,1.882-0.541c2.847-0.362,5.338-1.552,7.653-3.173
		c0.888-0.622,1.748-1.286,2.628-1.919c0.253-0.181,0.54-0.293,0.919-0.07c0.195,0.64,0.024,1.326-0.031,2.014
		c-0.105,1.313-0.196,2.626-0.279,3.941c-0.045,0.713-0.022,1.376,0.857,1.66c0.305,0.098,0.268,0.503,0.248,0.821
		c-0.08,1.237-0.166,2.475-0.204,3.713c-0.018,0.602-0.123,1.044-0.826,1.162c-0.151,0.025-0.326,0.339-0.363,0.544
		c-0.192,1.059-0.365,2.122-0.493,3.191c-0.03,0.249-0.065,0.646,0.451,0.688c0.602-0.559,0.25-1.447,0.625-2.189
		c0.314,0.674,0.208,1.291,0.167,1.873c-0.324,4.521-0.684,9.039-1.032,13.559c-0.242-0.355-0.293-0.719-0.398-1.065
		c-0.03-0.101-0.208-0.171-0.333-0.22c-0.044-0.017-0.16,0.053-0.19,0.109c-0.105,0.203-0.251,0.412-0.27,0.629
		c-0.177,2.08-0.337,4.163-0.488,6.246c-0.021,0.3,0.035,0.605,0.052,0.853c0.194,0.142,0.309,0.244,0.44,0.317
		c0.668,0.374,0.954,0.905,0.666,1.415c-0.182,0.323-0.527,0.549-0.749,0.854c-0.368,0.511-0.354,1.422,0.146,1.634
		c0.761,0.321,0.852,0.871,0.765,1.495c-0.196,1.411-0.127,2.778,0.399,4.113c0.083,0.211,0.104,0.456,0.107,0.685
		c0.031,1.984,0.754,3.796,1.506,5.569c0.637,1.502,1.621,2.779,3.037,3.723c2.132,1.42,4.334,2.703,6.604,3.893
		c2.076,1.088,4.326,1.064,6.547,1.29c0.225,0.023,0.465-0.034,0.69-0.086c1.502-0.352,3.018-0.659,4.501-1.081
		c2.045-0.581,3.619-1.721,4.198-3.91c0.078-0.295,0.221-0.575,0.354-0.852c0.607-1.252,1.245-2.49,1.823-3.756
		c0.221-0.484,0.479-1.047,0.426-1.543c-0.118-1.077,0.324-1.988,0.683-2.907c0.701-1.794,1.517-3.544,2.291-5.31
		c0.027-0.062,0.117-0.096,0.178-0.143c0.587,0.014,0.977,0.434,1.438,0.705c3.265,1.927,6.857,2.46,10.536,2.173
		c4.502-0.353,8.59-1.914,12.04-4.933c0.059-0.051,0.128-0.089,0.185-0.142c1.416-1.331,2.784-2.688,3.403-4.618
		c0.282-0.883,0.667-1.735,1.03-2.59C187.085,108.047,187.966,104.379,188.269,100.562z M107.168,111.948
		c-0.875,4.142-2.614,7.931-4.991,11.428c-0.968,1.424-2.185,2.623-3.541,3.662c-0.667,0.511-1.457,0.872-2.213,1.256
		c-0.538,0.275-1.065,0.148-1.498-0.262c-0.394-0.372-0.808-0.737-1.125-1.171c-1.509-2.054-3.11-4.041-4.276-6.336
		c-2.111-4.155-2.685-9.735-1.371-14.219c0.13-0.447,0.302-0.881,0.425-1.328c0.142-0.517,0.191-0.99,0.015-1.567
		c-0.318-1.035-0.271-2.137,0.189-3.162c0.507-1.129,0.981-2.278,1.572-3.363c1.371-2.517,2.892-4.944,4.661-7.208
		c0.234-0.299,0.489-0.583,0.937-1.113c0.952,0.859,1.961,0.866,2.966,0.871c0.696,0.003,1.394-0.027,2.09-0.045
		c1.935-0.049,3.45,0.661,4.417,2.402c0.225,0.404,0.514,0.774,0.793,1.146c1.354,1.8,1.94,3.848,2.023,6.073
		C108.402,103.368,108.069,107.688,107.168,111.948z M140.682,113.417c-0.013,0.495-0.273,0.64-1.204,0.821
		c0.402-1.061,0.781-2.062,0.621-3.183c-0.053-0.363,0.123-0.899,0.638-1.095C141.061,111.126,140.71,112.27,140.682,113.417z
		 M141.111,95.359c0.053-0.186,0.105-0.371,0.156-0.55c0.115,0,0.211-0.024,0.234,0.005c0.144,0.188,0.116,0.394-0.046,0.539
		C141.39,95.411,141.229,95.361,141.111,95.359z M171.228,109.1c-1.165,1.234-2.534,1.692-4.147,1.558
		c-0.592-0.049-1.23-0.092-1.693-0.527c0.011-0.205-0.031-0.384,0.035-0.502c2.672-4.785,5.354-9.564,8.041-14.342
		c0.028-0.05,0.142-0.05,0.3-0.1c0.744,1.215,0.823,2.617,0.973,3.975C175.158,103.021,173.879,106.287,171.228,109.1z
		 M176.045,74.543c-0.579-0.086-0.69-0.387-0.794-0.668c-0.538-1.464-0.812-2.952-0.572-4.528c0.197-1.294,0.274-2.61,0.764-3.842
		c0.109-0.274,0.315-0.512,0.49-0.758c0.039-0.057,0.148-0.122,0.195-0.104c0.134,0.051,0.327,0.119,0.361,0.224
		c0.12,0.36,0.243,0.738,0.256,1.113C176.846,68.833,176.788,71.676,176.045,74.543z"/>
	<path fill="#FFFFFF" d="M73.818,70.522c0.157-2.396,0.13-4.803,0.278-7.199c0.139-2.245,0.26-4.48,0.089-6.73
		c-0.151-1.999-0.552-3.989-0.298-6.01c0.217-1.729-0.108-3.359-0.748-4.98c-0.422-1.068-0.995-2.189-0.813-3.358
		c0.241-1.55-0.344-2.876-0.722-4.292c-0.293-1.1-0.918-1.771-1.881-2.19c-0.85-0.37-1.783-0.571-2.592-1.009
		c-1.065-0.576-2.083-0.473-3.126-0.086c-1.157,0.43-2.296,0.911-3.449,1.353c-0.37,0.142-0.699,0.312-0.94,0.641
		c-0.411,0.561-0.831,1.117-1.257,1.666c-0.248,0.318-0.415,0.676-0.374,1.07c0.185,1.731-0.376,3.381-0.533,5.074
		c-0.292,3.164-0.599,6.326-0.911,9.488c-0.283,2.853-0.579,5.704-0.872,8.556c-0.436,4.234-0.67,8.487-1.155,12.72
		c-0.344,2.999-0.47,6.024-0.692,9.037c-0.228,3.087-0.458,6.175-0.678,9.264c-0.034,0.478-0.125,0.918-0.599,1.382
		c-1.42,0-2.961-0.014-4.501,0.003c-1.627,0.019-3.255,0.097-4.882,0.089c-1.536-0.007-3.046,0.517-4.741,0.276
		c-0.272-1.538-0.291-2.845-0.22-4.158c0.184-3.393,0.082-6.796,0.388-10.185c0.021-0.23-0.019-0.466-0.005-0.697
		c0.095-1.546,0.214-3.091,0.294-4.637c0.168-3.25,0.409-6.496-0.097-9.744c-0.166-1.064-0.164-2.162-0.159-3.244
		c0.011-2.462,0.262-4.902-0.405-7.364c-0.543-2.004-0.649-4.125-0.976-6.19c-0.084-0.531-0.18-1.092-0.423-1.561
		c-0.609-1.172-1.046-2.397-1.382-3.669c-0.5-1.896-1.692-3.466-2.526-5.205c-0.379-0.791-1.184-1.432-2.119-1.697
		c-1.335-0.379-2.679-0.728-4.025-1.067c-0.209-0.053-0.468-0.043-0.671,0.028c-1.09,0.384-2.254,0.655-3.231,1.235
		c-1.057,0.627-2.104,1.263-3.194,1.838c-1.087,0.574-1.7,1.559-1.887,2.783c-0.059,0.383-0.088,0.771-0.105,1.158
		c-0.122,2.701-0.47,5.383-0.469,8.1c0.001,4.182-0.799,8.328-0.733,12.521c0.003,0.232-0.031,0.464-0.049,0.696
		c-0.304,3.938-0.748,7.869-0.785,11.825c-0.012,1.24,0.008,2.483-0.095,3.717c-0.387,4.638-0.373,9.287-0.391,13.931
		c-0.027,6.898,0.126,13.791,0.436,20.686c0.226,5.029,0.229,10.07,0.445,15.104c0.317,7.356,0.536,14.717,0.742,22.077
		c0.08,2.863,0.266,5.729-0.016,8.598c-0.075,0.76,0.02,1.548,0.131,2.311c0.114,0.784,0.482,1.453,1.17,1.929
		c0.828,0.571,1.697,1.108,2.422,1.795c0.968,0.917,2.093,1.255,3.367,1.348c0.993,0.073,1.964,0.292,2.942,0.483
		c1.441,0.282,2.78,0.93,4.21,1.144c0.458-0.269,0.892-0.457,1.247-0.744c0.522-0.424,1.049,0.038,1.559-0.089
		c0.148-0.036,0.286-0.115,0.43-0.171c0.904-0.348,1.749-0.72,2.542-1.366c0.854-0.695,2.025-1,3.083-1.487
		c-0.064-1.549,0.024-3.011,0.142-4.474c0.054-0.681-0.038-1.404-0.226-2.062c-0.284-0.99-0.328-1.977-0.315-2.988
		c0.032-2.337-0.249-4.653-0.815-6.906c-0.267-1.061-0.506-2.101-0.557-3.186c-0.068-1.471-0.166-2.941-0.158-4.413
		c0.006-1.012-0.083-1.988-0.264-2.988c-0.315-1.749-0.364-3.535-0.299-5.315c0.008-0.227,0.139-0.452,0.461-0.386
		c0.488,0.85-0.207,2.028,0.726,2.778c0.328-0.258,0.185-0.57,0.172-0.858c-0.059-1.394-0.15-2.786-0.177-4.181
		c-0.09-4.718-0.066-9.44-0.267-14.154c-0.113-2.633-0.148-5.265-0.207-7.898c-0.026-1.153-0.086-2.319,0.431-3.312
		c0.527-0.34,0.997-0.195,1.456-0.197c3.581-0.012,7.08,0.772,10.626,1.104c0.519,0.048,0.834,0.372,0.867,0.916
		c0.087,1.468,0.195,2.939,0.194,4.408c-0.004,2.791-0.052,5.581-0.13,8.371c-0.186,6.655,0.202,13.326-0.524,19.967
		c-0.025,0.229-0.002,0.465,0.004,0.697c0.069,2.399,0.187,4.8,0.193,7.2c0.005,1.633,0.559,2.707,2.13,3.454
		c1.571,0.746,3.311,1.333,4.438,2.83c0.114,0.153,0.408,0.216,0.625,0.235c0.614,0.058,1.242,0.161,1.845,0.086
		c1.552-0.193,3.055-0.097,4.46,0.551c0.896-0.569,1.446-1.61,2.659-1.393c0.186,0.034,0.466-0.123,0.614-0.277
		c0.463-0.483,1.035-0.552,1.654-0.687c0.639-0.139,1.368-0.497,1.62-1.186c0.502-1.373,1.016-2.738,0.916-4.274
		c-0.212-3.241-0.303-6.489-1.204-9.644c-0.147-0.518-0.209-1.066-0.257-1.604c-0.185-2.078,0.082-4.188-0.456-6.239
		c0.301-2.442-0.012-4.908,0.34-7.357c0.274-1.907,0.382-3.842,0.502-5.77c0.125-2.006,0.123-4.02,0.279-6.022
		c0.108-1.391,0.233-2.772,0.233-4.172c0-1.698,0.022-3.389,0.437-5.077c0.31-1.262,0.39-2.619,0.335-3.925
		c-0.115-2.721,0.074-5.432,0.329-8.118C73.278,82.749,73.418,76.628,73.818,70.522z"/>
	<path fill="#FFFFFF" d="M296.449,48.671c0.304-1.589,0.493-3.183,0.653-4.778c0.036-0.365,0.13-0.76-0.23-1.221
		c-0.199,0.515-0.124,0.979-0.167,1.418c-0.044,0.454-0.164,0.876-0.46,1.232C296.207,46.441,296.045,47.567,296.449,48.671z"/>
	<path fill="#FFFFFF" d="M296.245,45.323c0-0.002,0-0.004,0-0.007c-0.006,0.008-0.008,0.017-0.014,0.026
		C296.235,45.335,296.24,45.329,296.245,45.323z"/>
	<path fill="#FFFFFF" d="M296.245,45.316l-0.029,0.048c0.006-0.007,0.011-0.015,0.016-0.022
		C296.237,45.333,296.239,45.324,296.245,45.316z"/>
	<path fill="#FFFFFF" d="M296.059,51.138c-0.427,0.538-0.229,1.092-0.298,1.603c-0.051,0.379-0.188,0.7-0.455,0.966
		c0.065,0.901,0.13,1.803,0.194,2.704C295.61,54.671,296.508,53.009,296.059,51.138z"/>
	<path fill="#FFFFFF" d="M295.306,53.708c0-0.004-0.001-0.009-0.001-0.014c-0.007,0.012-0.013,0.025-0.02,0.038
		C295.292,53.723,295.299,53.715,295.306,53.708z"/>
	<path fill="#FFFFFF" d="M295.305,53.693l-0.028,0.048c0.003-0.003,0.006-0.007,0.009-0.011
		C295.292,53.719,295.298,53.706,295.305,53.693z"/>
	<path fill="#FFFFFF" d="M124.924,89.955c-0.046-0.125-0.092-0.249-0.138-0.374c-0.12,0.053-0.295,0.073-0.348,0.164
		c-0.12,0.208-0.062,0.422,0.204,0.456C124.725,90.211,124.83,90.042,124.924,89.955z"/>
	<path fill="#FFFFFF" d="M123.686,98.363c-0.101,0.062-0.142,0.222-0.209,0.338c0.112,0.066,0.223,0.132,0.334,0.198
		c0.063-0.12,0.176-0.239,0.178-0.36C123.992,98.368,123.831,98.275,123.686,98.363z"/>
	<path fill="#FFFFFF" d="M123.579,100.277c-0.109,0.199-0.067,0.41,0.198,0.436c0.078,0.007,0.173-0.17,0.26-0.262
		c-0.043-0.126-0.087-0.251-0.131-0.376C123.793,100.141,123.633,100.18,123.579,100.277z"/>
</g>
</svg>
