<?xml version="1.0" encoding="utf-8"?>
<!-- Generator: Adobe Illustrator 16.0.0, SVG Export Plug-In . SVG Version: 6.00 Build 0)  -->
<!DOCTYPE svg PUBLIC "-//W3C//DTD SVG 1.1//EN" "http://www.w3.org/Graphics/SVG/1.1/DTD/svg11.dtd">
<svg version="1.1" id="Layer_1" xmlns="http://www.w3.org/2000/svg" xmlns:xlink="http://www.w3.org/1999/xlink" x="0px" y="0px"
	 width="836.503px" height="288.091px" viewBox="0 0 836.503 288.091" enable-background="new 0 0 836.503 288.091"
	 xml:space="preserve">
<g opacity="0.5">
	<g opacity="0.3">
		<polyline fill="none" stroke="#CCCCCC" stroke-miterlimit="10" points="0,257 52.281,194.262 104.563,257 		"/>
		<polyline fill="none" stroke="#F2F2F2" stroke-miterlimit="10" points="0,277.914 52.281,215.175 104.563,277.914 		"/>
		<polyline fill="none" stroke="#CCCCCC" stroke-miterlimit="10" points="0,298.826 52.281,236.087 104.563,298.826 		"/>
		<polyline fill="none" stroke="#F2F2F2" stroke-miterlimit="10" points="0,319.739 52.281,257 104.563,319.739 		"/>
		<polyline fill="none" stroke="#CCCCCC" stroke-miterlimit="10" points="104.563,257 156.844,194.262 209.126,257 		"/>
		<polyline fill="none" stroke="#F2F2F2" stroke-miterlimit="10" points="104.563,277.914 156.844,215.175 209.126,277.914 		"/>
		<polyline fill="none" stroke="#CCCCCC" stroke-miterlimit="10" points="104.563,298.826 156.844,236.087 209.126,298.826 		"/>
		<polyline fill="none" stroke="#F2F2F2" stroke-miterlimit="10" points="104.563,319.739 156.844,257 209.126,319.739 		"/>
		<polyline fill="none" stroke="#CCCCCC" stroke-miterlimit="10" points="209.126,257 261.407,194.262 313.688,257 		"/>
		<polyline fill="none" stroke="#F2F2F2" stroke-miterlimit="10" points="209.126,277.914 261.407,215.175 313.688,277.914 		"/>
		<polyline fill="none" stroke="#CCCCCC" stroke-miterlimit="10" points="209.126,298.826 261.407,236.087 313.688,298.826 		"/>
		<polyline fill="none" stroke="#F2F2F2" stroke-miterlimit="10" points="209.126,319.739 261.407,257 313.688,319.739 		"/>
		<polyline fill="none" stroke="#CCCCCC" stroke-miterlimit="10" points="313.688,257 365.97,194.262 418.251,257 		"/>
		<polyline fill="none" stroke="#F2F2F2" stroke-miterlimit="10" points="313.688,277.914 365.97,215.175 418.251,277.914 		"/>
		<polyline fill="none" stroke="#CCCCCC" stroke-miterlimit="10" points="313.688,298.826 365.97,236.087 418.251,298.826 		"/>
		<polyline fill="none" stroke="#F2F2F2" stroke-miterlimit="10" points="313.688,319.739 365.97,257 418.251,319.739 		"/>
		<polyline fill="none" stroke="#CCCCCC" stroke-miterlimit="10" points="418.251,257 470.533,194.262 522.814,257 		"/>
		<polyline fill="none" stroke="#F2F2F2" stroke-miterlimit="10" points="418.251,277.914 470.533,215.175 522.814,277.914 		"/>
		<polyline fill="none" stroke="#CCCCCC" stroke-miterlimit="10" points="418.251,298.826 470.533,236.087 522.814,298.826 		"/>
		<polyline fill="none" stroke="#F2F2F2" stroke-miterlimit="10" points="418.251,319.739 470.533,257 522.814,319.739 		"/>
		<polyline fill="none" stroke="#CCCCCC" stroke-miterlimit="10" points="522.814,257 575.096,194.262 627.377,257 		"/>
		<polyline fill="none" stroke="#F2F2F2" stroke-miterlimit="10" points="522.814,277.914 575.096,215.175 627.377,277.914 		"/>
		<polyline fill="none" stroke="#CCCCCC" stroke-miterlimit="10" points="522.814,298.826 575.096,236.087 627.377,298.826 		"/>
		<polyline fill="none" stroke="#F2F2F2" stroke-miterlimit="10" points="522.814,319.739 575.096,257 627.377,319.739 		"/>
		<polyline fill="none" stroke="#CCCCCC" stroke-miterlimit="10" points="627.377,257 679.658,194.262 731.94,257 		"/>
		<polyline fill="none" stroke="#F2F2F2" stroke-miterlimit="10" points="627.377,277.914 679.658,215.175 731.94,277.914 		"/>
		<polyline fill="none" stroke="#CCCCCC" stroke-miterlimit="10" points="627.377,298.826 679.658,236.087 731.94,298.826 		"/>
		<polyline fill="none" stroke="#F2F2F2" stroke-miterlimit="10" points="627.377,319.739 679.658,257 731.94,319.739 		"/>
		<polyline fill="none" stroke="#CCCCCC" stroke-miterlimit="10" points="731.94,257 784.222,194.262 836.503,257 		"/>
		<polyline fill="none" stroke="#F2F2F2" stroke-miterlimit="10" points="731.94,277.914 784.222,215.175 836.503,277.914 		"/>
		<polyline fill="none" stroke="#CCCCCC" stroke-miterlimit="10" points="731.94,298.826 784.222,236.087 836.503,298.826 		"/>
		<polyline fill="none" stroke="#F2F2F2" stroke-miterlimit="10" points="731.94,319.739 784.222,257 836.503,319.739 		"/>
	</g>
	<g opacity="0.3">
		<polyline fill="none" stroke="#CCCCCC" stroke-miterlimit="10" points="36,225 88.281,162.262 140.563,225 		"/>
		<polyline fill="none" stroke="#F2F2F2" stroke-miterlimit="10" points="36,245.914 88.281,183.175 140.563,245.914 		"/>
		<polyline fill="none" stroke="#CCCCCC" stroke-miterlimit="10" points="36,266.826 88.281,204.087 140.563,266.826 		"/>
		<polyline fill="none" stroke="#F2F2F2" stroke-miterlimit="10" points="36,287.739 88.281,225 140.563,287.739 		"/>
		<polyline fill="none" stroke="#CCCCCC" stroke-miterlimit="10" points="140.563,225 192.844,162.262 245.126,225 		"/>
		<polyline fill="none" stroke="#F2F2F2" stroke-miterlimit="10" points="140.563,245.914 192.844,183.175 245.126,245.914 		"/>
		<polyline fill="none" stroke="#CCCCCC" stroke-miterlimit="10" points="140.563,266.826 192.844,204.087 245.126,266.826 		"/>
		<polyline fill="none" stroke="#F2F2F2" stroke-miterlimit="10" points="140.563,287.739 192.844,225 245.126,287.739 		"/>
		<polyline fill="none" stroke="#CCCCCC" stroke-miterlimit="10" points="245.126,225 297.407,162.262 349.688,225 		"/>
		<polyline fill="none" stroke="#F2F2F2" stroke-miterlimit="10" points="245.126,245.914 297.407,183.175 349.688,245.914 		"/>
		<polyline fill="none" stroke="#CCCCCC" stroke-miterlimit="10" points="245.126,266.826 297.407,204.087 349.688,266.826 		"/>
		<polyline fill="none" stroke="#F2F2F2" stroke-miterlimit="10" points="245.126,287.739 297.407,225 349.688,287.739 		"/>
		<polyline fill="none" stroke="#CCCCCC" stroke-miterlimit="10" points="349.688,225 401.97,162.262 454.251,225 		"/>
		<polyline fill="none" stroke="#F2F2F2" stroke-miterlimit="10" points="349.688,245.914 401.97,183.175 454.251,245.914 		"/>
		<polyline fill="none" stroke="#CCCCCC" stroke-miterlimit="10" points="349.688,266.826 401.97,204.087 454.251,266.826 		"/>
		<polyline fill="none" stroke="#F2F2F2" stroke-miterlimit="10" points="349.688,287.739 401.97,225 454.251,287.739 		"/>
		<polyline fill="none" stroke="#CCCCCC" stroke-miterlimit="10" points="454.251,225 506.533,162.262 558.814,225 		"/>
		<polyline fill="none" stroke="#F2F2F2" stroke-miterlimit="10" points="454.251,245.914 506.533,183.175 558.814,245.914 		"/>
		<polyline fill="none" stroke="#CCCCCC" stroke-miterlimit="10" points="454.251,266.826 506.533,204.087 558.814,266.826 		"/>
		<polyline fill="none" stroke="#F2F2F2" stroke-miterlimit="10" points="454.251,287.739 506.533,225 558.814,287.739 		"/>
		<polyline fill="none" stroke="#CCCCCC" stroke-miterlimit="10" points="558.814,225 611.096,162.262 663.377,225 		"/>
		<polyline fill="none" stroke="#F2F2F2" stroke-miterlimit="10" points="558.814,245.914 611.096,183.175 663.377,245.914 		"/>
		<polyline fill="none" stroke="#CCCCCC" stroke-miterlimit="10" points="558.814,266.826 611.096,204.087 663.377,266.826 		"/>
		<polyline fill="none" stroke="#F2F2F2" stroke-miterlimit="10" points="558.814,287.739 611.096,225 663.377,287.739 		"/>
		<polyline fill="none" stroke="#CCCCCC" stroke-miterlimit="10" points="663.377,225 715.658,162.262 767.94,225 		"/>
		<polyline fill="none" stroke="#F2F2F2" stroke-miterlimit="10" points="663.377,245.914 715.658,183.175 767.94,245.914 		"/>
		<polyline fill="none" stroke="#CCCCCC" stroke-miterlimit="10" points="663.377,266.826 715.658,204.087 767.94,266.826 		"/>
		<polyline fill="none" stroke="#F2F2F2" stroke-miterlimit="10" points="663.377,287.739 715.658,225 767.94,287.739 		"/>
		<polyline fill="none" stroke="#CCCCCC" stroke-miterlimit="10" points="767.94,225 820.222,162.262 872.503,225 		"/>
		<polyline fill="none" stroke="#F2F2F2" stroke-miterlimit="10" points="767.94,245.914 820.222,183.175 872.503,245.914 		"/>
		<polyline fill="none" stroke="#CCCCCC" stroke-miterlimit="10" points="767.94,266.826 820.222,204.087 872.503,266.826 		"/>
		<polyline fill="none" stroke="#F2F2F2" stroke-miterlimit="10" points="767.94,287.739 820.222,225 872.503,287.739 		"/>
	</g>
	<g opacity="0.3">
		<polyline fill="none" stroke="#CCCCCC" stroke-miterlimit="10" points="-800,225 -747.719,162.262 -695.437,225 		"/>
		<polyline fill="none" stroke="#F2F2F2" stroke-miterlimit="10" points="-800,245.914 -747.719,183.175 -695.437,245.914 		"/>
		<polyline fill="none" stroke="#CCCCCC" stroke-miterlimit="10" points="-800,266.826 -747.719,204.087 -695.437,266.826 		"/>
		<polyline fill="none" stroke="#F2F2F2" stroke-miterlimit="10" points="-800,287.739 -747.719,225 -695.437,287.739 		"/>
		<polyline fill="none" stroke="#CCCCCC" stroke-miterlimit="10" points="-695.437,225 -643.156,162.262 -590.874,225 		"/>
		<polyline fill="none" stroke="#F2F2F2" stroke-miterlimit="10" points="-695.437,245.914 -643.156,183.175 -590.874,245.914 		"/>
		<polyline fill="none" stroke="#CCCCCC" stroke-miterlimit="10" points="-695.437,266.826 -643.156,204.087 -590.874,266.826 		"/>
		<polyline fill="none" stroke="#F2F2F2" stroke-miterlimit="10" points="-695.437,287.739 -643.156,225 -590.874,287.739 		"/>
		<polyline fill="none" stroke="#CCCCCC" stroke-miterlimit="10" points="-590.874,225 -538.593,162.262 -486.312,225 		"/>
		<polyline fill="none" stroke="#F2F2F2" stroke-miterlimit="10" points="-590.874,245.914 -538.593,183.175 -486.312,245.914 		"/>
		<polyline fill="none" stroke="#CCCCCC" stroke-miterlimit="10" points="-590.874,266.826 -538.593,204.087 -486.312,266.826 		"/>
		<polyline fill="none" stroke="#F2F2F2" stroke-miterlimit="10" points="-590.874,287.739 -538.593,225 -486.312,287.739 		"/>
		<polyline fill="none" stroke="#CCCCCC" stroke-miterlimit="10" points="-486.312,225 -434.03,162.262 -381.749,225 		"/>
		<polyline fill="none" stroke="#F2F2F2" stroke-miterlimit="10" points="-486.312,245.914 -434.03,183.175 -381.749,245.914 		"/>
		<polyline fill="none" stroke="#CCCCCC" stroke-miterlimit="10" points="-486.312,266.826 -434.03,204.087 -381.749,266.826 		"/>
		<polyline fill="none" stroke="#F2F2F2" stroke-miterlimit="10" points="-486.312,287.739 -434.03,225 -381.749,287.739 		"/>
		<polyline fill="none" stroke="#CCCCCC" stroke-miterlimit="10" points="-381.749,225 -329.467,162.262 -277.186,225 		"/>
		<polyline fill="none" stroke="#F2F2F2" stroke-miterlimit="10" points="-381.749,245.914 -329.467,183.175 -277.186,245.914 		"/>
		<polyline fill="none" stroke="#CCCCCC" stroke-miterlimit="10" points="-381.749,266.826 -329.467,204.087 -277.186,266.826 		"/>
		<polyline fill="none" stroke="#F2F2F2" stroke-miterlimit="10" points="-381.749,287.739 -329.467,225 -277.186,287.739 		"/>
		<polyline fill="none" stroke="#CCCCCC" stroke-miterlimit="10" points="-277.186,225 -224.904,162.262 -172.623,225 		"/>
		<polyline fill="none" stroke="#F2F2F2" stroke-miterlimit="10" points="-277.186,245.914 -224.904,183.175 -172.623,245.914 		"/>
		<polyline fill="none" stroke="#CCCCCC" stroke-miterlimit="10" points="-277.186,266.826 -224.904,204.087 -172.623,266.826 		"/>
		<polyline fill="none" stroke="#F2F2F2" stroke-miterlimit="10" points="-277.186,287.739 -224.904,225 -172.623,287.739 		"/>
		<polyline fill="none" stroke="#CCCCCC" stroke-miterlimit="10" points="-172.623,225 -120.342,162.262 -68.06,225 		"/>
		<polyline fill="none" stroke="#F2F2F2" stroke-miterlimit="10" points="-172.623,245.914 -120.342,183.175 -68.06,245.914 		"/>
		<polyline fill="none" stroke="#CCCCCC" stroke-miterlimit="10" points="-172.623,266.826 -120.342,204.087 -68.06,266.826 		"/>
		<polyline fill="none" stroke="#F2F2F2" stroke-miterlimit="10" points="-172.623,287.739 -120.342,225 -68.06,287.739 		"/>
		<polyline fill="none" stroke="#CCCCCC" stroke-miterlimit="10" points="-68.06,225 -15.778,162.262 36.503,225 		"/>
		<polyline fill="none" stroke="#F2F2F2" stroke-miterlimit="10" points="-68.06,245.914 -15.778,183.175 36.503,245.914 		"/>
		<polyline fill="none" stroke="#CCCCCC" stroke-miterlimit="10" points="-68.06,266.826 -15.778,204.087 36.503,266.826 		"/>
		<polyline fill="none" stroke="#F2F2F2" stroke-miterlimit="10" points="-68.06,287.739 -15.778,225 36.503,287.739 		"/>
	</g>
	<polygon fill="none" stroke="#000000" stroke-miterlimit="10" points="124.446,-108.5 103.233,-145 124.446,-181.5 166.873,-181.5 
		188.085,-145 166.873,-108.5 	"/>
	<polygon fill="none" stroke="#000000" stroke-miterlimit="10" points="140.659,-101.5 115.659,-145 140.659,-188.5 190.66,-188.5 
		215.659,-145 190.66,-101.5 	"/>
	<polygon fill="none" stroke="#000000" stroke-miterlimit="10" points="124.446,-108.5 103.233,-145 124.446,-181.5 166.873,-181.5 
		188.085,-145 166.873,-108.5 	"/>
	<polygon fill="none" stroke="#000000" stroke-miterlimit="10" points="140.659,-101.5 115.659,-145 140.659,-188.5 190.66,-188.5 
		215.659,-145 190.66,-101.5 	"/>
</g>
</svg>
