<?xml version="1.0" encoding="utf-8"?>
<!-- Generator: Adobe Illustrator 16.0.0, SVG Export Plug-In . SVG Version: 6.00 Build 0)  -->
<!DOCTYPE svg PUBLIC "-//W3C//DTD SVG 1.1//EN" "http://www.w3.org/Graphics/SVG/1.1/DTD/svg11.dtd">
<svg version="1.1" id="Layer_1" xmlns="http://www.w3.org/2000/svg" xmlns:xlink="http://www.w3.org/1999/xlink" x="0px" y="0px"
	 width="1000px" height="420px" viewBox="0 0 1000 420" enable-background="new 0 0 1000 420" xml:space="preserve">
<g>
	<path fill="none" stroke="#CCCCCC" stroke-width="0.5" stroke-miterlimit="10" d="M-38.363,122.8c50.814,0,50.814,70,101.629,70
		c50.815,0,50.815-70,101.631-70s50.815,70,101.63,70s50.815-70,101.63-70c50.814,0,50.814,70,101.628,70
		c50.815,0,50.815-70,101.63-70c50.813,0,50.813,70,101.627,70c50.816,0,50.816-70,101.632-70s50.815,70,101.63,70
		c50.816,0,50.816-70,101.632-70s50.815,70,101.63,70c50.816,0,50.816-70,101.632-70c50.819,0,50.819,70,101.638,70
		s50.818-70,101.638-70"/>
</g>
<g>
	<path fill="none" stroke="#E6E6E6" stroke-width="0.5" stroke-miterlimit="10" d="M-93.733,87.933c50.814,0,50.814,70,101.629,70
		c50.815,0,50.815-70,101.631-70s50.815,70,101.63,70s50.815-70,101.63-70c50.814,0,50.814,70,101.629,70
		c50.815,0,50.815-70,101.63-70c50.813,0,50.813,70,101.627,70c50.815,0,50.815-70,101.632-70c50.814,0,50.814,70,101.63,70
		s50.815-70,101.632-70c50.814,0,50.814,70,101.629,70c50.816,0,50.816-70,101.633-70c50.818,0,50.818,70,101.638,70
		s50.819-70,101.638-70"/>
</g>
<g>
	<path fill="none" stroke="#CCCCCC" stroke-width="0.5" stroke-miterlimit="10" d="M-219.104,53.067c50.814,0,50.814,70,101.629,70
		c50.815,0,50.815-70,101.631-70s50.815,70,101.63,70s50.815-70,101.63-70c50.814,0,50.814,70,101.628,70
		c50.815,0,50.815-70,101.63-70c50.813,0,50.813,70,101.627,70c50.816,0,50.816-70,101.631-70c50.814,0,50.814,70,101.63,70
		s50.815-70,101.632-70c50.814,0,50.814,70,101.63,70s50.815-70,101.632-70c50.818,0,50.818,70,101.638,70s50.819-70,101.638-70"/>
</g>
<g>
	<path fill="none" stroke="#E6E6E6" stroke-width="0.5" stroke-miterlimit="10" d="M-264.474,18.201c50.814,0,50.814,70,101.629,70
		c50.815,0,50.815-70,101.631-70s50.815,70,101.63,70s50.815-70,101.63-70c50.814,0,50.814,70,101.628,70
		c50.815,0,50.815-70,101.63-70c50.813,0,50.813,70,101.627,70c50.816,0,50.816-70,101.631-70s50.815,70,101.63,70
		c50.816,0,50.816-70,101.632-70s50.815,70,101.63,70c50.816,0,50.816-70,101.633-70c50.818,0,50.818,70,101.637,70
		s50.818-70,101.638-70"/>
</g>
<g>
	<path fill="none" stroke="#CCCCCC" stroke-width="0.5" stroke-miterlimit="10" d="M-38.363,308.8c50.814,0,50.814,70,101.629,70
		c50.815,0,50.815-70,101.631-70s50.815,70,101.63,70s50.815-70,101.63-70c50.814,0,50.814,70,101.628,70
		c50.815,0,50.815-70,101.63-70c50.813,0,50.813,70,101.627,70c50.816,0,50.816-70,101.632-70s50.815,70,101.63,70
		c50.816,0,50.816-70,101.632-70s50.815,70,101.63,70c50.816,0,50.816-70,101.632-70c50.819,0,50.819,70,101.638,70
		s50.818-70,101.638-70"/>
</g>
<g>
	<path fill="none" stroke="#E6E6E6" stroke-width="0.5" stroke-miterlimit="10" d="M-93.733,273.933c50.814,0,50.814,70,101.629,70
		c50.815,0,50.815-70,101.631-70s50.815,70,101.63,70s50.815-70,101.63-70c50.814,0,50.814,70,101.629,70
		c50.815,0,50.815-70,101.63-70c50.813,0,50.813,70,101.627,70c50.815,0,50.815-70,101.632-70c50.814,0,50.814,70,101.63,70
		s50.815-70,101.632-70c50.814,0,50.814,70,101.629,70c50.816,0,50.816-70,101.633-70c50.818,0,50.818,70,101.638,70
		s50.819-70,101.638-70"/>
</g>
<g>
	<path fill="none" stroke="#CCCCCC" stroke-width="0.5" stroke-miterlimit="10" d="M-219.104,239.066c50.814,0,50.814,70,101.629,70
		c50.815,0,50.815-70,101.631-70s50.815,70,101.63,70s50.815-70,101.63-70c50.814,0,50.814,70,101.628,70
		c50.815,0,50.815-70,101.63-70c50.813,0,50.813,70,101.627,70c50.816,0,50.816-70,101.631-70c50.814,0,50.814,70,101.63,70
		s50.815-70,101.632-70c50.814,0,50.814,70,101.63,70s50.815-70,101.632-70c50.818,0,50.818,70,101.638,70s50.819-70,101.638-70"/>
</g>
<g>
	<path fill="none" stroke="#E6E6E6" stroke-width="0.5" stroke-miterlimit="10" d="M-264.474,204.201c50.814,0,50.814,70,101.629,70
		c50.815,0,50.815-70,101.631-70s50.815,70,101.63,70s50.815-70,101.63-70c50.814,0,50.814,70,101.628,70
		c50.815,0,50.815-70,101.63-70c50.813,0,50.813,70,101.627,70c50.816,0,50.816-70,101.631-70s50.815,70,101.63,70
		c50.816,0,50.816-70,101.632-70s50.815,70,101.63,70c50.816,0,50.816-70,101.633-70c50.818,0,50.818,70,101.637,70
		s50.818-70,101.638-70"/>
</g>
</svg>
